<svg width="120" height="120" viewBox="0 0 120 120" fill="none" xmlns="http://www.w3.org/2000/svg">
<path d="M73.9699 29.0047C73.6796 28.5692 73.3166 28.0974 72.8811 27.6256C71.3205 25.811 68.9977 23.7422 65.6225 22.2542C62.8642 20.8388 59.5978 19.9315 56.0048 20.0041C51.0327 20.1129 48.6736 22.5446 48.347 23.8874C48.3107 24.0326 48.2018 24.1415 48.0566 24.2141C47.2219 24.5407 44.6088 26.1013 44.3547 32.9244V32.9607L44.4273 36.6263V36.6626C45.1895 45.6633 49.0003 48.1312 49.0003 48.1312L49.1817 48.2401L50.4157 49.1111C50.3794 48.8571 50.1979 48.5667 50.0528 48.3127C49.8713 48.1312 49.6898 47.986 49.4721 47.7683C46.8953 45.1189 45.4435 40.3282 47.5848 39.312C48.0566 39.0942 49.5809 37.824 52.0852 39.4209L54.299 41.4533L56.8396 35.7916C57.6017 34.1947 58.4728 32.9244 59.4164 32.6341C59.6341 32.5615 59.8519 32.5615 60.0696 32.5978C60.6503 32.7429 61.3762 32.8881 62.2109 33.0696L64.2071 33.3962C65.0781 33.5051 66.0217 33.614 67.0016 33.6503H68.0904L72.6271 32.7066C73.0626 32.5978 73.4981 32.4889 73.9336 32.2711C74.4417 32.0171 74.9135 31.6904 75.3853 31.3638C75.3853 31.4364 74.9498 30.4202 73.9699 29.0047Z" fill="url(#paint0_linear)"/>
<path d="M50.1605 49.0742C49.8701 48.9653 49.5435 49.183 49.5072 49.5097L49.362 54.8448C49.362 54.8811 49.362 54.9173 49.362 54.9536C49.4709 55.4255 50.2693 58.8733 52.9913 61.4501C53.9349 62.3574 54.7697 63.0833 55.4955 63.7366C57.0924 65.0431 58.3264 65.6964 59.6692 65.7327C61.5565 65.8053 63.1171 65.2609 63.6978 63.664C63.7341 63.5551 63.7704 63.4462 63.8067 63.3011C64.1696 61.7767 63.9155 59.1636 63.843 58.3289C63.8067 58.1474 63.6978 58.0023 63.5526 57.966C62.7542 57.6756 60.1774 56.6957 57.8546 55.4617C56.7295 54.9173 55.8948 54.4455 55.2415 53.8648C55.0237 53.6471 54.806 53.4293 54.5882 53.1753C54.2616 52.7398 54.8423 52.1591 55.2778 52.522C56.1488 53.2479 57.2739 54.01 58.6167 54.5181C61.121 55.498 63.9155 56.6957 65.8754 56.5868C65.9117 56.5868 65.948 56.5868 65.9842 56.5505C68.924 56.9861 69.6136 51.8324 69.6136 51.8324L70.0491 51.5058C70.4483 51.2155 70.5572 50.6711 70.3394 50.2355L70.158 49.8726C70.158 49.8726 70.158 49.8726 70.7386 49.6548C71.3193 49.4371 70.7024 46.9329 70.7024 46.9329C70.7024 46.9329 74.1139 46.3885 73.5695 45.0093C73.0251 43.6302 71.7186 40.0735 71.7186 40.0735L73.2066 33.7222C71.283 34.7021 67.8715 35.1739 67.8715 35.1739C63.5526 35.3191 61.121 33.6859 59.887 33.7585C58.1086 33.9036 54.2253 45.5537 54.2253 45.5537C53.4631 41.1623 50.8863 40.1461 50.1605 39.9283C48.7813 39.5654 48.0555 39.3839 47.1481 41.0171C46.0956 42.9043 50.0153 48.3846 50.0153 48.3846C50.1967 48.6386 50.3419 48.8927 50.3782 49.183C50.3056 49.1467 50.233 49.1105 50.1605 49.0742ZM53.0639 51.0703C53.0276 51.0703 52.9913 51.034 52.9913 50.9977C53.0276 51.034 53.0276 51.034 53.0639 51.0703ZM52.6284 50.6348C52.5921 50.6348 52.5921 50.5985 52.5921 50.5622C52.5921 50.5985 52.5921 50.5985 52.6284 50.6348ZM52.1566 50.1992C52.1203 50.1992 52.084 50.163 52.084 50.1267C52.1203 50.163 52.1566 50.163 52.1566 50.1992ZM51.6848 49.8363C51.6485 49.8363 51.6122 49.8363 51.6122 49.8C51.6485 49.8 51.6485 49.8363 51.6848 49.8363ZM51.467 49.6911C51.4307 49.6911 51.3944 49.6911 51.3944 49.6548C51.4307 49.6548 51.467 49.6911 51.467 49.6911ZM51.2492 49.5823C51.213 49.5823 51.1767 49.546 51.1767 49.546C51.213 49.546 51.213 49.5823 51.2492 49.5823Z" fill="#8A97CC"/>
<path d="M77.2737 79.3075V79.1987C77.3826 78.9809 77.4552 78.618 77.4552 77.9647C77.4552 77.13 77.3826 75.8234 77.1285 73.7184C77.0922 73.4281 77.0559 73.1377 77.0197 72.8111C76.9834 72.303 76.9108 71.7586 76.8382 71.1779C76.2575 66.3872 73.8984 64.3548 71.9386 63.4838C69.7973 61.1973 67.2205 59.4189 66.4584 59.6367C65.4059 59.9633 64.9703 60.3263 64.9703 60.3263V63.0482V63.1571C63.1194 70.0165 55.6793 65.6976 55.643 65.6976C54.0098 64.3911 50.816 61.2336 49.8361 59.3463C49.2917 58.2938 48.8562 57.3502 48.6384 56.4429C48.3844 55.4267 48.3844 54.4468 48.7836 53.3217C48.7836 53.3217 48.2029 53.0676 46.3157 55.1726C46.0253 55.4993 45.735 55.8259 45.4447 56.08C44.1744 57.3865 43.4848 58.1124 44.2107 60.1085C42.6864 60.6529 40.0007 62.7216 38.4401 64.3548C37.932 64.8629 37.3876 65.371 36.8069 65.8428C35.1374 67.2582 33.3953 68.7463 32.8872 71.5045C32.3428 74.5894 31.3629 81.8481 31 84.5338C33.1776 90.631 41.8153 89.397 41.8153 89.397C41.8516 89.3607 41.8879 89.3607 41.9242 89.3244C45.2995 89.6511 49.1466 89.397 49.1466 89.397L49.2191 89.5422C50.9249 89.5059 52.8122 89.4696 54.7357 89.397C56.1874 89.3244 57.7117 89.2519 59.236 89.1793L60.6152 76.6219L58.4376 71.9038L56.5866 73.2829L54.5542 74.8072C51.7597 72.6296 47.3682 65.7339 47.3682 65.7339C48.8199 67.9841 54.9897 73.6821 54.9897 73.6821L56.8044 72.2667L59.4175 70.0165L61.9943 69.835L67.6197 72.4119C69.3255 70.0165 69.6884 66.4961 69.7247 64.0644C69.8699 71.5771 68.0553 73.5006 68.0553 73.5006L64.3171 71.9038L63.192 76.6219L64.7526 88.8889H65.3696C69.2166 88.2719 73.2452 87.5461 77.4552 86.6025L77.2737 79.3075Z" fill="url(#paint1_linear)"/>
<path fill-rule="evenodd" clip-rule="evenodd" d="M90.2901 75.5967C92.8899 80.1666 91.2929 85.9788 86.723 88.5787C82.1531 91.1786 76.3408 89.5815 73.7409 85.0116C71.1411 80.4417 72.7381 74.6295 77.308 72.0296C81.8779 69.4297 87.6902 71.0268 90.2901 75.5967ZM87.5189 89.9778C92.8615 86.9383 94.7285 80.1433 91.6891 74.8008C88.6497 69.4582 81.8547 67.5911 76.5121 70.6306C71.1695 73.67 69.3025 80.465 72.3419 85.8075C72.8187 86.6456 73.3879 87.3982 74.0294 88.0597C73.8529 88.0917 73.6849 88.1794 73.5539 88.3214L67.6093 94.764C67.2887 95.1115 67.3105 95.6531 67.658 95.9737C68.0054 96.2944 68.5471 96.2726 68.8677 95.9251L74.8123 89.4825C74.9459 89.3377 75.02 89.1592 75.0359 88.977C78.4915 91.7563 83.4305 92.3037 87.5189 89.9778Z" fill="url(#paint2_linear)"/>
<rect x="0.5" y="0.5" width="119" height="119" rx="59.5" stroke="#282A7E"/>
<defs>
<linearGradient id="paint0_linear" x1="61.2805" y1="49.1111" x2="103.293" y2="38.5643" gradientUnits="userSpaceOnUse">
<stop stop-color="#3D48DB"/>
<stop offset="0.494792" stop-color="#3C2D93"/>
<stop offset="1" stop-color="#6238B3"/>
</linearGradient>
<linearGradient id="paint1_linear" x1="56.3392" y1="89.5422" x2="117.612" y2="71.0394" gradientUnits="userSpaceOnUse">
<stop stop-color="#3D48DB"/>
<stop offset="0.494792" stop-color="#3C2D93"/>
<stop offset="1" stop-color="#6238B3"/>
</linearGradient>
<linearGradient id="paint2_linear" x1="63.4295" y1="66.8198" x2="78.7074" y2="61.6081" gradientUnits="userSpaceOnUse">
<stop stop-color="#01F8F1"/>
<stop offset="1" stop-color="#41E4FE"/>
</linearGradient>
</defs>
</svg>
