<svg width="120" height="120" viewBox="0 0 120 120" fill="none" xmlns="http://www.w3.org/2000/svg">
<rect x="0.5" y="0.5" width="119" height="119" rx="59.5" stroke="#282A7E"/>
<path d="M75.6564 27.5676C75.3479 27.1049 74.9623 26.6036 74.4995 26.1023C72.8414 24.1742 70.3734 21.9762 66.7872 20.3951C63.8565 18.8912 60.386 17.9272 56.5683 18.0043C51.2854 18.12 48.7789 20.7036 48.4318 22.1304C48.3933 22.2847 48.2776 22.4003 48.1234 22.4775C47.2364 22.8245 44.46 24.4827 44.1901 31.7323V31.7708L44.2672 35.6655V35.7041C45.077 45.2674 49.126 47.8896 49.126 47.8896L49.3188 48.0053L50.6299 48.9307C50.5913 48.6608 50.3985 48.3523 50.2442 48.0824C50.0514 47.8896 49.8586 47.7353 49.6273 47.504C46.8894 44.689 45.3469 39.5988 47.622 38.5191C48.1234 38.2877 49.7429 36.9381 52.4037 38.6348L54.756 40.7942L57.4553 34.7786C58.4848 32.6215 60.5006 30 65.0006 31C69.5006 32 71.5006 31.5 75.0006 30.5C75.5405 30.2301 77.5006 29.5 77.5006 29.5C77.5006 29.5 76.6113 29 75.6564 27.5676Z" fill="url(#paint0_linear)"/>
<path d="M50.3576 48.8915C50.0492 48.7758 49.7021 49.0072 49.6635 49.3542L49.5093 55.0228C49.5093 55.0613 49.5093 55.0999 49.5093 55.1385C49.625 55.6398 50.4733 59.3031 53.3655 62.041C54.3681 63.005 55.255 63.7763 56.0262 64.4704C57.7229 65.8586 59.034 66.5527 60.4608 66.5913C62.466 66.6684 64.1242 66.09 64.7411 64.3933C64.7797 64.2776 64.8183 64.1619 64.8568 64.0076C65.2424 62.3881 64.9725 59.6116 64.8954 58.7247C64.8568 58.5319 64.7411 58.3776 64.5869 58.3391C63.7385 58.0306 61.0007 56.9894 58.5327 55.6783C57.3373 55.0999 56.4504 54.5986 55.7563 53.9816C55.5249 53.7502 55.2935 53.5189 55.0622 53.2489C54.7151 52.7862 55.3321 52.1692 55.7948 52.5548C56.7203 53.3261 57.9157 54.1359 59.3425 54.6757C62.0033 55.7169 64.9725 56.9894 67.0548 56.8737C67.0934 56.8737 67.132 56.8737 67.1705 56.8352C70.294 57.2979 71.0267 51.8222 71.0267 51.8222L71.4894 51.4751C71.9136 51.1666 72.0293 50.5882 71.7979 50.1254L71.6051 49.7398C71.6051 49.7398 71.6051 49.7398 72.2221 49.5085C72.8391 49.2771 72.1835 46.6163 72.1835 46.6163C72.1835 46.6163 75.8083 46.0379 75.2299 44.5726C74.6515 43.1072 73.2633 39.3282 73.2633 39.3282L75.4995 30.9999C71.4894 33.4999 65.8749 30.8746 61.4995 31.4998C57.9995 32 54.6765 45.151 54.6765 45.151C53.8668 40.485 51.1289 39.4053 50.3576 39.1739C48.8923 38.7883 48.1211 38.5955 47.157 40.3308C46.0387 42.336 50.2034 48.1588 50.2034 48.1588C50.3962 48.4287 50.5505 48.6987 50.589 49.0072C50.5119 48.9686 50.4348 48.93 50.3576 48.8915ZM53.4426 51.0124C53.404 51.0124 53.3655 50.9738 53.3655 50.9352C53.404 50.9738 53.404 50.9738 53.4426 51.0124ZM52.9798 50.5496C52.9413 50.5496 52.9413 50.5111 52.9413 50.4725C52.9413 50.5111 52.9413 50.5111 52.9798 50.5496ZM52.4785 50.0869C52.44 50.0869 52.4014 50.0483 52.4014 50.0098C52.44 50.0483 52.4785 50.0483 52.4785 50.0869ZM51.9772 49.7013C51.9387 49.7013 51.9001 49.7013 51.9001 49.6627C51.9387 49.6627 51.9387 49.7013 51.9772 49.7013ZM51.7459 49.547C51.7073 49.547 51.6687 49.547 51.6687 49.5085C51.7073 49.5085 51.7459 49.547 51.7459 49.547ZM51.5145 49.4313C51.4759 49.4313 51.4374 49.3928 51.4374 49.3928C51.4759 49.3928 51.4759 49.4313 51.5145 49.4313Z" fill="#8A97CC"/>
<path d="M79.1661 81.0146V80.8989C79.2818 80.6676 79.3589 80.2819 79.3589 79.5878C79.3589 78.7009 79.2818 77.3127 79.0118 75.0761C78.9733 74.7676 78.9347 74.4591 78.8962 74.1121C78.8576 73.5722 78.7805 72.9938 78.7034 72.3768C78.0864 67.2867 75.5799 65.1272 73.4975 64.2017C71.2224 61.7724 68.4845 59.8828 67.6747 60.1142C66.5564 60.4613 66.0937 60.8469 66.0937 60.8469V63.739V63.8547C64.1271 71.1428 56.2219 66.554 56.1834 66.554C54.4481 65.1658 51.0547 61.8109 50.0135 59.8057C49.4351 58.6874 48.9723 57.6848 48.741 56.7208C48.471 55.6411 48.471 54.5999 48.8952 53.4045C48.8952 53.4045 48.2782 53.1345 46.273 55.3711C45.9645 55.7182 45.656 56.0652 45.3475 56.3352C43.9979 57.7234 43.2652 58.4946 44.0364 60.6155C42.4168 61.1939 39.5633 63.3919 37.9051 65.1272C37.3653 65.6671 36.7868 66.2069 36.1699 66.7082C34.396 68.2121 32.5451 69.7932 32.0052 72.7239C31.4268 76.0016 30.3856 83.7139 30 86.5675C32.3137 93.0458 41.4914 91.7347 41.4914 91.7347C41.5299 91.6962 41.5685 91.6962 41.6071 91.6576C45.1933 92.0047 49.2808 91.7347 49.2808 91.7347L49.3579 91.889C51.1703 91.8504 53.1755 91.8119 55.2193 91.7347C56.7618 91.6576 58.3814 91.5805 60.001 91.5034L61.4663 78.1611L59.1526 73.148L57.186 74.6134L55.0265 76.233C52.0573 73.9193 47.3913 66.5926 47.3913 66.5926C48.9338 68.9834 55.4892 75.0376 55.4892 75.0376L57.4173 73.5337L60.1938 71.1428L62.9316 70.95L68.9087 73.6879C70.7211 71.1428 71.1067 67.4024 71.1453 64.8187C71.2995 72.801 69.3714 74.8447 69.3714 74.8447L65.3996 73.148L64.2042 78.1611L65.8623 91.1949H66.5179C70.6054 90.5393 74.8857 89.7681 79.3589 88.7655L79.1661 81.0146Z" fill="url(#paint1_linear)"/>
<path d="M60.2098 41.8931C59.2405 40.5 57.8518 35.5 56 35L81 35.5C80.624 37.1219 79.6112 44 76.3705 44.5C74.5187 44.5 75.2707 43.9055 74.5187 43.5C73.7668 43.0945 73.592 45 68.5004 45C63.4088 45 61.179 43.2862 60.2098 41.8931Z" fill="#0B1240"/>
<path d="M62.8695 41.7822C61.0345 39.7895 60.9108 35.9918 61.0344 34L77.9315 35.5789C79.7583 35.5789 79.3016 42.9474 76.1048 43.4737C75.1914 43.4737 75.4765 42.8479 74.7347 42.4211C73.9929 41.9942 72.513 43.4895 69.9168 43.9163C67.3206 44.3431 63.6113 43.0626 62.8695 41.7822Z" fill="url(#paint2_linear)"/>
<path d="M58.5 31.2639L43.5007 31.264C42.2244 33.9587 42.7958 37.5797 44.5 37.5797L61 36H81.5C81.6329 35.2982 81.9998 35.4745 81.9998 33.7903C82.653 31.4097 85.6319 30.3593 81.5 29.5001C78.5 28 57.5 28 58.5 31.2639Z" fill="#0B1240"/>
<path d="M81.0851 103.439L80.2892 103.439L80.1108 102.664L80.1107 102.664L80.1107 102.664L80.1106 102.663L80.1106 102.663L80.1093 102.658L80.1032 102.632C80.0975 102.609 80.0887 102.572 80.0766 102.525C80.0525 102.429 80.0157 102.289 79.9664 102.113C79.8676 101.76 79.7194 101.271 79.523 100.725C79.1203 99.6071 78.5524 98.3605 77.8563 97.5415C77.0139 96.5502 76.1515 95.3913 75.3707 94.3211C75.1962 94.0818 75.0264 93.8479 74.8619 93.6213C74.2789 92.8183 73.7624 92.107 73.3373 91.5727C72.8502 90.9605 72.1527 90.3719 71.5 89.8308C71.4799 89.8141 71.4597 89.7974 71.4395 89.7807C71.1519 89.5424 70.8596 89.3003 70.6388 89.0894C70.5209 88.9769 70.3902 88.8424 70.2826 88.6963C70.2023 88.5871 70 88.2985 70 87.9057C70 87.6983 70.0419 87.3475 70.129 86.9716C70.2179 86.5878 70.3718 86.0982 70.6359 85.6472C70.8975 85.2004 71.3228 84.6999 71.9881 84.4688C72.6797 84.2287 73.4221 84.3503 74.154 84.7395L74.154 84.7395L74.1591 84.7422C75.2898 85.3519 76.3591 86.3348 77.183 87.2086L77.183 74.2423L77.183 74.1969L77.1871 74.1517L78.183 74.2423C77.1871 74.1517 77.1871 74.1514 77.1871 74.1511L77.1872 74.1505L77.1873 74.1491L77.1876 74.1458L77.1885 74.1369L77.1913 74.1105C77.1936 74.0893 77.197 74.0607 77.2016 74.0258C77.2107 73.9561 77.2249 73.8602 77.2461 73.7458C77.2877 73.5204 77.359 73.2077 77.4786 72.8777C77.6847 72.309 78.19 71.2658 79.3383 71.0492C80.2417 70.8755 81.1457 71.1637 81.7729 71.9082C82.3715 72.6189 82.634 73.6384 82.5924 74.8211C82.5569 75.8314 82.5568 77.0731 82.5658 78.0704C82.5664 78.1333 82.567 78.1952 82.5676 78.2559C82.9519 78.1662 83.4053 78.1397 83.8572 78.3039C83.8856 78.3142 83.9248 78.3262 83.9726 78.3409C84.2846 78.4364 84.9662 78.6452 85.4522 79.2422C85.7473 79.6048 85.9557 80.0687 86.0917 80.6565C86.5411 80.4946 87.081 80.4157 87.7109 80.4996C88.7623 80.6396 89.5487 81.1022 89.9441 81.9678C90.0621 82.2262 90.1341 82.5023 90.1764 82.7812C90.7059 82.6679 91.3673 82.608 92.0459 82.7629C92.4267 82.8499 92.9243 83.0051 93.3301 83.4441C93.7228 83.8687 93.9103 84.4286 94.012 85.0542C94.2106 86.2749 94.1615 88.3277 93.946 91.8092C93.721 95.4608 92.9087 97.6586 92.0677 98.9766C91.6467 99.6364 91.2236 100.067 90.8767 100.343C90.8603 100.356 90.8441 100.369 90.828 100.381L90.828 102.439L90.828 103.439L89.828 103.439L81.0851 103.439Z" fill="url(#paint3_linear)" stroke="#0B1240" stroke-width="2"/>
<defs>
<linearGradient id="paint0_linear" x1="3.46362" y1="43.8905" x2="102.147" y2="42.6818" gradientUnits="userSpaceOnUse">
<stop stop-color="#3D48DB"/>
<stop offset="0.494792" stop-color="#3C2D93"/>
<stop offset="1" stop-color="#1F0079"/>
</linearGradient>
<linearGradient id="paint1_linear" x1="56.923" y1="91.889" x2="122.025" y2="72.2296" gradientUnits="userSpaceOnUse">
<stop stop-color="#3D48DB"/>
<stop offset="0.494792" stop-color="#3C2D93"/>
<stop offset="1" stop-color="#6238B3"/>
</linearGradient>
<linearGradient id="paint2_linear" x1="57.3804" y1="33.4737" x2="88.5334" y2="38.3991" gradientUnits="userSpaceOnUse">
<stop offset="0.122969" stop-color="#3C2D93"/>
<stop offset="0.468598" stop-color="#3D48DB"/>
<stop offset="1" stop-color="#6238B3"/>
</linearGradient>
<linearGradient id="paint3_linear" x1="79.5321" y1="97.7644" x2="99.9365" y2="76.9613" gradientUnits="userSpaceOnUse">
<stop stop-color="#01F8F1"/>
<stop offset="1" stop-color="#3643A3"/>
</linearGradient>
</defs>
</svg>
