<svg width="120" height="120" viewBox="0 0 120 120" fill="none" xmlns="http://www.w3.org/2000/svg">
<rect x="0.5" y="0.5" width="119" height="119" rx="59.5" stroke="#282A7E"/>
<path d="M44.5611 50.9997C44.2708 50.8939 43.9443 51.1055 43.908 51.4227L43.7628 56.6047C43.7628 56.6399 43.7628 56.6752 43.7628 56.7104C43.8717 57.1687 44.6699 60.5176 47.3912 63.0204C48.3345 63.9017 49.169 64.6067 49.8947 65.2413C51.4912 66.5103 52.7248 67.1448 54.0673 67.1801C55.954 67.2506 57.5142 66.7218 58.0947 65.1707C58.131 65.065 58.1673 64.9592 58.2036 64.8182C58.5664 63.3377 58.3124 60.7996 58.2399 59.9888C58.2036 59.8125 58.0947 59.6715 57.9496 59.6363C57.1514 59.3543 54.5753 58.4025 52.2531 57.2039C51.1283 56.6752 50.2938 56.2169 49.6407 55.6529C49.423 55.4414 49.2053 55.2299 48.9876 54.9831C48.6611 54.5601 49.2416 53.9961 49.677 54.3486C50.5478 55.0536 51.6726 55.7939 53.0151 56.2874C55.5186 57.2392 58.3124 58.4025 60.2717 58.2967C60.308 58.2967 60.3443 58.2967 60.3806 58.2615C63.3195 58.6845 64.0089 53.6788 64.0089 53.6788L64.4443 53.3615C64.8434 53.0795 64.9523 52.5508 64.7346 52.1277L64.5531 51.7752C64.5531 51.7752 64.5531 51.7752 65.1337 51.5637C65.7142 51.3522 65.0974 48.9199 65.0974 48.9199C65.0974 48.9199 68.508 48.3911 67.9638 47.0516C67.4195 45.712 66.1133 42.2574 66.1133 42.2574L68.2174 34.644C64.4443 36.9294 59.1615 34.5294 55.0446 35.1011C51.7514 35.5583 48.6248 47.5803 48.6248 47.5803C47.8629 43.3149 45.2867 42.3279 44.5611 42.1164C43.1823 41.7639 42.4566 41.5876 41.5496 43.1739C40.4974 45.007 44.4159 50.3299 44.4159 50.3299C44.5974 50.5767 44.7425 50.8234 44.7788 51.1055C44.7062 51.0702 44.6336 51.035 44.5611 50.9997ZM47.4637 52.9385C47.4275 52.9385 47.3912 52.9033 47.3912 52.868C47.4275 52.9033 47.4275 52.9033 47.4637 52.9385ZM47.0283 52.5155C46.9921 52.5155 46.9921 52.4803 46.9921 52.445C46.9921 52.4803 46.9921 52.4803 47.0283 52.5155ZM46.5567 52.0925C46.5204 52.0925 46.4841 52.0572 46.4841 52.022C46.5204 52.0572 46.5567 52.0572 46.5567 52.0925ZM46.085 51.74C46.0487 51.74 46.0124 51.74 46.0124 51.7047C46.0487 51.7047 46.0487 51.74 46.085 51.74ZM45.8673 51.599C45.831 51.599 45.7947 51.599 45.7947 51.5637C45.831 51.5637 45.8673 51.599 45.8673 51.599ZM45.6496 51.4932C45.6133 51.4932 45.577 51.458 45.577 51.458C45.6133 51.458 45.6133 51.4932 45.6496 51.4932Z" fill="#8A97CC"/>
<path d="M85.3659 22.7542C85.042 21.6383 78.5984 18.5425 75.0346 20.8104C74.0267 20.6664 72.9828 20.5944 71.9028 20.6304C68.2311 20.7024 65.9993 22.0703 64.9553 23.2942C67.6551 25.634 69.455 28.8738 70.031 32.7256L70.139 32.8696C71.4709 34.0935 72.0468 36.0013 71.6869 37.8732C71.6869 37.8732 71.5069 38.3772 71.2189 39.0251C71.9748 38.0532 72.4068 37.0453 72.4068 37.0453L72.6948 36.3973C73.4507 34.8134 74.3147 33.5535 75.2506 33.2655C75.4666 33.1935 75.6826 33.1935 75.8986 33.2295C76.4745 33.3735 77.1945 33.5175 78.0224 33.6975L80.0023 34.0215C80.8662 34.1295 81.8022 34.2375 82.7741 34.2735H83.3141H83.3861C83.818 34.2015 89.4519 34.0215 90.6576 31.0697C91.3415 30.4577 91.9103 28.2217 91.2957 27.9355C89.0487 26.8891 86.3791 23.6334 85.3659 22.7542Z" fill="url(#paint0_linear)"/>
<path fill-rule="evenodd" clip-rule="evenodd" d="M69.7072 90.3996C68.1173 90.4632 53.8521 91.0153 48.1454 90.5737C44.7616 90.3577 42.2778 89.9617 42.2778 89.9617L33.1344 66.0594L36.8422 63.2156C38.3901 65.9514 46.2015 80.2424 46.2015 80.2424L66.0722 79.0185C66.0722 79.0185 65.1987 65.9793 65.078 64.1481C65.0128 64.0883 64.9481 64.0295 64.8844 63.9716C63.2646 62.4957 61.6447 61.4518 60.9247 61.3798L59.3768 60.7678L59.1248 60.5518C59.1248 60.5518 60.4491 65.4475 58.1093 67.3554C55.2655 69.4432 50.0535 67.3914 50.0175 67.3554C48.3976 66.0595 45.2298 62.9277 44.2579 61.0558C43.1419 58.8959 42.458 57.2401 43.2139 55.0802C43.2139 55.0802 42.638 54.8282 40.7661 56.9161L40.7661 56.9161C40.4781 57.2401 40.1901 57.564 39.9022 57.816C38.6422 59.1119 37.9583 59.8319 38.6782 61.8117C38.5702 61.8477 38.3543 61.9917 38.1023 62.2077L36.6624 63.1796L33.0986 65.9155C33.0266 65.9515 32.9906 65.9875 32.9546 66.0234L32.9546 66.0235C32.4507 66.5274 31.9107 67.0314 31.3347 67.4993C29.6789 68.9033 27.951 70.3792 27.447 73.115C27.0575 75.1843 26.4869 79.147 26.0469 82.3196C25.7414 84.5227 26.9486 86.6326 29.0768 87.279C31.8475 88.1206 36.2247 89.2177 42.134 89.9978C42.134 89.9978 44.6178 90.3938 48.0016 90.6098C54.0492 91.0777 69.7081 90.4298 69.7081 90.4298L69.7072 90.3996Z" fill="url(#paint1_linear)"/>
<path d="M88.2451 63.7195C87.6331 63.0715 86.5172 62.0636 85.9052 61.5237C84.5373 60.4077 83.3134 59.7598 82.8454 59.9038C81.8015 60.2277 81.3695 60.5877 81.3695 60.5877V63.3955C79.5337 70.1991 72.1542 65.9153 72.1182 65.9153C70.4983 64.6194 67.3305 61.4877 66.3586 59.6158C65.8186 58.6078 65.3866 57.6719 65.1706 56.772C64.8827 57.4199 64.5587 58.0319 64.1267 58.5718L62.6508 59.9398H61.7869L64.5947 61.6676L67.7985 64.5474L68.6264 65.3034C69.9223 66.4553 70.6423 68.1112 70.6423 69.8391V74.3388L72.9461 72.7909L75.8619 70.2711L78.4177 70.0911L83.9973 72.6469C85.6892 70.2711 86.0492 66.7793 86.0852 64.3675C86.2292 71.8189 84.4293 73.7268 84.4293 73.7268L80.7216 72.1429L79.6056 76.8226L81.1895 89.0978C83.9389 88.6767 86.7735 88.1704 89.7051 87.5789C92.0583 87.1041 93.7337 84.9863 93.8138 82.587C94.0427 75.7338 94.3936 66.4522 88.2451 63.7195Z" fill="url(#paint2_linear)"/>
<path d="M73.02 73.5468L70.6082 75.1307L71.1841 90.3576L72.876 90.1777C72.948 90.1777 73.056 90.1417 73.128 90.1417H73.236C73.9919 90.0697 74.7479 89.9617 75.5398 89.8897L76.9437 76.8586L74.7839 72.1789L73.02 73.5468Z" fill="url(#paint3_linear)"/>
<path d="M71.4357 39.3495C71.2197 39.5295 71.0037 39.7095 70.8237 39.8535C70.6438 40.1055 70.4638 40.3934 70.2838 40.6094C70.0318 40.8614 69.7798 41.0774 69.4558 41.2574L68.7719 41.9773L69.0959 45.8291C69.1679 46.765 68.9159 47.6649 68.3399 48.4209L67.224 49.8968L65.8201 54.7565C65.8201 54.7565 65.8201 54.7925 65.7841 54.7925C65.7481 54.9364 65.7121 55.0804 65.6761 55.2244L65.5321 55.8004C65.8561 56.9883 66.792 59.6161 68.9879 61.704C69.9238 62.6039 70.7517 63.3239 71.4717 63.9718C73.0556 65.2677 74.2795 65.9157 75.6114 65.9517C77.4833 66.0237 79.0312 65.4837 79.6071 63.8998C79.6431 63.7918 79.6791 63.6839 79.7151 63.5399C80.0751 62.028 79.8231 59.4361 79.7511 58.6082C79.7151 58.4282 79.6071 58.2842 79.4632 58.2482C78.6712 57.9602 76.1154 56.9883 73.8115 55.7644C72.6956 55.2244 71.8677 54.7565 71.2197 54.1805C71.0037 53.9645 70.7877 53.7485 70.5718 53.4965C70.2478 53.0646 70.8237 52.4886 71.2557 52.8486C72.1197 53.5685 73.2356 54.3245 74.5315 54.8285C77.0153 55.8004 79.7871 56.9883 81.731 56.8803C81.767 56.8803 81.803 56.8803 81.839 56.8443C84.7548 57.2763 85.4387 52.1646 85.4387 52.1646L85.8707 51.8407C86.2667 51.5527 86.3747 51.0127 86.1587 50.5807L85.9787 50.2208C85.9787 50.2208 85.9787 50.2208 86.5547 50.0048C87.1306 49.7888 86.5187 47.305 86.5187 47.305C86.5187 47.305 89.9024 46.765 89.3625 45.3971C88.8225 44.0292 87.5266 40.5014 87.5266 40.5014L89.0025 34.2019C87.0946 35.1738 83.7109 35.6418 83.7109 35.6418C79.4272 35.7858 77.0153 34.1659 75.7914 34.2379C75.2514 34.2739 74.5675 35.3538 73.8115 36.8297C73.8115 36.8657 72.5876 38.4496 71.4357 39.3495ZM68.9879 51.3727C68.9879 51.3727 69.0239 51.3727 69.0239 51.4087C69.0239 51.4087 68.9879 51.4087 68.9879 51.3727Z" fill="#8A97CC"/>
<path d="M54.8317 45.4413C53.9801 44.0812 52.7599 39.1999 51.1328 38.7118L69.7765 38.3532C71.0609 38.3285 72.2671 39.5248 72.2882 40.8092C72.3245 43.0231 72.0409 45.9489 69.031 47.6609C67.404 47.6609 68.0648 47.4059 67.4041 47.01C66.7434 46.6142 66.5898 48.4744 62.1161 48.4744C57.6425 48.4744 55.6833 46.8013 54.8317 45.4413Z" fill="#0B1240"/>
<path d="M57.6195 44.6822C56.0437 42.7367 55.9374 39.0292 56.0436 37.0847L70.554 38.6261C72.1228 38.6261 71.7306 45.8197 68.9853 46.3335C68.2009 46.3335 68.4457 45.7225 67.8087 45.3059C67.1717 44.8892 65.9009 46.3489 63.6714 46.7656C61.4419 47.1823 58.2565 45.9322 57.6195 44.6822Z" fill="url(#paint4_linear)"/>
<path d="M51.9463 36.678L38.7518 36.2864C37.5824 38.7097 38.1059 41.9659 39.6674 41.9659L54.7861 39.932H72.2852V38.7115C72.2852 35.4573 70.109 34.6285 68.0751 34.2219C62.5225 33.1117 51.03 33.7429 51.9463 36.678Z" fill="#0B1240"/>
<path d="M70.0936 34.4874C69.7615 33.782 68.838 33.5752 68.1219 33.8833C66.4382 34.6076 64.2522 34.7116 62.5226 34.2373C62.5226 34.2373 65.9567 33.6765 67.8018 32.5028C68.3747 32.1384 68.4933 31.4064 68.2542 30.7708C64.6547 21.2015 59.7988 20.0278 49.9307 20.3994C49.808 20.404 49.6822 20.4203 49.5626 20.4486C44.9471 21.5393 42.2684 23.7925 40.911 27.2788C40.8966 27.3157 40.8878 27.3558 40.8701 27.3913C40.8539 27.4238 40.8475 27.4593 40.8358 27.4938C40.5894 28.2208 39.9645 30.5286 40.1979 33.3646C40.2327 33.7873 39.9603 34.1806 39.6106 34.4205C39.5201 34.4826 39.4294 34.555 39.3452 34.6387C39.3428 34.6411 39.3414 34.6527 39.3414 34.6561C39.3414 34.6674 39.3278 34.6922 39.3199 34.7004C39.2316 34.7926 39.1679 34.883 39.1062 34.9491C39.0953 34.9608 39.0857 34.9737 39.0788 34.9881C38.9578 35.2379 38.8924 35.5164 38.9515 35.8928C38.9677 35.9956 39.0373 36.1675 39.0977 36.2522C39.2271 36.4336 39.3781 36.4782 39.5946 36.5307C42.7677 37.3013 48.1162 36.0881 49.4404 35.763C49.6417 35.7136 49.8486 35.6915 50.0557 35.7031C56.5666 36.0688 63.659 37.5237 69.3892 36.0663C70.0756 35.8918 70.3953 35.1281 70.0936 34.4874Z" fill="url(#paint5_linear)"/>
<defs>
<linearGradient id="paint0_linear" x1="32.9109" y1="35.925" x2="110.55" y2="34.7085" gradientUnits="userSpaceOnUse">
<stop stop-color="#3D48DB"/>
<stop offset="0.494792" stop-color="#3C2D93"/>
<stop offset="1" stop-color="#1F0079"/>
</linearGradient>
<linearGradient id="paint1_linear" x1="49.8408" y1="90.7795" x2="107.921" y2="74.037" gradientUnits="userSpaceOnUse">
<stop stop-color="#3D48DB"/>
<stop offset="0.494792" stop-color="#3C2D93"/>
<stop offset="1" stop-color="#6238B3"/>
</linearGradient>
<linearGradient id="paint2_linear" x1="79.2228" y1="89.0978" x2="99.3365" y2="74.8183" gradientUnits="userSpaceOnUse">
<stop stop-color="#3C2D93"/>
<stop offset="0.9999" stop-color="#3D48DB"/>
<stop offset="1" stop-color="#6238B3"/>
</linearGradient>
<linearGradient id="paint3_linear" x1="51.9644" y1="98.0511" x2="69.9228" y2="104.962" gradientUnits="userSpaceOnUse">
<stop stop-color="#3C2D93"/>
<stop offset="0.9999" stop-color="#3D48DB"/>
<stop offset="1" stop-color="#6238B3"/>
</linearGradient>
<linearGradient id="paint4_linear" x1="52.9057" y1="36.5708" x2="79.8069" y2="40.3121" gradientUnits="userSpaceOnUse">
<stop offset="0.122969" stop-color="#3C2D93"/>
<stop offset="0.468598" stop-color="#3D48DB"/>
<stop offset="1" stop-color="#6238B3"/>
</linearGradient>
<linearGradient id="paint5_linear" x1="62.1393" y1="16.8772" x2="39.8742" y2="60.0855" gradientUnits="userSpaceOnUse">
<stop stop-color="#3D48DB"/>
<stop offset="0.494792" stop-color="#3C2D93"/>
<stop offset="1" stop-color="#6238B3"/>
</linearGradient>
</defs>
</svg>
