<svg width="120" height="120" viewBox="0 0 120 120" fill="none" xmlns="http://www.w3.org/2000/svg">
<rect x="0.5" y="0.5" width="119" height="119" rx="59.5" stroke="#282A7E"/>
<path d="M55 45.5V50" stroke="#050B38"/>
<path fill-rule="evenodd" clip-rule="evenodd" d="M76.9722 65.3405C77.9655 66.2251 79.2948 67.409 79.3229 68.3642C79.3229 68.3642 81.7816 70.8228 82.3963 78.8134C83.0109 86.804 81.1669 89.5441 81.1669 89.5441C81.1669 89.5441 78.3129 89.6108 74.4337 89.6686C75.9692 89.4671 76.9292 89.3282 76.9292 89.3282L76.6768 65.0764C76.7705 65.1608 76.8696 65.2491 76.9722 65.3405ZM72.149 62.0505C72.1639 64.9886 72.1898 71.4999 72.1408 73.8963L69.8904 73.5398C68.9439 73.3899 68.0241 73.9324 67.6973 74.8333L66.4161 78.3661L53.2754 79.1755C53.2754 79.1755 45.8702 65.534 43.8965 62L45.1735 61.1381C45.4255 60.922 45.6415 60.778 45.7495 60.742C45.0294 58.7619 45.7135 58.0418 46.9736 56.7457C47.2616 56.4937 47.5496 56.1697 47.8376 55.8457L47.8376 55.8457C49.7098 53.7575 50.2858 54.0095 50.2858 54.0095C49.5298 56.1697 50.2138 57.8258 51.3299 59.986C52.302 61.8581 55.4702 64.9903 57.0903 66.2864C58.7104 67.5825 63.3417 69.5935 65.8003 67.1348C67.4765 65.4586 67.6572 62.7517 67.7608 61.1986C67.8092 60.4736 67.8408 60 68 60C68.8108 60.2703 70.4373 61.076 72.149 62.0505ZM40.2479 64.7858L48.9862 88.9029C43.1867 88.1246 38.8828 87.044 36.1462 86.2127C34.018 85.5663 32.8108 83.4564 33.1163 81.2533C33.5563 78.0801 34.1271 74.1166 34.5167 72.0469C35.0207 69.3106 36.7488 67.8345 38.405 66.4304C38.981 65.9624 39.521 65.4584 40.0251 64.9543L40.0251 64.9543C40.0611 64.9183 40.0971 64.8823 40.1691 64.8463L40.2479 64.7858Z" fill="url(#paint0_linear)"/>
<path d="M51.561 49.6584C51.2707 49.5527 50.9442 49.7642 50.9079 50.0815L50.7628 55.2634C50.7628 55.2987 50.7628 55.3339 50.7628 55.3692C50.8716 55.8274 51.6699 59.1763 54.3911 61.6791C55.3345 62.5604 56.169 63.2655 56.8947 63.9C58.4911 65.169 59.7247 65.8036 61.0672 65.8388C62.954 65.9093 64.5141 65.3805 65.0947 63.8295C65.131 63.7237 65.1672 63.618 65.2035 63.477C65.5663 61.9964 65.3124 59.4583 65.2398 58.6475C65.2035 58.4713 65.0947 58.3303 64.9495 58.295C64.1513 58.013 61.5752 57.0612 59.2531 55.8627C58.1283 55.3339 57.2938 54.8756 56.6407 54.3116C56.423 54.1001 56.2053 53.8886 55.9876 53.6418C55.661 53.2188 56.2416 52.6548 56.677 53.0073C57.5478 53.7123 58.6725 54.4526 60.015 54.9461C62.5186 55.8979 65.3124 57.0612 67.2717 56.9555C67.3079 56.9555 67.3442 56.9555 67.3805 56.9202C70.3195 57.3432 71.0088 52.3375 71.0088 52.3375L71.4442 52.0203C71.8434 51.7383 71.9522 51.2095 71.7345 50.7865L71.5531 50.434C71.5531 50.434 71.5531 50.434 72.1336 50.2225C72.7141 50.011 72.0973 47.5786 72.0973 47.5786C72.0973 47.5786 75.508 47.0498 74.9637 45.7103C74.4195 44.3707 73.1133 40.9161 73.1133 40.9161L75.2174 33.3027C71.4442 35.5881 66.1615 33.1882 62.0446 33.7598C58.7514 34.217 55.6247 46.2391 55.6247 46.2391C54.8628 41.9737 52.2867 40.9866 51.561 40.7751C50.1823 40.4226 49.4566 40.2463 48.5495 41.8326C47.4973 43.6657 51.4159 48.9887 51.4159 48.9887C51.5973 49.2354 51.7424 49.4822 51.7787 49.7642C51.7061 49.7289 51.6336 49.6937 51.561 49.6584ZM54.4637 51.5973C54.4274 51.5973 54.3911 51.562 54.3911 51.5268C54.4274 51.562 54.4274 51.562 54.4637 51.5973ZM54.0283 51.1742C53.992 51.1742 53.992 51.139 53.992 51.1037C53.992 51.139 53.992 51.139 54.0283 51.1742ZM53.5566 50.7512C53.5203 50.7512 53.484 50.716 53.484 50.6807C53.5203 50.716 53.5566 50.716 53.5566 50.7512ZM53.0849 50.3987C53.0486 50.3987 53.0123 50.3987 53.0123 50.3635C53.0486 50.3635 53.0486 50.3987 53.0849 50.3987ZM52.8672 50.2577C52.8309 50.2577 52.7946 50.2577 52.7946 50.2225C52.8309 50.2225 52.8672 50.2577 52.8672 50.2577ZM52.6495 50.152C52.6132 50.152 52.5769 50.1167 52.5769 50.1167C52.6132 50.1167 52.6132 50.152 52.6495 50.152Z" fill="#8A97CC"/>
<path fill-rule="evenodd" clip-rule="evenodd" d="M76.7072 89.0584C75.1172 89.122 60.8521 89.6741 55.1454 89.2325C51.7616 89.0165 49.2778 88.6206 49.2778 88.6206L48.9743 87.8271C49.0775 88.3397 49.134 88.6566 49.134 88.6566C49.134 88.6566 51.6178 89.0526 55.0016 89.2686C61.0492 89.7366 76.7081 89.0886 76.7081 89.0886L76.7072 89.0584ZM45.9786 79.996C43.3042 79.4998 40.2782 81.7009 37.8922 83.4365C36.2668 84.6189 34.9384 85.5852 34.2205 85.3355C33.2138 84.9854 32.6366 83.9724 32.7805 82.9164C33.2289 79.6273 33.9724 74.2951 34.447 71.7738C34.9509 69.038 36.6788 67.5621 38.3347 66.1582C38.9107 65.6902 39.4506 65.1862 39.9546 64.6823L39.9546 64.6823C39.9906 64.6463 40.0266 64.6103 40.0986 64.5743L43.6623 61.8385L45.1022 60.8665C45.3542 60.6505 45.5702 60.5066 45.6782 60.4706C44.9583 58.4907 45.6422 57.7707 46.9021 56.4748C47.1901 56.2229 47.4781 55.8989 47.766 55.5749L47.7661 55.5749C49.6379 53.487 50.2139 53.739 50.2139 53.739C49.4579 55.8989 50.1419 57.5548 51.2578 59.7146C52.2298 61.5865 55.3975 64.7183 57.0174 66.0142C57.0534 66.0502 62.2654 68.102 65.1092 66.0142C67.4491 64.1063 66.1248 59.2106 66.1248 59.2106L66.3768 59.4266L67.9247 60.0386C68.6446 60.1106 70.2645 61.1545 71.8844 62.6304C71.9481 62.6883 72.0127 62.7471 72.078 62.8069C72.1987 64.6381 73.0722 77.6773 73.0722 77.6773L53.2015 78.9012C53.2015 78.9012 45.39 64.6102 43.8422 61.8744L40.1344 64.7182L45.9786 79.996Z" fill="url(#paint1_linear)"/>
<path d="M61.8316 44.1001C60.98 42.7401 59.7598 37.8588 58.1328 37.3706L76.7764 37.0121C78.0608 36.9874 79.2671 38.1837 79.2881 39.4681C79.3244 41.682 79.0408 44.6078 76.031 46.3198C74.4039 46.3198 75.0647 46.0648 74.404 45.6689C73.7434 45.2731 73.5897 47.1333 69.1161 47.1333C64.6424 47.1333 62.6832 45.4602 61.8316 44.1001Z" fill="#0B1240"/>
<path d="M64.6194 43.3407C63.0436 41.3952 62.9374 37.6877 63.0435 35.7432L77.554 37.2846C79.1227 37.2846 78.7305 44.4782 75.9852 44.992C75.2009 44.992 75.4457 44.381 74.8087 43.9644C74.1717 43.5477 72.9008 45.0074 70.6713 45.4241C68.4418 45.8408 65.2564 44.5907 64.6194 43.3407Z" fill="url(#paint2_linear)"/>
<path d="M58.9462 35.3367L45.7518 34.9451C44.5823 37.3684 45.1059 40.6246 46.6674 40.6246L61.786 38.5907H79.2851V37.3703C79.2851 34.116 77.1089 33.2872 75.075 32.8806C69.5224 31.7704 58.0299 32.4016 58.9462 35.3367Z" fill="#0B1240"/>
<path d="M77.0935 33.1462C76.7614 32.4409 75.8379 32.2341 75.1218 32.5421C73.4381 33.2665 71.2522 33.3705 69.5225 32.8962C69.5225 32.8962 72.9566 32.3354 74.8017 31.1617C75.3746 30.7972 75.4932 30.0652 75.2542 29.4297C71.6546 19.8604 66.7987 18.6867 56.9307 19.0583C56.8079 19.0629 56.6821 19.0792 56.5626 19.1074C51.9471 20.1981 49.2683 22.4514 47.911 25.9377C47.8966 25.9746 47.8878 26.0147 47.8701 26.0502C47.8538 26.0827 47.8474 26.1182 47.8358 26.1526C47.5894 26.8797 46.9645 29.1875 47.1979 32.0235C47.2327 32.4462 46.9602 32.8395 46.6105 33.0794C46.52 33.1415 46.4294 33.2139 46.3451 33.2976C46.3427 33.3 46.3414 33.3116 46.3414 33.3149C46.3414 33.3263 46.3277 33.3511 46.3199 33.3593C46.2316 33.4515 46.1678 33.5418 46.1061 33.608C46.0952 33.6196 46.0857 33.6326 46.0787 33.6469C45.9578 33.8967 45.8923 34.1753 45.9515 34.5517C45.9676 34.6544 46.0373 34.8263 46.0977 34.911C46.227 35.0925 46.378 35.137 46.5945 35.1896C49.7677 35.9602 55.1162 34.7469 56.4403 34.4219C56.6417 34.3725 56.8486 34.3503 57.0556 34.362C63.5666 34.7277 70.6589 36.1825 76.3891 34.7252C77.0755 34.5506 77.3952 33.787 77.0935 33.1462Z" fill="url(#paint3_linear)"/>
<rect x="30.9265" y="92.6226" width="0.472079" height="14.1624" fill="url(#paint4_linear)"/>
<rect x="46.1604" y="82.5435" width="0.472079" height="16.5228" fill="url(#paint5_linear)"/>
<rect x="68.1604" y="91.5435" width="0.472079" height="16.5228" fill="url(#paint6_linear)"/>
<rect x="92.395" y="85.1064" width="0.472079" height="16.5228" fill="url(#paint7_linear)"/>
<circle cx="31.0127" cy="88.3994" r="4.01267" stroke="#13BBD2" stroke-width="2"/>
<circle cx="68.2409" cy="88.0127" r="4.01267" stroke="#13BBD2" stroke-width="2"/>
<circle cx="92.86" cy="81.1675" r="4.01267" stroke="#13BBD2" stroke-width="2"/>
<path d="M34.6169 85.1178L43.2726 78.8857M50.5433 78.8857L64.0461 86.1565M72.2283 88.5737L89.3206 82.6942" stroke="url(#paint8_linear)" stroke-width="2"/>
<circle cx="46.9391" cy="78.0127" r="4.01267" stroke="#13BBD2" stroke-width="2"/>
<defs>
<linearGradient id="paint0_linear" x1="56.6121" y1="105.839" x2="119.94" y2="92.628" gradientUnits="userSpaceOnUse">
<stop stop-color="#3D48DB"/>
<stop offset="0.494792" stop-color="#3C2D93"/>
<stop offset="1" stop-color="#6238B3"/>
</linearGradient>
<linearGradient id="paint1_linear" x1="56.7311" y1="89.4384" x2="115.082" y2="72.5248" gradientUnits="userSpaceOnUse">
<stop stop-color="#3D48DB"/>
<stop offset="0.494792" stop-color="#3C2D93"/>
<stop offset="1" stop-color="#6238B3"/>
</linearGradient>
<linearGradient id="paint2_linear" x1="59.9056" y1="35.2293" x2="86.8068" y2="38.9706" gradientUnits="userSpaceOnUse">
<stop offset="0.122969" stop-color="#3C2D93"/>
<stop offset="0.468598" stop-color="#3D48DB"/>
<stop offset="1" stop-color="#6238B3"/>
</linearGradient>
<linearGradient id="paint3_linear" x1="69.1392" y1="15.536" x2="46.8741" y2="58.7443" gradientUnits="userSpaceOnUse">
<stop stop-color="#3D48DB"/>
<stop offset="0.494792" stop-color="#3C2D93"/>
<stop offset="1" stop-color="#6238B3"/>
</linearGradient>
<linearGradient id="paint4_linear" x1="31.1625" y1="104.347" x2="37.6102" y2="98.3605" gradientUnits="userSpaceOnUse">
<stop stop-color="#3D48DB" stop-opacity="0"/>
<stop offset="0.941162" stop-color="#6238B3"/>
</linearGradient>
<linearGradient id="paint5_linear" x1="46.3964" y1="96.2221" x2="53.747" y2="90.3721" gradientUnits="userSpaceOnUse">
<stop stop-color="#3D48DB" stop-opacity="0"/>
<stop offset="0.941162" stop-color="#6238B3"/>
</linearGradient>
<linearGradient id="paint6_linear" x1="68.3964" y1="105.222" x2="75.747" y2="99.3721" gradientUnits="userSpaceOnUse">
<stop stop-color="#3D48DB" stop-opacity="0"/>
<stop offset="0.941162" stop-color="#6238B3"/>
</linearGradient>
<linearGradient id="paint7_linear" x1="92.631" y1="98.7851" x2="99.9816" y2="92.9351" gradientUnits="userSpaceOnUse">
<stop stop-color="#3D48DB" stop-opacity="0"/>
<stop offset="0.941162" stop-color="#6238B3"/>
</linearGradient>
<linearGradient id="paint8_linear" x1="60.9301" y1="78.8857" x2="60.9301" y2="91.6961" gradientUnits="userSpaceOnUse">
<stop stop-color="#01F8F1"/>
<stop offset="1" stop-color="#13BBD2"/>
</linearGradient>
</defs>
</svg>
