<svg width="100" height="100" viewBox="0 0 100 100" fill="none" xmlns="http://www.w3.org/2000/svg">
<rect x="0.5" y="0.5" width="99" height="99" rx="9.5" stroke="#282A7E"/>
<path d="M50.8288 36.1766C42.3955 36.1766 35.5563 42.8853 35.5563 51.1576C35.5563 56.2975 38.2075 60.8434 42.234 63.5436C43.1103 64.1312 44.2691 63.7832 44.8044 62.874L48.733 56.2013C48.8819 55.9484 48.9605 55.6602 48.9605 55.3667C48.9605 54.7187 48.578 54.1343 48.0212 53.803C47.0699 53.2369 45.738 52.2494 45.738 51.1576C45.738 48.3834 48.0177 46.1471 50.846 46.1471C53.6742 46.1471 55.9539 48.3834 55.9539 51.1576C55.9539 52.2687 54.6275 53.2483 53.6766 53.8078C53.1174 54.1368 52.7315 54.7209 52.7315 55.3697C52.7315 55.6613 52.8095 55.9475 52.9574 56.1987L56.8875 62.874C57.4228 63.7832 58.5816 64.1312 59.4582 63.544C63.4845 60.8466 66.1356 56.3123 66.1356 51.1576C66.1014 42.8853 59.2621 36.1766 50.8288 36.1766Z" fill="url(#paint0_linear)"/>
<path d="M50.8288 34.1946C42.3955 34.1946 35.5563 41.0375 35.5563 49.4752C35.5563 54.7101 38.1996 59.3409 42.216 62.0966C43.0966 62.7008 44.2724 62.3477 44.8062 61.4228L47.8066 56.2248C48.4154 55.1701 47.9006 53.8216 47.0779 52.9237C46.2462 52.016 45.738 50.8075 45.738 49.4752C45.738 46.6455 48.0177 44.3646 50.846 44.3646C53.6742 44.3646 55.9539 46.6455 55.9539 49.4752C55.9539 50.8075 55.4457 52.016 54.614 52.9237C53.7913 53.8216 53.2765 55.1701 53.8853 56.2248L56.8857 61.4228C57.4196 62.3477 58.5953 62.7008 59.4762 62.097C63.4924 59.3442 66.1356 54.7252 66.1356 49.4752C66.1014 41.0375 59.2621 34.1946 50.8288 34.1946Z" fill="url(#paint1_linear)"/>
<path fill-rule="evenodd" clip-rule="evenodd" d="M75.0828 56.5469C75.6569 56.7951 75.9212 57.4617 75.673 58.0359L74.3477 61.1015C68.5822 74.4383 53.0068 80.4779 39.6154 74.6888C32.7133 71.705 27.7167 66.1326 25.2781 59.599C25.0594 59.013 25.3869 58.3728 25.9816 58.1792C26.5764 57.9855 27.213 58.3118 27.434 58.8969C29.6779 64.838 34.2334 69.8944 40.5142 72.6096C52.7782 77.9113 67.0084 72.3704 72.2685 60.2027L73.5938 57.1371C73.842 56.5629 74.5086 56.2987 75.0828 56.5469Z" fill="url(#paint2_linear)"/>
<path fill-rule="evenodd" clip-rule="evenodd" d="M25.7634 40.0985C31.5283 26.7629 47.059 20.7025 60.4957 26.5112C67.6706 29.6129 72.762 35.4815 75.1029 42.2907C75.3062 42.8822 74.9622 43.5136 74.3626 43.6918C73.763 43.8699 73.1351 43.5271 72.9294 42.9364C70.7727 36.7413 66.1287 31.414 59.5969 28.5904C47.2901 23.2701 33.1032 28.8283 27.8426 40.9973L27.5746 41.6173C27.3264 42.1914 26.6597 42.4556 26.0856 42.2074C25.5114 41.9592 25.2472 41.2926 25.4954 40.7184L25.7634 40.0985Z" fill="url(#paint3_linear)"/>
<path fill-rule="evenodd" clip-rule="evenodd" d="M25.8175 39.3818C26.1986 40.4359 27.3714 40.971 28.4174 40.568L31.3189 39.4501C31.9026 39.2252 32.5581 39.516 32.783 40.0997C33.0078 40.6834 32.717 41.3388 32.1333 41.5637L27.0736 43.5133C26.0276 43.9163 24.8547 43.3811 24.4736 42.327L22.7595 37.5857C22.5468 36.9975 22.8513 36.3482 23.4395 36.1355C24.0278 35.9229 24.677 36.2273 24.8897 36.8156L25.8175 39.3818Z" fill="url(#paint4_linear)"/>
<path fill-rule="evenodd" clip-rule="evenodd" d="M73.8553 55.5739C74.9696 55.0757 76.2664 55.6832 76.5968 56.8582L78.0206 61.9202C78.1899 62.5224 77.8391 63.1478 77.237 63.3171C76.6348 63.4865 76.0094 63.1357 75.8401 62.5335L75.1266 59.9967C74.7961 58.8217 73.4993 58.2142 72.385 58.7124L69.6726 59.925C69.1016 60.1803 68.4317 59.9243 68.1764 59.3533C67.9212 58.7823 68.1771 58.1124 68.7481 57.8571L73.8553 55.5739Z" fill="url(#paint5_linear)"/>
<defs>
<linearGradient id="paint0_linear" x1="28.7685" y1="56.5954" x2="69.3181" y2="81.4635" gradientUnits="userSpaceOnUse">
<stop offset="0.0224768" stop-color="#01F8F1"/>
<stop offset="0.0566048" stop-color="#12BDD7"/>
<stop offset="0.741706" stop-color="#3643A3"/>
</linearGradient>
<linearGradient id="paint1_linear" x1="47.3421" y1="39.5313" x2="97.2956" y2="25.6695" gradientUnits="userSpaceOnUse">
<stop stop-color="#01F8F1"/>
<stop offset="1" stop-color="#3643A3"/>
</linearGradient>
<linearGradient id="paint2_linear" x1="54.6951" y1="47.7333" x2="42.9521" y2="74.8974" gradientUnits="userSpaceOnUse">
<stop stop-color="#3D48DB"/>
<stop offset="1" stop-color="#3D35AA"/>
</linearGradient>
<linearGradient id="paint3_linear" x1="57.3794" y1="26.3979" x2="46.6936" y2="51.1163" gradientUnits="userSpaceOnUse">
<stop stop-color="#3D48DB"/>
<stop offset="1" stop-color="#3D35AA"/>
</linearGradient>
<linearGradient id="paint4_linear" x1="28.9683" y1="35.525" x2="25.8343" y2="42.7746" gradientUnits="userSpaceOnUse">
<stop stop-color="#3D48DB"/>
<stop offset="1" stop-color="#3D35AA"/>
</linearGradient>
<linearGradient id="paint5_linear" x1="75.2562" y1="56.2076" x2="72.1222" y2="63.4572" gradientUnits="userSpaceOnUse">
<stop stop-color="#3D48DB"/>
<stop offset="1" stop-color="#3D35AA"/>
</linearGradient>
</defs>
</svg>
