<svg width="100" height="100" viewBox="0 0 100 100" fill="none" xmlns="http://www.w3.org/2000/svg">
<rect x="0.5" y="0.5" width="99" height="99" rx="9.5" stroke="#282A7E"/>
<path fill-rule="evenodd" clip-rule="evenodd" d="M79.4387 58.1777L79.6162 47.5977L72.2649 39.775L65.918 43.208L65.6579 43.5153C65.8901 43.8796 66.1771 44.749 66.29 46.7847C66.3946 49.0982 65.4142 49.85 64.1906 49.9721C63.2821 50.0627 62.3973 52.0552 63.0125 53.3472L63.2463 53.7144C63.4759 53.9909 63.8053 54.2092 64.2565 54.3304C65.6195 54.6964 66.0117 56.041 66.0896 57.1731L72.1865 57.4927C72.1865 57.4927 72.4481 54.3657 75.1202 54.7065C77.7922 55.0473 76.7143 58.108 76.7143 58.108L79.4387 58.1777ZM64.6285 44.732L65.0481 44.2361C64.9324 44.4111 64.7905 44.5802 64.6285 44.732Z" fill="url(#paint0_linear)"/>
<path d="M51.6141 65.8153L59.0381 55.7454C59.0381 55.7454 59.3432 53.7908 58.5951 52.9815C58.3816 52.7742 58.1543 52.5016 57.8607 52.2376L57.2211 51.7837L56.1817 51.046C56.1817 51.046 54.5068 54.4225 51.9882 52.6352C49.4297 50.8194 52.1703 48.1435 52.1703 48.1435L48.3325 45.4199L39.7464 57.0652L51.6141 65.8153Z" fill="url(#paint1_linear)"/>
<path d="M72.1492 43.1131C68.9146 43.0988 69.5526 47.4141 69.5526 47.4141L68.2385 47.4083C67.6321 47.4056 67.0258 47.3503 66.4201 47.1899C66.4201 47.1899 66.42 47.1899 66.3695 47.1897C65.2588 46.9218 64.405 45.7084 64.3582 44.8667C64.3621 43.9727 64.6181 43.2375 64.8734 42.6602C65.2309 41.8203 65.3864 40.9269 65.2895 39.9798L65.2898 39.9273C65.2898 39.9273 60.9397 40.7495 61.0058 37.2261C61.0738 33.2821 65.5157 34.5639 65.5157 34.5639L65.5313 31.0404L79.5813 31.1026L79.5086 47.5108L74.6568 47.4893C74.6063 47.4891 75.3332 43.1272 72.1492 43.1131Z" fill="url(#paint2_linear)"/>
<path d="M62.5714 37.6622C62.5628 40.5691 66.2874 39.9896 66.2874 39.9896L66.284 41.1706C66.2823 41.7156 66.2353 42.2605 66.0975 42.8052C66.0975 42.8052 66.0975 42.8052 66.0974 42.8506C65.8674 43.8492 64.8209 44.6183 64.0944 44.6615C63.3225 44.6593 62.6876 44.4303 62.1888 44.2017C61.4634 43.8816 60.6919 43.7431 59.8744 43.8315L59.829 43.8314C59.829 43.8314 60.5439 47.7397 57.5022 47.6853C54.0972 47.6298 55.1986 43.636 55.1986 43.636L52.1567 43.627L52.194 31L66.3593 31.0418L66.3464 35.4022C66.3463 35.4477 62.5798 34.8006 62.5714 37.6622Z" fill="url(#paint3_linear)"/>
<path d="M29.9581 50.2615L37.3454 50.2615C38.9566 50.2615 40.507 50.9131 41.647 52.0768L44.2918 54.7765C44.5502 55.0402 44.8998 55.1954 45.2646 55.1954L52.059 55.1954C53.3966 55.1954 54.9318 56.0487 55.0534 57.5537C55.175 59.0587 53.5942 59.6793 52.515 59.6793L46.7542 59.6793C44.991 59.4466 44.535 62.0221 46.7542 61.9756L56.2238 61.6653L57.3445 60.1913C57.3445 60.1913 59.9248 56.7734 60.9949 55.6126C62.065 54.4517 66.7021 54.7765 59.568 63.1033L56.7406 67.0956C56.4062 67.2352 56.0414 67.3128 55.6766 67.3283L43.2734 68.0731C42.5438 68.1196 41.8142 67.9645 41.1606 67.6386L34.4269 64.2253C33.0741 63.5426 31.5845 63.1858 30.0797 63.1858L26.0365 63.1858L26.0365 50.246L29.9581 50.246L29.9581 50.2615Z" fill="url(#paint4_linear)"/>
<path d="M19.6172 62.2356L19.6172 50.3843C19.6172 49.1303 20.613 48.1058 21.8318 48.1058L28.8172 48.1058C30.0359 48.1058 31.0317 49.1303 31.0317 50.3843L31.0317 62.2356C31.0317 63.4896 30.0359 64.5141 28.8172 64.5141L21.8318 64.5141C20.5982 64.5141 19.6172 63.4896 19.6172 62.2356Z" fill="url(#paint5_linear)"/>
<defs>
<linearGradient id="paint0_linear" x1="113.083" y1="46.9226" x2="99.8009" y2="58.436" gradientUnits="userSpaceOnUse">
<stop stop-color="#01F8F1"/>
<stop offset="1" stop-color="#3643A3"/>
</linearGradient>
<linearGradient id="paint1_linear" x1="38.2982" y1="52.7238" x2="56.2583" y2="29.4291" gradientUnits="userSpaceOnUse">
<stop stop-color="#3D48DB"/>
<stop offset="0.494792" stop-color="#3C2D93"/>
<stop offset="0.941162" stop-color="#6238B3"/>
</linearGradient>
<linearGradient id="paint2_linear" x1="84.3223" y1="23.4786" x2="83.3024" y2="51.591" gradientUnits="userSpaceOnUse">
<stop stop-color="#3D48DB"/>
<stop offset="0.494792" stop-color="#3C2D93"/>
<stop offset="0.941162" stop-color="#6238B3"/>
</linearGradient>
<linearGradient id="paint3_linear" x1="57.6119" y1="45.126" x2="68.6581" y2="32.0458" gradientUnits="userSpaceOnUse">
<stop stop-color="#01F8F1"/>
<stop offset="1" stop-color="#3643A3"/>
</linearGradient>
<linearGradient id="paint4_linear" x1="40.3344" y1="65.3422" x2="47.6731" y2="43.9434" gradientUnits="userSpaceOnUse">
<stop stop-color="#01F8F1"/>
<stop offset="1" stop-color="#3643A3"/>
</linearGradient>
<linearGradient id="paint5_linear" x1="19.6172" y1="57.0558" x2="26.79" y2="78.2429" gradientUnits="userSpaceOnUse">
<stop stop-color="#3D48DB"/>
<stop offset="0.494792" stop-color="#3C2D93"/>
<stop offset="1" stop-color="#6238B3"/>
</linearGradient>
</defs>
</svg>
