<svg width="100" height="100" viewBox="0 0 100 100" fill="none" xmlns="http://www.w3.org/2000/svg">
<rect x="0.5" y="0.5" width="99" height="99" rx="9.5" stroke="#282A7E"/>
<path d="M49.5319 40.2717C62.5282 40.2717 73.0638 35.5099 73.0638 29.6359C73.0638 23.7618 62.5282 19 49.5319 19C36.5356 19 26 23.7618 26 29.6359C26 35.5099 36.5356 40.2717 49.5319 40.2717Z" fill="url(#paint0_linear)"/>
<path d="M49.5764 43.8618C38.0996 43.8618 28.4911 40.5409 26 36.0532V36.3673V43.2335V43.3232C30.0035 48.7534 39.0337 52.5679 49.5764 52.5679C49.6209 52.5679 49.6209 52.5679 49.6654 52.5679C53.7579 52.5679 57.8059 51.7601 61.6315 50.2792C64.7898 49.0675 68.7934 47.3622 70.5727 45.7915C70.6617 45.7915 72.4411 44.1759 73.0638 43.3232V43.1437V36.1878C70.4838 40.5857 60.9198 43.8618 49.5764 43.8618Z" fill="url(#paint1_linear)"/>
<path d="M60.4749 57.1008V54.094C57.1831 54.7672 53.491 55.1711 49.5764 55.1711C38.0996 55.1711 28.4911 51.8053 26 47.3176V47.6317V54.453V54.5428C30.0035 60.0627 39.0337 63.8772 49.5764 63.8772C49.6209 63.8772 49.6209 63.8772 49.6654 63.8772C52.2454 63.8772 54.781 63.5631 57.2721 62.9348C57.2276 62.6206 57.1831 62.2616 57.1831 61.9026C57.1831 59.7036 58.5621 57.8188 60.4749 57.1008Z" fill="url(#paint2_linear)"/>
<path d="M58.4731 65.3577C58.4287 65.3128 58.4287 65.3128 58.3842 65.2679C55.6707 65.7167 52.6903 65.9859 49.5764 65.9859C38.0996 65.9859 28.4911 62.6202 26 58.1324V58.4466V65.3128V65.4025C30.0035 70.8327 39.0337 74.6472 49.5764 74.6472C49.6209 74.6472 49.6209 74.6472 49.6654 74.6472C53.1351 74.6472 56.5603 74.0638 59.8521 72.9868C59.007 71.6853 58.5176 70.1595 58.5176 68.4991V65.3577H58.4731Z" fill="url(#paint3_linear)"/>
<path d="M75.4212 60.511C75.0653 60.152 74.576 59.9276 74.0422 59.9276H73.0636H72.6632V58.8506V55.0809V53.959C72.6632 53.8692 72.6632 53.7794 72.6187 53.6897C72.6187 53.6448 72.6187 53.6448 72.6187 53.5999C72.6187 53.5551 72.5742 53.5102 72.5742 53.4204C72.5742 53.3756 72.5297 53.3756 72.5297 53.3307C72.5297 53.2858 72.4853 53.2409 72.4408 53.196C72.4408 53.1512 72.3963 53.1512 72.3963 53.1063C72.3518 53.0614 72.3518 53.0165 72.3073 52.9717C72.3073 52.9268 72.2628 52.9268 72.2184 52.8819C72.1739 52.837 72.1294 52.837 72.0849 52.7922C72.0404 52.7922 72.0404 52.7473 71.9959 52.7473C71.9515 52.7024 71.907 52.7024 71.8625 52.6575C71.818 52.6575 71.818 52.6126 71.7735 52.6126C71.6846 52.5678 71.6401 52.5678 71.5511 52.5229C71.5066 52.5229 71.4621 52.5229 71.4177 52.5229C71.3732 52.5229 71.3287 52.5229 71.2842 52.5229C71.1952 52.5229 71.1063 52.5229 71.0173 52.5678C70.9283 52.5678 70.8394 52.6126 70.7504 52.6575C70.7059 52.7024 70.6169 52.7024 70.5725 52.7473C70.5725 52.7473 70.5725 52.7473 70.528 52.7922L70.4835 52.837C70.439 52.8819 70.3945 52.9268 70.35 52.9268L70.3056 52.9717C70.2611 53.0165 70.2166 53.1063 70.1721 53.1512C70.1276 53.196 70.0831 53.2858 70.0831 53.3756C70.0831 53.3756 70.0831 53.4204 70.0387 53.4204C70.0387 53.4653 69.9942 53.5102 69.9942 53.5999C69.9942 53.6448 69.9942 53.6448 69.9942 53.6897C69.9942 53.7794 69.9497 53.8692 69.9497 53.9141V57.5042V59.8827H66.213V59.5686V53.959C66.213 53.8692 66.213 53.7794 66.1686 53.7346C66.1686 53.6897 66.1686 53.6897 66.1686 53.6448C66.1686 53.5999 66.1241 53.5102 66.1241 53.4653C66.1241 53.4653 66.1241 53.4204 66.0796 53.4204C66.0351 53.2858 65.9461 53.1512 65.8127 53.0165L65.7682 52.9717C65.7237 52.9268 65.6792 52.8819 65.6348 52.8819L65.5903 52.837C65.5458 52.7922 65.4568 52.7473 65.3679 52.7473H65.3234C65.3234 52.6575 65.2344 52.6575 65.1899 52.6575C65.101 52.6575 65.012 52.6126 64.9675 52.6126C64.7896 52.6126 64.6116 52.6575 64.4337 52.7024C64.2558 52.7922 64.1223 52.8819 63.9889 52.9717C63.9444 53.0165 63.8554 53.1063 63.8109 53.196C63.7664 53.2409 63.722 53.3307 63.722 53.3756C63.722 53.4204 63.6775 53.4204 63.6775 53.4653C63.6775 53.5102 63.633 53.5551 63.633 53.5999C63.633 53.6448 63.633 53.6448 63.633 53.6897V53.7346C63.633 53.7794 63.633 53.8692 63.633 53.9141V59.8827H62.2985C61.1864 59.8827 60.3412 60.7803 60.3412 61.8573C60.3412 61.9022 60.3412 61.9471 60.3412 61.992C60.3412 62.3061 60.4302 62.5754 60.5636 62.8446C60.6081 62.9344 60.6526 62.9792 60.6971 63.069C60.6971 63.069 60.6971 63.1139 60.7415 63.1139C60.786 63.1588 60.8305 63.2485 60.875 63.2934C60.875 63.2934 60.9195 63.3383 60.964 63.3383C61.0084 63.3831 61.0529 63.428 61.0974 63.4729C61.1419 63.5178 61.1864 63.5178 61.2309 63.5626C61.2753 63.6075 61.3198 63.6075 61.3643 63.6524C61.4533 63.6973 61.5422 63.7422 61.6312 63.787V64.6397V68.4991C61.6312 69.8006 62.1205 70.9674 62.9657 71.8649C63.2771 72.2239 63.633 72.4932 64.0778 72.7176C64.2113 72.8073 64.3447 72.8522 64.4782 72.942C64.4782 72.942 64.4782 72.942 64.5227 72.942C64.6561 72.9868 64.7896 73.0317 64.923 73.0766H64.9675C65.101 73.1215 65.2344 73.1663 65.3234 73.1663C65.3679 73.1663 65.3679 73.1663 65.4123 73.2112C65.5458 73.2561 65.6792 73.2561 65.7682 73.301C65.8127 73.301 65.8572 73.301 65.8572 73.301C66.0351 73.301 66.1686 73.3458 66.3465 73.3458V78.776H70.0387V73.3458C70.35 73.3458 70.7059 73.301 70.9728 73.2112C71.2397 73.1663 71.5066 73.0766 71.729 72.942C71.9515 72.8522 72.1739 72.7176 72.3963 72.5829C72.4408 72.5381 72.4853 72.5381 72.5297 72.4932C73.3305 71.9547 73.9977 71.1918 74.3536 70.2942C74.487 70.0249 74.576 69.7108 74.6205 69.3967C74.665 69.0825 74.7095 68.7684 74.7095 68.4094V63.787C74.7984 63.7422 74.8874 63.6973 74.9764 63.6524C75.1543 63.5626 75.2877 63.428 75.4212 63.2934C75.4657 63.2036 75.5546 63.1588 75.5991 63.069C75.6881 62.8895 75.7771 62.71 75.866 62.5305C75.9105 62.4407 75.9105 62.351 75.955 62.2163C75.9995 62.0817 75.9995 61.992 75.9995 61.9022C75.9995 61.3637 75.7771 60.87 75.4212 60.511Z" fill="url(#paint4_linear)"/>
<defs>
<linearGradient id="paint0_linear" x1="51.6712" y1="40.2717" x2="104.943" y2="12.5135" gradientUnits="userSpaceOnUse">
<stop stop-color="#3D48DB"/>
<stop offset="0.494792" stop-color="#3C2D93"/>
<stop offset="1" stop-color="#6238B3"/>
</linearGradient>
<linearGradient id="paint1_linear" x1="44.1392" y1="38.5894" x2="49.3555" y2="59.4287" gradientUnits="userSpaceOnUse">
<stop stop-color="#01F8F1"/>
<stop offset="1" stop-color="#3643A3"/>
</linearGradient>
<linearGradient id="paint2_linear" x1="39.2872" y1="49.8607" x2="46.0962" y2="69.7328" gradientUnits="userSpaceOnUse">
<stop stop-color="#01F8F1"/>
<stop offset="1" stop-color="#3643A3"/>
</linearGradient>
<linearGradient id="paint3_linear" x1="39.0472" y1="60.6687" x2="45.9212" y2="80.4215" gradientUnits="userSpaceOnUse">
<stop stop-color="#01F8F1"/>
<stop offset="1" stop-color="#3643A3"/>
</linearGradient>
<linearGradient id="paint4_linear" x1="66.3762" y1="56.5546" x2="83.6996" y2="71.0393" gradientUnits="userSpaceOnUse">
<stop stop-color="#01F8F1"/>
<stop offset="1" stop-color="#3643A3"/>
</linearGradient>
</defs>
</svg>
