<svg width="100" height="100" viewBox="0 0 100 100" fill="none" xmlns="http://www.w3.org/2000/svg">
<rect x="0.5" y="0.5" width="99" height="99" rx="9.5" stroke="#282A7E"/>
<path fill-rule="evenodd" clip-rule="evenodd" d="M76.5422 45.7798C78.4113 51.6354 69.3598 55.3092 69.3598 55.3092C72.3757 55.1719 74.6347 54.3371 76.2287 53.1248C76.5039 54.6115 76.8937 58.2141 75.0475 61.0846C73.2128 63.9324 71.9973 64.6643 71.3895 64.8473C70.9423 65.5563 70.3345 66.1167 69.5662 66.5513C72.628 64.081 72.7426 60.8216 71.5615 57.8595C71.5615 57.8595 71.0799 62.8459 69.1878 64.6757C67.4563 66.3569 66.0229 67.0545 60.2205 66.9059C60.2205 66.9059 63.2364 67.9123 66.1146 67.7179C67.8462 69.0331 68.8323 70.4398 69.0273 71.9036C69.2222 73.3561 68.5571 74.3968 68.2934 74.7399C68.1558 75.0373 67.7888 75.632 67.0549 75.7578L67.0548 75.7578C66.9631 75.7692 66.8714 75.7806 66.7797 75.7806C66.0344 75.7806 65.2661 75.266 64.4404 74.2138C62.9434 72.2991 62.4485 72.1448 60.9924 71.691L60.9774 71.6863C60.7365 71.6177 60.4843 71.5377 60.2091 71.4462C57.9959 70.7028 55.8745 67.7064 55.3355 65.4191C57.434 64.7901 60.9774 62.0796 60.9774 62.0796C60.9774 62.0796 56.5419 63.7109 52.6957 63.0878C48.4729 62.4036 46.5418 58.0877 46.5418 58.0877C46.5418 58.0877 47.7901 62.6743 49.6363 64.3098C49.2809 64.3326 48.7419 64.3669 48.0883 64.3669C45.9095 64.3669 42.4235 64.0238 39.7287 62.0796C39.7287 62.0796 38.926 61.645 38.4788 60.9932C38.4788 60.9932 38.4444 60.9131 38.4329 60.8788C41.5749 60.2498 44.866 57.3185 44.866 55.4007C44.866 55.4007 37.5844 61.0732 32.9861 58.6715C30.8302 57.5507 29.4886 55.9039 28.6744 54.0283C27.4245 50.5401 27.6538 45.8397 27.6538 45.8397C26.9085 46.9033 26.5874 48.1842 26.4842 49.3622C26.4842 49.3625 26.4838 49.3652 26.4831 49.3703C26.4597 49.5439 26.0654 52.4669 27.436 55.4007C25.5095 54.1884 22.723 51.9697 21.8859 48.8246C20.5671 43.8612 23.1243 38.7033 27.757 36.9306C27.4704 38.9434 27.5048 40.6726 27.6538 41.1644C27.9749 45.0106 32.3554 47.681 32.3554 47.681C32.3554 47.681 29.0299 43.3237 29.4542 37.8684C29.6491 35.4896 30.6124 32.3331 34.041 30.4118C36.5523 29.1766 38.6852 29.6226 39.9695 30.1602L39.9466 30.1716C39.9466 30.1716 43.1803 31.2695 44.866 35.604C44.866 35.604 44.6252 31.7155 42.4006 29.7141L42.3891 29.7027C42.263 29.5883 42.1254 29.474 41.9763 29.371L41.919 29.3939C41.5291 29.1537 40.9213 28.8335 40.153 28.5476C42.1712 27.301 46.4771 24.925 54.6188 26.549C57.0204 27.028 58.5985 28.9577 59.4476 30.346C58.386 31.4143 57.9782 32.934 57.6718 34.0762C57.5466 34.543 57.4382 34.9468 57.3091 35.2309C59.1553 32.4616 61.5399 31.3847 65.0015 31.3847C65.018 31.3517 65.034 31.3187 65.0496 31.2857C65.7372 31.3766 66.4665 31.5467 67.2155 31.8299C71.3895 34.6262 71.5615 37.4517 71.5615 38.472C65.7728 38.0874 64.4404 42.3183 64.4404 42.3183C69.5662 39.6259 74.8106 40.336 76.5422 45.7798Z" fill="url(#paint0_linear)"/>
<path d="M28.0769 51.385L36.5386 44.8464M44.231 44.8464L56.196 51.385M63.462 49.4619L73.4621 39.4617" stroke="url(#paint1_linear)" stroke-width="2"/>
<circle cx="24.6154" cy="54.4619" r="4.61545" stroke="#13BBD2" stroke-width="2"/>
<circle cx="40.7693" cy="42.9232" r="4.61545" stroke="#13BBD2" stroke-width="2"/>
<ellipse cx="60.7683" cy="52.5389" rx="4.61545" ry="4.23083" stroke="#13BBD2" stroke-width="2"/>
<circle cx="75.384" cy="35.2309" r="4.61545" stroke="#13BBD2" stroke-width="2"/>
<defs>
<linearGradient id="paint0_linear" x1="62.6943" y1="88.6932" x2="70.3867" y2="33.3078" gradientUnits="userSpaceOnUse">
<stop stop-color="#535DE6"/>
<stop offset="1" stop-color="#3729AA"/>
</linearGradient>
<linearGradient id="paint1_linear" x1="45.5691" y1="41.6649" x2="48.1426" y2="56.2573" gradientUnits="userSpaceOnUse">
<stop stop-color="#3643A3"/>
<stop offset="0.296875" stop-color="#01F8F1" stop-opacity="0.8"/>
</linearGradient>
</defs>
</svg>
