<svg width="29" height="30" viewBox="0 0 29 30" fill="none" xmlns="http://www.w3.org/2000/svg">
<g clip-path="url(#clip0)">
<path d="M21.6099 12.0608C21.6099 12.2166 21.6099 12.3724 21.6099 12.506C21.6099 17.1134 18.1257 22.4331 11.7747 22.4331C9.81211 22.4331 8.00385 21.8543 6.46021 20.875C6.72483 20.8973 7.01151 20.9195 7.27613 20.9195C8.88593 20.9195 10.3855 20.3631 11.5763 19.4282C10.0547 19.406 8.77567 18.3821 8.35668 17.0021C8.5772 17.0466 8.77566 17.0689 9.01824 17.0689C9.32696 17.0689 9.63569 17.0244 9.92237 16.9353C8.33463 16.6237 7.14382 15.2215 7.14382 13.5299C7.14382 13.5076 7.14382 13.5076 7.14382 13.4853C7.60691 13.7524 8.13616 13.9082 8.70951 13.9305C7.78333 13.3073 7.16587 12.2389 7.16587 11.0147C7.16587 10.3692 7.34229 9.76826 7.62896 9.25632C9.32697 11.3708 11.885 12.7508 14.7518 12.9066C14.6856 12.6618 14.6635 12.3724 14.6635 12.1053C14.6635 10.1689 16.2072 8.61084 18.1257 8.61084C19.1181 8.61084 20.0222 9.03374 20.6396 9.70148C21.4335 9.54568 22.1612 9.25632 22.8448 8.85568C22.5802 9.67922 22.0289 10.347 21.3233 10.7921C22.0289 10.7031 22.6905 10.525 23.3079 10.2357C22.8669 10.9479 22.2935 11.5712 21.6099 12.0608Z" fill="white"/>
</g>
<defs>
<clipPath id="clip0">
<rect width="28.2266" height="28.4902" fill="white" transform="translate(0.574219 0.894531)"/>
</clipPath>
</defs>
</svg>
