<svg width="29" height="30" viewBox="0 0 29 30" fill="none" xmlns="http://www.w3.org/2000/svg">
<g clip-path="url(#clip0)">
<path d="M22.1057 21.8616C21.1795 21.8393 20.2754 21.8393 19.3492 21.8616C19.1507 21.8616 19.1066 21.8171 19.1066 21.6168C19.1066 19.9697 19.1066 18.3003 19.1066 16.6532C19.1066 16.2748 19.0846 15.8965 18.9743 15.5403C18.6435 14.3829 17.3204 13.96 16.3722 14.739C15.865 15.1397 15.6665 15.6961 15.6665 16.3639C15.6665 17.9219 15.6665 19.48 15.6665 21.038C15.6665 21.2384 15.6445 21.4387 15.6665 21.6613C15.6886 21.8393 15.6004 21.8839 15.446 21.8616C14.4978 21.8616 13.5716 21.8616 12.6234 21.8616C12.4469 21.8616 12.4028 21.8171 12.4028 21.639C12.4249 20.2368 12.4249 18.8345 12.4249 17.41C12.4249 15.6739 12.4249 13.9377 12.4028 12.2239C12.4028 12.0236 12.4469 11.979 12.6234 11.979C13.5716 11.979 14.4978 11.979 15.446 11.979C15.6224 11.979 15.6665 12.0236 15.6665 12.2016C15.6665 12.5578 15.6665 12.9139 15.6665 13.3368C15.7327 13.27 15.7547 13.2478 15.7768 13.2255C16.6368 11.9568 17.8497 11.6007 19.2831 11.8232C20.937 12.0903 21.9955 13.2478 22.2601 15.0284C22.3262 15.4513 22.3483 15.8742 22.3483 16.2971C22.3483 18.0777 22.3483 19.8361 22.3483 21.6168C22.3483 21.7948 22.3042 21.8616 22.1057 21.8616Z" fill="white"/>
<path d="M10.6367 16.9203C10.6367 18.4783 10.6367 20.0364 10.6367 21.5945C10.6367 21.7948 10.5926 21.8616 10.3941 21.8616C9.46791 21.8393 8.54172 21.8616 7.61554 21.8616C7.43912 21.8616 7.39502 21.817 7.39502 21.639C7.39502 18.5006 7.39502 15.34 7.39502 12.2016C7.39502 12.0458 7.43912 11.979 7.61554 11.979C8.56378 11.979 9.51201 11.979 10.4602 11.979C10.6587 11.979 10.6808 12.0458 10.6808 12.2238C10.6367 13.7819 10.6367 15.34 10.6367 16.9203Z" fill="white"/>
<path d="M10.793 9.3977C10.5725 10.288 9.66835 10.8 8.6319 10.6219C7.5293 10.4438 6.91185 9.35318 7.30878 8.2848C7.57341 7.61706 8.21291 7.21642 9.02884 7.23867C10.2638 7.21642 11.0797 8.21803 10.793 9.3977Z" fill="white"/>
</g>
<defs>
<clipPath id="clip0">
<rect width="28.2266" height="28.4902" fill="white" transform="translate(0.152344 0.894531)"/>
</clipPath>
</defs>
</svg>
