<svg width="40" height="41" viewBox="0 0 40 41" fill="none" xmlns="http://www.w3.org/2000/svg">
<rect x="12.8773" y="40.2976" width="13.3414" height="0.599164" fill="#13BBD2"/>
<path d="M12.8775 36.1839L25.4201 20.5257H26.179L12.8775 40.8973V36.1839Z" fill="#13BBD2"/>
<path d="M12.8775 36.1839L0.4239 20.5054L0 21.1413L12.8775 40.8973V36.1839Z" fill="#13BBD2"/>
<path d="M0.4239 20.5051H13.1409L13.6708 21.1409H0L0.4239 20.5051Z" fill="#13BBD2"/>
<path d="M26.2182 36.2362L39.0869 21.1407H39.8458L26.2182 40.9496V36.2362Z" fill="#D5D5D5"/>
<path d="M26.2182 36.2362L13.67 21.1406H12.8752L26.2182 40.9496V36.2362Z" fill="#D5D5D5"/>
<path d="M39.4492 20.5582L25.4284 20.5254L24.9267 21.141H39.8466L39.4492 20.5582Z" fill="#13BBD2"/>
<path d="M26.7378 1.63824L39.1043 21.1401H39.8461L26.7378 0.950327V1.63824Z" fill="#13BBD2"/>
<path d="M26.7378 1.63824L13.6703 21.1398L13.1404 20.5027L26.7378 0.950327V1.63824Z" fill="#13BBD2"/>
<rect width="13.3414" height="0.399443" transform="matrix(1 0 0 -1 13.3959 1.34985)" fill="#13BBD2"/>
<path d="M13.3968 1.62842L25.4201 20.5221H26.179L13.3968 0.949387V1.62842Z" fill="#13BBD2"/>
<path d="M13.3968 1.62842L0.8478 21.139H0L13.3968 0.949387V1.62842Z" fill="#13BBD2"/>
</svg>
