<svg width="68" height="70" viewBox="0 0 68 70" fill="none" xmlns="http://www.w3.org/2000/svg">
<rect x="21.9758" y="68.0996" width="22.7679" height="1.02251" fill="#4227AB"/>
<path d="M21.9763 61.0791L43.3809 34.3575H44.676L21.9763 69.1228V61.0791Z" fill="#4227AB"/>
<path d="M21.9763 61.0791L0.723411 34.3228L0 35.408L21.9763 69.1228V61.0791Z" fill="#4227AB"/>
<path d="M0.723411 34.3223H22.4257L23.33 35.4074H0L0.723411 34.3223Z" fill="#4227AB"/>
<path d="M44.7429 61.1688L66.704 35.4074H67.9992L44.7429 69.2126V61.1688Z" fill="#13BBD2"/>
<path d="M44.7429 61.1688L23.3287 35.4072H21.9722L44.7429 69.2126V61.1688Z" fill="#13BBD2"/>
<path d="M67.3224 34.4129L43.395 34.3569L42.5388 35.4075H68.0006L67.3224 34.4129Z" fill="#4227AB"/>
<path d="M45.6297 2.1247L66.7338 35.4058H67.9998L45.6297 0.950737V2.1247Z" fill="#4227AB"/>
<path d="M45.6297 2.1247L23.3292 35.4053L22.4249 34.318L45.6297 0.950737V2.1247Z" fill="#4227AB"/>
<rect width="22.7679" height="0.681673" transform="matrix(1 0 0 -1 22.8608 1.63232)" fill="#4227AB"/>
<path d="M22.8625 2.10884L43.3809 34.352H44.676L22.8625 0.950031V2.10884Z" fill="#4227AB"/>
<path d="M22.8625 2.10884L1.44682 35.4048H0L22.8625 0.950031V2.10884Z" fill="#4227AB"/>
</svg>
