<svg width="64" height="52" viewBox="0 0 64 52" fill="none" xmlns="http://www.w3.org/2000/svg">
<path d="M7.01514 48.0175C7.01514 48.0175 37.8847 56.4336 63.1247 33.3151C63.1247 33.3151 59.2597 41.714 40.3213 48.7732C21.3828 55.8324 7.01514 48.0175 7.01514 48.0175Z" fill="url(#paint0_linear)"/>
<path d="M36.5562 22.0789C36.2449 20.2232 35.0345 18.7317 33.7204 17.639C33.4264 17.3962 32.9941 17.6044 32.9941 17.9686V21.4892C32.9941 22.1136 32.4926 22.6165 31.8702 22.6165H28.3254C27.7029 22.6165 27.2014 22.1136 27.2014 21.4892V18.0553C27.2014 17.6737 26.7518 17.483 26.4752 17.7258C25.1956 18.8184 24.0371 20.2752 23.7431 22.0962C23.2762 24.9752 25.1956 27.2471 27.2879 28.2357V44.274H33.0287V28.2357C35.1037 27.2298 37.023 24.9752 36.5562 22.0789Z" fill="url(#paint1_linear)"/>
<path d="M63.7196 20.6202C62.2411 14.7082 55.1344 11.1012 45.6419 10.5205C53.1519 11.1891 58.6122 14.0396 59.7546 18.6144C61.7035 26.3739 50.5142 36.1569 34.7886 40.4677C19.063 44.7786 4.73191 42.0161 2.79982 34.2566C1.65736 29.6818 5.08473 24.4032 11.301 19.9516C3.28704 25.3358 -1.19878 32.1276 0.279695 38.0396C2.59821 47.2947 18.6766 50.9018 36.1999 46.0807C53.7231 41.2771 66.0381 29.8754 63.7196 20.6202Z" fill="url(#paint2_linear)"/>
<path fill-rule="evenodd" clip-rule="evenodd" d="M29.5818 33.7417C38.173 33.7417 45.1375 26.7771 45.1375 18.1859C45.1375 9.59469 38.173 2.63014 29.5818 2.63014C20.9906 2.63014 14.026 9.59469 14.026 18.1859C14.026 26.7771 20.9906 33.7417 29.5818 33.7417ZM47.7677 18.1859C47.7677 28.2297 39.6256 36.3718 29.5818 36.3718C19.538 36.3718 11.3959 28.2297 11.3959 18.1859C11.3959 8.1421 19.538 0 29.5818 0C39.6256 0 47.7677 8.1421 47.7677 18.1859Z" fill="url(#paint3_linear)"/>
<defs>
<linearGradient id="paint0_linear" x1="28.6407" y1="36.1425" x2="34.119" y2="59.5479" gradientUnits="userSpaceOnUse">
<stop stop-color="#01F8F1"/>
<stop offset="1" stop-color="#3643A3"/>
</linearGradient>
<linearGradient id="paint1_linear" x1="28.6653" y1="21.6361" x2="45.3182" y2="32.9591" gradientUnits="userSpaceOnUse">
<stop stop-color="#01F8F1"/>
<stop offset="1" stop-color="#3643A3"/>
</linearGradient>
<linearGradient id="paint2_linear" x1="24.6667" y1="16.31" x2="42.7199" y2="59.2752" gradientUnits="userSpaceOnUse">
<stop stop-color="#01F8F1"/>
<stop offset="1" stop-color="#3643A3"/>
</linearGradient>
<linearGradient id="paint3_linear" x1="25.4142" y1="5.58569" x2="-11.6106" y2="-6.23337" gradientUnits="userSpaceOnUse">
<stop stop-color="#01F8F1"/>
<stop offset="1" stop-color="#3643A3"/>
</linearGradient>
</defs>
</svg>
