<svg width="56" height="65" viewBox="0 0 56 65" fill="none" xmlns="http://www.w3.org/2000/svg">
<path d="M25.4188 28.1628L2.50853 40.3162C-0.76896 42.0493 -0.833224 46.7138 2.39071 48.5432L24.4227 61.0389C26.4042 62.1623 28.8249 62.1623 30.8063 61.0389L52.8384 48.5432C56.0623 46.7138 55.998 42.0493 52.7206 40.3162L29.821 28.1628C28.4393 27.4353 26.7898 27.4353 25.4188 28.1628Z" fill="url(#paint0_linear)"/>
<path d="M55.2152 44.7455C55.1295 46.2326 54.3369 47.6982 52.8481 48.5434L30.8161 61.0391C29.8307 61.5954 28.7275 61.8843 27.6243 61.8843C26.5211 61.8843 25.4179 61.6061 24.4325 61.0391L2.38974 48.5434C0.890232 47.6982 0.108347 46.2433 0.0226608 44.7455C0.0226608 44.7455 -0.0201822 46.254 0.01195 47.388C0.01195 47.5806 0.01195 47.7731 0.0333715 47.9657C0.183322 49.3886 0.965207 50.7473 2.38974 51.5604L24.4218 64.0561C25.4179 64.6231 26.5211 64.9012 27.6136 64.9012C28.7168 64.9012 29.82 64.6231 30.8054 64.0561L52.8374 51.5604C54.2619 50.7473 55.0438 49.3886 55.1938 47.9657C55.2152 47.7731 55.2152 47.5806 55.2152 47.388C55.258 46.254 55.2152 44.7455 55.2152 44.7455Z" fill="url(#paint1_linear)"/>
<path d="M24.4116 61.0389L2.3796 48.5431C0.790135 47.6412 -7.0942e-05 46.0501 4.77692e-09 44.461L0.000369023 9.34108L55.2069 8.12268V44.461C55.2069 46.0501 54.4167 47.6412 52.8273 48.5431L30.7952 61.0389C28.8137 62.1622 26.3931 62.1622 24.4116 61.0389Z" fill="url(#paint2_linear)"/>
<path d="M27.5157 2.10168C15.9101 2.10168 6.49829 11.419 6.49829 22.9079C6.49829 30.9642 11.1452 37.9697 17.9152 41.4257L24.9446 29.3763V27.2747C24.9446 27.2747 20.5099 25.2664 20.5099 22.9079C20.5099 19.0549 23.6472 15.9492 27.5393 15.9492C31.4314 15.9492 34.5687 19.0549 34.5687 22.9079C34.5687 25.3131 30.1341 27.2747 30.1341 27.2747V29.3763L37.1635 41.4257C43.9334 37.9697 48.5803 30.9876 48.5803 22.9079C48.5331 11.419 39.1213 2.10168 27.5157 2.10168Z" fill="url(#paint3_linear)"/>
<path d="M27.516 0C15.9104 0 6.49854 9.31727 6.49854 20.8062C6.49854 28.8625 11.1455 35.868 17.9154 39.324L24.9448 27.2746C22.3501 26.2471 20.5102 23.7485 20.5102 20.8062C20.5102 16.9532 23.6474 13.8475 27.5396 13.8475C31.4317 13.8475 34.569 16.9532 34.569 20.8062C34.569 23.7485 32.729 26.2471 30.1343 27.2746L37.1637 39.324C43.9336 35.868 48.5806 28.8859 48.5806 20.8062C48.5334 9.31727 39.1215 0 27.516 0Z" fill="url(#paint4_linear)"/>
<defs>
<linearGradient id="paint0_linear" x1="30.0539" y1="71.8858" x2="40.3402" y2="37.9329" gradientUnits="userSpaceOnUse">
<stop stop-color="#01F8F1"/>
<stop offset="1" stop-color="#3643A3"/>
</linearGradient>
<linearGradient id="paint1_linear" x1="3.49514e-09" y1="54.377" x2="55.295" y2="54.377" gradientUnits="userSpaceOnUse">
<stop stop-color="#3D48DB"/>
<stop offset="0.494792" stop-color="#3C2D93"/>
<stop offset="0.915468" stop-color="#6238B3"/>
</linearGradient>
<linearGradient id="paint2_linear" x1="35.8445" y1="52.4418" x2="35.8445" y2="9.81117" gradientUnits="userSpaceOnUse">
<stop stop-color="#00FFFF" stop-opacity="0.7"/>
<stop offset="1" stop-color="#0BBDD7" stop-opacity="0"/>
</linearGradient>
<linearGradient id="paint3_linear" x1="-2.84279" y1="30.4601" x2="53.2386" y2="64.5393" gradientUnits="userSpaceOnUse">
<stop offset="0.0224768" stop-color="#01F8F1"/>
<stop offset="0.0566048" stop-color="#12BDD7"/>
<stop offset="0.741706" stop-color="#3643A3"/>
</linearGradient>
<linearGradient id="paint4_linear" x1="22.7177" y1="7.26639" x2="91.3561" y2="-11.9838" gradientUnits="userSpaceOnUse">
<stop stop-color="#01F8F1"/>
<stop offset="1" stop-color="#3643A3"/>
</linearGradient>
</defs>
</svg>
