<svg width="58" height="64" viewBox="0 0 58 64" fill="none" xmlns="http://www.w3.org/2000/svg">
<path d="M28.6984 41.1533C36.9861 41.0176 42.8177 41.717 46.8108 42.5937L58 11.7812L0 11.7812L11.1318 42.4789C15.1105 41.6648 20.7841 41.0281 28.6984 41.1533Z" fill="url(#paint0_linear)"/>
<path d="M31.8718 31.7187H24.3157C23.8662 31.7187 23.5625 31.3533 23.5625 30.8125C23.5625 30.2717 23.8662 29.9062 24.3157 29.9062H31.8718C32.3213 29.9062 32.625 30.2717 32.625 30.8125C32.625 31.3533 32.3334 31.7187 31.8718 31.7187Z" fill="url(#paint1_linear)"/>
<path d="M30.4362 36.25H25.7763C24.6895 36.25 23.4402 35.3292 23.4402 33.4998V30.2953C23.4402 28.7729 22.6656 27.3978 21.4163 26.3296C18.6179 24.1933 17.2188 21.1361 17.2188 17.7843C17.3687 11.9769 22.1909 7.39733 27.9376 7.25C30.8859 7.25 33.6843 8.31816 35.7081 10.3072C37.732 12.2961 38.9687 15.0341 38.9687 17.9439C38.9687 21.1484 37.5695 24.2055 34.9336 26.1945C33.5344 27.2627 32.7598 28.9447 32.7598 30.4672V33.9786C32.7598 35.1818 31.6729 36.25 30.4362 36.25ZM28.1 8.77244C23.1279 8.77244 18.9303 12.8978 18.7804 17.7843C18.7804 20.6818 20.0171 23.432 22.3533 25.1141C24.0648 26.4892 24.9893 28.3186 24.9893 30.3076V33.5121C24.9893 33.819 24.9893 34.7276 25.7638 34.7276H30.4237C30.8859 34.7276 31.1982 34.4206 31.1982 33.9663V30.4549C31.1982 28.4659 32.2851 26.3296 33.9966 24.9545C36.1704 23.2724 37.4196 20.6818 37.4196 17.9316C37.4196 15.4884 36.4827 13.2047 34.6212 11.363C32.9222 9.69327 30.5861 8.77244 28.1 8.77244Z" fill="url(#paint2_linear)"/>
<path d="M27.6405 4.53125C27.3702 4.53125 27.1875 4.22755 27.1875 3.77807V0.753184C27.1875 0.303703 27.3702 0 27.6405 0C27.9109 0 28.0935 0.303703 28.0935 0.753184V3.77807C28.1008 4.22755 27.9182 4.53125 27.6405 4.53125Z" fill="url(#paint3_linear)"/>
<path d="M37.9912 8.15625C37.8454 8.15625 37.5418 8.15625 37.384 8.00715C37.0803 7.69652 37.0803 7.2368 37.384 6.92617L39.497 4.76422C39.8006 4.45359 40.2499 4.45359 40.5535 4.76422C40.8571 5.07484 40.8571 5.53457 40.5535 5.8452L38.4405 8.00715C38.4526 8.00715 38.149 8.15625 37.9912 8.15625Z" fill="url(#paint4_linear)"/>
<path d="M45.4653 19.0312H42.4406C41.9912 19.0312 41.6875 18.6658 41.6875 18.125C41.6875 17.5842 41.9912 17.2188 42.4406 17.2188H45.4653C45.9147 17.2188 46.2184 17.5842 46.2184 18.125C46.2305 18.6804 45.9269 19.0312 45.4653 19.0312Z" fill="url(#paint5_linear)"/>
<path d="M40.1042 30.8125C39.9585 30.8125 39.6549 30.8125 39.497 30.6639L37.384 28.497C37.0803 28.1874 37.0803 27.7292 37.384 27.4197C37.6876 27.1101 38.1369 27.1101 38.4405 27.4197L40.5535 29.5742C40.8571 29.8838 40.8571 30.342 40.5535 30.6515C40.5535 30.8125 40.3957 30.8125 40.1042 30.8125Z" fill="url(#paint6_linear)"/>
<path d="M15.3349 30.8125C15.1892 30.8125 14.8856 30.8125 14.7277 30.6634C14.4241 30.3528 14.4241 29.893 14.7277 29.5824L16.8408 27.4205C17.1444 27.1098 17.5937 27.1098 17.8973 27.4205C18.2009 27.7311 18.2009 28.1908 17.8973 28.5014L15.7842 30.6634C15.6385 30.8125 15.4928 30.8125 15.3349 30.8125Z" fill="url(#paint7_linear)"/>
<path d="M12.8406 19.0312H9.81568C9.3662 19.0312 9.0625 18.6658 9.0625 18.125C9.0625 17.5842 9.3662 17.2188 9.81568 17.2188H12.8406C13.29 17.2188 13.5937 17.5842 13.5937 18.125C13.5937 18.6804 13.29 19.0312 12.8406 19.0312Z" fill="url(#paint8_linear)"/>
<path d="M17.448 8.15625C17.3022 8.15625 16.9986 8.15625 16.8408 8.01351L14.7277 5.78915C14.4241 5.49177 14.4241 5.05166 14.7277 4.75428C15.0313 4.45691 15.4806 4.45691 15.7842 4.75428L17.8973 6.82401C18.2009 7.12139 18.2009 7.5615 17.8973 7.85887C17.7516 8.01351 17.6058 8.15625 17.448 8.15625Z" fill="url(#paint9_linear)"/>
<path d="M33.7032 19.0312C33.2719 19.0312 32.9805 18.7029 32.9805 18.2169C32.9805 15.1173 30.661 12.5036 27.9102 12.5036C27.4789 12.5036 27.1875 12.1753 27.1875 11.6893C27.1875 11.2034 27.4789 10.875 27.9102 10.875C31.5352 10.875 34.4375 14.1454 34.4375 18.2301C34.4258 18.716 34.1344 19.0312 33.7032 19.0312Z" fill="url(#paint10_linear)"/>
<path d="M5.63089 54.9543C6.00434 55.5467 6.75125 56.298 8.31687 56.8037C8.5036 56.8614 8.69032 56.7025 8.64723 56.5147C8.54669 56.009 8.35996 55.0554 8.1876 53.8274C8.15887 53.6251 7.94342 53.4951 7.75669 53.5817C7.00979 53.8851 6.32034 54.203 5.73143 54.5642C5.5878 54.6364 5.54471 54.8243 5.63089 54.9543Z" fill="url(#paint11_linear)"/>
<path d="M7.62776 47.1523C7.62776 46.9934 7.4554 46.9067 7.32612 46.9934C6.6654 47.4268 6.10522 47.9325 5.73177 48.2793C5.4445 48.5393 5.2865 48.915 5.2865 49.3051V52.7293C5.2865 52.8737 5.43013 52.9604 5.55941 52.9026C5.99031 52.6859 6.62231 52.3825 7.48412 52.0358C7.74267 51.9346 7.90067 51.6601 7.8863 51.3856C7.75703 50.0419 7.67085 47.9614 7.62776 47.1523Z" fill="url(#paint12_linear)"/>
<path d="M47.9019 45.6643C44.3829 44.0172 38.422 42.3845 28.7984 42.6157C19.1892 42.3845 13.214 44.0316 9.6949 45.6643C9.29272 45.8521 9.03418 46.2566 9.03418 46.7045C9.03418 47.7592 9.06291 49.2618 9.22091 50.9089C9.24963 51.1401 9.46509 51.299 9.6949 51.2268C13.5012 50.0131 19.7063 48.7128 28.7984 48.6984C37.8762 48.7128 44.0812 50.0131 47.9019 51.2268C48.1174 51.299 48.3472 51.1401 48.3759 50.9089C48.5339 49.2618 48.5627 47.7592 48.5627 46.7045C48.5627 46.2566 48.3041 45.8521 47.9019 45.6643Z" fill="url(#paint13_linear)"/>
<path d="M51.9809 54.9543C51.6074 55.5467 50.8605 56.298 49.2949 56.8037C49.1082 56.8614 48.9214 56.7025 48.9645 56.5147C49.0651 56.009 49.2518 55.0554 49.4241 53.8274C49.4529 53.6251 49.6683 53.4951 49.8551 53.5817C50.602 53.8851 51.2914 54.203 51.8803 54.5642C52.0239 54.6364 52.067 54.8243 51.9809 54.9543Z" fill="url(#paint14_linear)"/>
<path d="M49.9861 47.1523C49.9861 46.9934 50.1585 46.9067 50.2878 46.9934C50.9485 47.4268 51.5087 47.9325 51.8821 48.2793C52.1694 48.5393 52.3274 48.915 52.3274 49.3051V52.7293C52.3274 52.8737 52.1838 52.9604 52.0545 52.9026C51.6236 52.6859 50.9916 52.3825 50.1298 52.0358C49.8712 51.9346 49.7132 51.6601 49.7276 51.3856C49.8425 50.0419 49.943 47.9614 49.9861 47.1523Z" fill="url(#paint15_linear)"/>
<path d="M47.6315 52.8016C40.1194 50.5766 28.8009 50.1576 28.8009 50.1576C28.8009 50.1576 17.4825 50.591 9.97032 52.8016C9.68305 52.8883 9.51068 53.1628 9.56814 53.4518C9.88414 55.3156 10.4012 57.1794 11.2199 58.6097C11.579 59.2454 11.9956 59.7945 12.4839 60.2279C12.7856 60.4591 13.1016 60.6758 13.4319 60.8781C16.4339 62.7274 20.2833 63.2331 23.3715 63.262C23.8168 63.262 24.262 63.2042 24.6786 63.0742C25.2531 62.8863 25.8564 62.5396 26.316 61.9328C27.1635 60.7914 28.054 59.9389 28.8009 59.9967C29.5478 59.9245 30.4384 60.7914 31.2858 61.9328C31.7455 62.5396 32.3487 62.8863 32.9233 63.0742C33.3398 63.2186 33.7851 63.262 34.2303 63.262C37.3185 63.2331 41.1679 62.7274 44.1699 60.8781C44.5003 60.6758 44.8163 60.4591 45.1179 60.2279C45.6063 59.7945 46.0228 59.2454 46.3819 58.6097C47.2006 57.1794 47.7177 55.3156 48.0337 53.4518C48.0912 53.1772 47.9188 52.8883 47.6315 52.8016Z" fill="url(#paint16_linear)"/>
<defs>
<linearGradient id="paint0_linear" x1="24.4688" y1="67.5156" x2="38.5156" y2="18.125" gradientUnits="userSpaceOnUse">
<stop stop-color="#00FFFF" stop-opacity="0.7"/>
<stop offset="1" stop-color="#0BBDD7" stop-opacity="0"/>
</linearGradient>
<linearGradient id="paint1_linear" x1="27.0553" y1="30.1846" x2="30.9915" y2="51.1995" gradientUnits="userSpaceOnUse">
<stop stop-color="#01F8F1"/>
<stop offset="1" stop-color="#3643A3"/>
</linearGradient>
<linearGradient id="paint2_linear" x1="25.6016" y1="11.7036" x2="45.0205" y2="32.1208" gradientUnits="userSpaceOnUse">
<stop stop-color="#01F8F1"/>
<stop offset="1" stop-color="#3643A3"/>
</linearGradient>
<linearGradient id="paint3_linear" x1="27.5368" y1="0.695874" x2="38.6436" y2="3.06783" gradientUnits="userSpaceOnUse">
<stop stop-color="#01F8F1"/>
<stop offset="1" stop-color="#3643A3"/>
</linearGradient>
<linearGradient id="paint4_linear" x1="38.5534" y1="5.08795" x2="60.2588" y2="28.2648" gradientUnits="userSpaceOnUse">
<stop stop-color="#01F8F1"/>
<stop offset="1" stop-color="#3643A3"/>
</linearGradient>
<linearGradient id="paint5_linear" x1="43.4339" y1="17.4971" x2="50.5796" y2="36.5724" gradientUnits="userSpaceOnUse">
<stop stop-color="#01F8F1"/>
<stop offset="1" stop-color="#3643A3"/>
</linearGradient>
<linearGradient id="paint6_linear" x1="38.5534" y1="27.7442" x2="60.2588" y2="50.921" gradientUnits="userSpaceOnUse">
<stop stop-color="#01F8F1"/>
<stop offset="1" stop-color="#3643A3"/>
</linearGradient>
<linearGradient id="paint7_linear" x1="15.8971" y1="27.7442" x2="37.6025" y2="50.921" gradientUnits="userSpaceOnUse">
<stop stop-color="#01F8F1"/>
<stop offset="1" stop-color="#3643A3"/>
</linearGradient>
<linearGradient id="paint8_linear" x1="10.8089" y1="17.4971" x2="17.9546" y2="36.5724" gradientUnits="userSpaceOnUse">
<stop stop-color="#01F8F1"/>
<stop offset="1" stop-color="#3643A3"/>
</linearGradient>
<linearGradient id="paint9_linear" x1="15.8971" y1="5.08795" x2="37.6025" y2="28.2648" gradientUnits="userSpaceOnUse">
<stop stop-color="#01F8F1"/>
<stop offset="1" stop-color="#3643A3"/>
</linearGradient>
<linearGradient id="paint10_linear" x1="29.9818" y1="12.1276" x2="78.8574" y2="58.5178" gradientUnits="userSpaceOnUse">
<stop stop-color="#01F8F1"/>
<stop offset="1" stop-color="#3643A3"/>
</linearGradient>
<linearGradient id="paint11_linear" x1="6.76868" y1="54.0553" x2="8.87432" y2="56.8311" gradientUnits="userSpaceOnUse">
<stop stop-color="#01F8F1"/>
<stop offset="1" stop-color="#3643A3"/>
</linearGradient>
<linearGradient id="paint12_linear" x1="6.28885" y1="47.8746" x2="9.84695" y2="50.0506" gradientUnits="userSpaceOnUse">
<stop stop-color="#01F8F1"/>
<stop offset="1" stop-color="#3643A3"/>
</linearGradient>
<linearGradient id="paint13_linear" x1="24.2691" y1="43.9222" x2="26.0369" y2="55.2461" gradientUnits="userSpaceOnUse">
<stop stop-color="#01F8F1"/>
<stop offset="1" stop-color="#3643A3"/>
</linearGradient>
<linearGradient id="paint14_linear" x1="50.1403" y1="54.0553" x2="52.2459" y2="56.8311" gradientUnits="userSpaceOnUse">
<stop stop-color="#01F8F1"/>
<stop offset="1" stop-color="#3643A3"/>
</linearGradient>
<linearGradient id="paint15_linear" x1="50.729" y1="47.8746" x2="54.2871" y2="50.0506" gradientUnits="userSpaceOnUse">
<stop stop-color="#01F8F1"/>
<stop offset="1" stop-color="#3643A3"/>
</linearGradient>
<linearGradient id="paint16_linear" x1="24.3909" y1="52.1701" x2="28.421" y2="68.7632" gradientUnits="userSpaceOnUse">
<stop stop-color="#01F8F1"/>
<stop offset="1" stop-color="#3643A3"/>
</linearGradient>
</defs>
</svg>
