<svg width="106" height="53" viewBox="0 0 106 53" fill="none" xmlns="http://www.w3.org/2000/svg">
<path d="M0 0H106C85.3872 63.8867 27.1317 75.8931 0 0Z" fill="url(#paint0_linear)"/>
<path d="M52.9999 0C39.3321 0 28.2018 11.1303 28.2018 24.7982C28.2018 38.466 39.3321 49.5963 52.9999 49.5963C66.6678 49.5963 77.7981 38.466 77.7981 24.7982C77.7693 11.1303 66.6678 0 52.9999 0ZM46.7716 4.38293C45.647 5.53633 44.6378 7.03576 43.7727 8.82353C43.0518 10.2941 42.4175 11.9666 41.9273 13.7255C40.1683 14.2157 38.4959 14.8212 37.0253 15.5709C35.2375 16.436 33.767 17.4741 32.5847 18.5698C34.6608 11.7935 39.9953 6.45906 46.7716 4.38293ZM41.3506 16.0035C40.8315 18.4833 40.5144 21.1649 40.4855 23.9331H31.7485C32.2964 20.5882 35.9873 17.7047 41.3506 16.0035ZM40.4855 25.6632C40.5432 28.4314 40.8315 31.113 41.3506 33.5929C35.9873 31.8628 32.2675 28.9793 31.7197 25.6632H40.4855ZM32.5847 31.0265C33.7381 32.1511 35.2375 33.1603 37.0253 34.0254C38.4959 34.7463 40.1683 35.3806 41.9273 35.8708C42.4175 37.6298 43.023 39.3022 43.7727 40.7728C44.6378 42.5606 45.6758 44.0312 46.7716 45.2134C39.9953 43.1084 34.6608 37.7739 32.5847 31.0265ZM52.1349 46.0208C48.8189 45.4729 45.9354 41.782 44.2052 36.3899C46.6851 36.9089 49.3667 37.2261 52.1349 37.2549V46.0208ZM52.1349 35.2653C49.0784 35.2076 46.1949 34.8328 43.5709 34.1984C42.9365 31.6032 42.5616 28.7197 42.504 25.6344H52.1349V35.2653ZM52.1349 23.9331H42.504C42.5616 20.8766 42.9365 17.9931 43.5709 15.3691C46.166 14.7347 49.0495 14.3599 52.1349 14.3022V23.9331ZM52.1349 12.2837C49.3667 12.3414 46.6851 12.6298 44.2052 13.1488C45.9354 7.78547 48.8189 4.06575 52.1349 3.51788V12.2837ZM73.3863 18.5698C72.2329 17.4452 70.7335 16.436 68.9457 15.5709C67.4752 14.8501 65.8027 14.2157 64.0438 13.7255C63.5536 11.9666 62.948 10.2941 62.1983 8.82353C61.3333 7.03576 60.2952 5.56517 59.1995 4.38293C65.9757 6.45906 71.3102 11.7935 73.3863 18.5698ZM74.2226 23.9331H65.4855C65.4279 21.1649 65.1395 18.4833 64.6205 16.0035C69.9838 17.7047 73.6747 20.5882 74.2226 23.9331ZM53.865 3.54671C57.181 4.09458 60.0645 7.78547 61.7946 13.1776C59.3148 12.6586 56.6332 12.3414 53.865 12.3126V3.54671ZM53.865 14.3022C56.9215 14.3599 59.805 14.7347 62.429 15.3691C63.0634 17.9643 63.4382 20.8478 63.4959 23.9331H53.865V14.3022ZM53.865 25.6632H63.4959C63.4382 28.7197 63.0634 31.6032 62.429 34.2272C59.8339 34.8616 56.9504 35.2365 53.865 35.2941V25.6632ZM53.865 46.0208V37.2838C56.6332 37.2261 59.3148 36.9377 61.7946 36.4187C60.0645 41.782 57.181 45.4729 53.865 46.0208ZM59.2283 45.1846C60.3529 44.0312 61.3621 42.5317 62.2272 40.744C62.948 39.2734 63.5824 37.6009 64.0726 35.842C65.8316 35.3518 67.504 34.7463 68.9746 33.9966C70.7624 33.1315 72.2329 32.0934 73.4152 30.9977C71.3102 37.7739 65.9757 43.1084 59.2283 45.1846ZM64.6205 33.5929C65.1395 31.113 65.4567 28.4314 65.4855 25.6632H74.2226C73.6747 28.9793 69.9838 31.8628 64.6205 33.5929Z" fill="url(#paint1_linear)"/>
<defs>
<linearGradient id="paint0_linear" x1="61.6531" y1="40.3952" x2="56.7659" y2="1.54601" gradientUnits="userSpaceOnUse">
<stop stop-color="#3D48DB"/>
<stop offset="0.494792" stop-color="#3C2D93" stop-opacity="0.2"/>
<stop offset="0.915468" stop-color="#6238B3" stop-opacity="0"/>
</linearGradient>
<linearGradient id="paint1_linear" x1="47.317" y1="7.61661" x2="78.7584" y2="51.6933" gradientUnits="userSpaceOnUse">
<stop stop-color="#01F8F1"/>
<stop offset="1" stop-color="#3643A3"/>
</linearGradient>
</defs>
</svg>
