<svg width="64" height="69" viewBox="0 0 64 69" fill="none" xmlns="http://www.w3.org/2000/svg">
<path d="M48.2375 33.7875C30.9352 14.3644 15.7651 33.7875 15.7651 33.7875C32.8365 54.1004 48.2375 33.7875 48.2375 33.7875Z" fill="url(#paint0_linear)"/>
<path fill-rule="evenodd" clip-rule="evenodd" d="M56.2941 40.4173C57.0386 40.739 57.3813 41.6034 57.0596 42.3479L55.9345 44.9514C50.2957 58.0003 34.9441 63.8214 21.7258 58.1094C15.0273 55.2147 10.1271 49.8836 7.64744 43.6245C7.3487 42.8705 7.76893 42.0372 8.53852 41.7812C9.3081 41.5252 10.1352 41.9437 10.4392 42.6956C12.6602 48.1886 16.9869 52.862 22.8909 55.4133C34.6793 60.5074 48.2683 55.2876 53.2384 43.7863L54.3635 41.1828C54.6852 40.4383 55.5496 40.0956 56.2941 40.4173Z" fill="url(#paint1_linear)"/>
<path fill-rule="evenodd" clip-rule="evenodd" d="M8.09813 23.301C13.6923 10.3555 29.1283 4.73665 42.5498 10.5365C49.6056 13.5856 54.7085 19.2017 57.1885 25.7088C57.4773 26.4667 57.0462 27.2944 56.2734 27.5403C55.5005 27.7862 54.679 27.357 54.3848 26.6012C52.1598 20.8843 47.6418 15.9365 41.3847 13.2326C29.3289 8.02288 15.6934 13.1301 10.7945 24.4653C10.7944 24.4656 10.7943 24.4658 10.7942 24.466L10.3533 25.4893C10.0324 26.2341 9.16838 26.5778 8.42353 26.2568C7.67868 25.9359 7.33505 25.0719 7.656 24.327L8.09813 23.301Z" fill="url(#paint2_linear)"/>
<path fill-rule="evenodd" clip-rule="evenodd" d="M7.7492 24.1421C8.1303 25.1963 9.30318 25.7314 10.3491 25.3284L14.6767 23.661C15.4335 23.3694 16.2834 23.7465 16.575 24.5033C16.8666 25.2602 16.4895 26.1101 15.7326 26.4017L8.60667 29.1473C7.56073 29.5503 6.38784 29.0152 6.00674 27.9611L3.57815 21.2436C3.30239 20.4809 3.69717 19.639 4.4599 19.3632C5.22263 19.0875 6.0645 19.4823 6.34025 20.245L7.7492 24.1421Z" fill="url(#paint3_linear)"/>
<path fill-rule="evenodd" clip-rule="evenodd" d="M55.3519 39.2377C56.4662 38.7395 57.763 39.347 58.0934 40.522L60.1256 47.7471C60.3451 48.5278 59.8902 49.3388 59.1095 49.5583C58.3287 49.7779 57.5178 49.323 57.2982 48.5423L56.187 44.5915C55.8565 43.4165 54.5597 42.809 53.4454 43.3072L49.3012 45.16C48.5608 45.491 47.6922 45.1591 47.3612 44.4187C47.0302 43.6782 47.3621 42.8097 48.1025 42.4786L55.3519 39.2377Z" fill="url(#paint4_linear)"/>
<path d="M31.9836 41.4359C36.0738 41.4359 39.3896 38.1201 39.3896 34.0299C39.3896 29.9397 36.0738 26.6239 31.9836 26.6239C27.8934 26.6239 24.5776 29.9397 24.5776 34.0299C24.5776 38.1201 27.8934 41.4359 31.9836 41.4359Z" fill="url(#paint5_linear)"/>
<path d="M31.7859 38.106C29.4359 38.106 27.5132 36.1833 27.5132 33.8334C27.5132 31.4834 29.4359 29.5607 31.7859 29.5607C34.1358 29.5607 36.0586 31.4834 36.0586 33.8334C36.0586 36.1833 34.1358 38.106 31.7859 38.106ZM31.7859 30.6288C30.0234 30.6288 28.5814 32.0709 28.5814 33.8334C28.5814 35.5958 30.0234 37.0379 31.7859 37.0379C33.5484 37.0379 34.9904 35.5958 34.9904 33.8334C34.9904 32.0709 33.5484 30.6288 31.7859 30.6288Z" fill="url(#paint6_linear)"/>
<defs>
<linearGradient id="paint0_linear" x1="36.7356" y1="40.0093" x2="47.4285" y2="23.8182" gradientUnits="userSpaceOnUse">
<stop stop-color="#01F8F1"/>
<stop offset="1" stop-color="#3643A3"/>
</linearGradient>
<linearGradient id="paint1_linear" x1="36.4219" y1="31.8299" x2="25.1227" y2="57.9775" gradientUnits="userSpaceOnUse">
<stop stop-color="#3643A3"/>
<stop offset="1" stop-color="#3D48DB"/>
</linearGradient>
<linearGradient id="paint2_linear" x1="39.3279" y1="10.744" x2="29.1586" y2="34.2769" gradientUnits="userSpaceOnUse">
<stop stop-color="#3643A3"/>
<stop offset="1" stop-color="#3D48DB"/>
</linearGradient>
<linearGradient id="paint3_linear" x1="11.6287" y1="18.5716" x2="7.56504" y2="27.9717" gradientUnits="userSpaceOnUse">
<stop stop-color="#3D48DB"/>
<stop offset="1" stop-color="#3D35AA"/>
</linearGradient>
<linearGradient id="paint4_linear" x1="56.5411" y1="40.3398" x2="52.4775" y2="49.7399" gradientUnits="userSpaceOnUse">
<stop stop-color="#3D48DB"/>
<stop offset="1" stop-color="#3D35AA"/>
</linearGradient>
<linearGradient id="paint5_linear" x1="24.5776" y1="33.7019" x2="52.1127" y2="26.6239" gradientUnits="userSpaceOnUse">
<stop stop-color="#3D48DB"/>
<stop offset="0.494792" stop-color="#3C2D93"/>
<stop offset="0.915468" stop-color="#6238B3"/>
</linearGradient>
<linearGradient id="paint6_linear" x1="30.8067" y1="31.1397" x2="35.7969" y2="38.5733" gradientUnits="userSpaceOnUse">
<stop stop-color="#01F8F1"/>
<stop offset="1" stop-color="#3643A3"/>
</linearGradient>
</defs>
</svg>
