<svg width="58" height="61" viewBox="0 0 58 61" fill="none" xmlns="http://www.w3.org/2000/svg">
<path d="M29.3016 15.7484C21.0139 15.8841 15.1823 15.1848 11.1892 14.308L0 45.1205L58 45.1205L46.8683 14.4228C42.8896 15.237 37.2159 15.8737 29.3016 15.7484Z" fill="url(#paint0_linear)"/>
<path d="M5.63089 12.3606C6.00434 12.9529 6.75125 13.7042 8.31687 14.2099C8.5036 14.2677 8.69032 14.1088 8.64723 13.9209C8.54669 13.4153 8.35996 12.4617 8.1876 11.2336C8.15887 11.0313 7.94342 10.9013 7.75669 10.988C7.00979 11.2914 6.32034 11.6093 5.73143 11.9705C5.5878 12.0427 5.54471 12.2305 5.63089 12.3606Z" fill="url(#paint1_linear)"/>
<path d="M7.62776 4.55858C7.62776 4.39965 7.4554 4.31296 7.32612 4.39965C6.6654 4.83309 6.10522 5.33877 5.73177 5.68552C5.4445 5.94559 5.2865 6.32124 5.2865 6.71133V10.1355C5.2865 10.28 5.43013 10.3667 5.55941 10.3089C5.99031 10.0922 6.62231 9.78876 7.48412 9.44201C7.74267 9.34088 7.90067 9.06636 7.8863 8.79185C7.75703 7.44818 7.67085 5.36767 7.62776 4.55858Z" fill="url(#paint2_linear)"/>
<path d="M47.9019 3.07051C44.3829 1.42343 38.422 -0.209202 28.7984 0.0219669C19.1892 -0.209202 13.214 1.43787 9.6949 3.07051C9.29272 3.25833 9.03418 3.66288 9.03418 4.11077C9.03418 5.16548 9.06291 6.66808 9.22091 8.31516C9.24963 8.54633 9.46509 8.70525 9.6949 8.63301C13.5012 7.41938 19.7063 6.11905 28.7984 6.1046C37.8762 6.11905 44.0812 7.41938 47.9019 8.63301C48.1174 8.70525 48.3472 8.54633 48.3759 8.31516C48.5339 6.66808 48.5627 5.16548 48.5627 4.11077C48.5627 3.66288 48.3041 3.25833 47.9019 3.07051Z" fill="url(#paint3_linear)"/>
<path d="M51.9828 12.3606C51.6094 12.9529 50.8625 13.7042 49.2968 14.2099C49.1101 14.2677 48.9234 14.1088 48.9665 13.9209C49.067 13.4153 49.2537 12.4617 49.4261 11.2336C49.4548 11.0313 49.6703 10.9013 49.857 10.988C50.6039 11.2914 51.2934 11.6093 51.8823 11.9705C52.0259 12.0427 52.069 12.2305 51.9828 12.3606Z" fill="url(#paint4_linear)"/>
<path d="M49.9861 4.55858C49.9861 4.39965 50.1585 4.31296 50.2878 4.39965C50.9485 4.83309 51.5087 5.33877 51.8821 5.68552C52.1694 5.94559 52.3274 6.32124 52.3274 6.71133V10.1355C52.3274 10.28 52.1838 10.3667 52.0545 10.3089C51.6236 10.0922 50.9916 9.78876 50.1298 9.44201C49.8712 9.34088 49.7132 9.06636 49.7276 8.79185C49.8425 7.44818 49.943 5.36767 49.9861 4.55858Z" fill="url(#paint5_linear)"/>
<path d="M47.6315 10.2078C40.1194 7.98284 28.8009 7.56384 28.8009 7.56384C28.8009 7.56384 17.4825 7.99729 9.97032 10.2078C9.68305 10.2945 9.51068 10.569 9.56814 10.858C9.88414 12.7218 10.4012 14.5856 11.2199 16.016C11.579 16.6517 11.9956 17.2007 12.4839 17.6341C12.7856 17.8653 13.1016 18.082 13.4319 18.2843C16.4339 20.1337 20.2833 20.6393 23.3715 20.6682C23.8168 20.6682 24.262 20.6104 24.6786 20.4804C25.2531 20.2926 25.8564 19.9458 26.316 19.339C27.1635 18.1976 28.054 17.3452 28.8009 17.403C29.5478 17.3307 30.4384 18.1976 31.2858 19.339C31.7455 19.9458 32.3487 20.2926 32.9233 20.4804C33.3398 20.6249 33.7851 20.6682 34.2303 20.6682C37.3185 20.6393 41.1679 20.1337 44.1699 18.2843C44.5003 18.082 44.8163 17.8653 45.1179 17.6341C45.6063 17.2007 46.0228 16.6517 46.3819 16.016C47.2006 14.5856 47.7177 12.7218 48.0337 10.858C48.0912 10.5835 47.9188 10.2945 47.6315 10.2078Z" fill="url(#paint6_linear)"/>
<path d="M24.741 26.0892C24.741 26.0892 23.8187 30.1896 22.0143 32.3627C20.2099 34.5359 18.2852 37.4882 17.0422 39.0873C15.7991 40.6864 13.5938 42.0395 13.5938 42.5316C13.5938 43.0236 14.0749 46.4679 16.561 45.1148C19.0872 43.7207 21.5331 40.1944 21.5331 40.1944L21.5331 57.9899C21.5331 57.9899 21.7336 60.245 23.0168 60.4911C24.2598 60.7371 25.3825 59.712 25.3024 57.3748C25.2222 55.0376 25.3024 51.6753 25.3024 51.6753C25.3024 51.6753 26.5454 52.6594 27.4275 52.3314C28.3097 52.0034 29.3121 52.0034 29.3923 48.6001C29.3923 48.6001 30.1141 50.0352 31.9185 49.7892C33.7229 49.5432 33.8031 48.3541 33.7229 46.7549C33.7229 46.7549 35.2065 47.575 36.61 47.247C38.0134 46.9189 38.3342 46.1399 37.853 38.1852C37.3718 30.1896 34.4046 29.0415 34.4046 29.0415V26.0892L24.741 26.0892Z" fill="url(#paint7_linear)"/>
<defs>
<linearGradient id="paint0_linear" x1="33.5313" y1="-10.6139" x2="19.4844" y2="38.7767" gradientUnits="userSpaceOnUse">
<stop stop-color="#00FFFF" stop-opacity="0.7"/>
<stop offset="1" stop-color="#0BBDD7" stop-opacity="0"/>
</linearGradient>
<linearGradient id="paint1_linear" x1="6.76868" y1="11.4615" x2="8.87432" y2="14.2374" gradientUnits="userSpaceOnUse">
<stop stop-color="#01F8F1"/>
<stop offset="1" stop-color="#3643A3"/>
</linearGradient>
<linearGradient id="paint2_linear" x1="6.28885" y1="5.2809" x2="9.84695" y2="7.45686" gradientUnits="userSpaceOnUse">
<stop stop-color="#01F8F1"/>
<stop offset="1" stop-color="#3643A3"/>
</linearGradient>
<linearGradient id="paint3_linear" x1="24.2691" y1="1.32849" x2="26.0369" y2="12.6523" gradientUnits="userSpaceOnUse">
<stop stop-color="#01F8F1"/>
<stop offset="1" stop-color="#3643A3"/>
</linearGradient>
<linearGradient id="paint4_linear" x1="50.1422" y1="11.4615" x2="52.2479" y2="14.2374" gradientUnits="userSpaceOnUse">
<stop stop-color="#01F8F1"/>
<stop offset="1" stop-color="#3643A3"/>
</linearGradient>
<linearGradient id="paint5_linear" x1="50.729" y1="5.2809" x2="54.2871" y2="7.45685" gradientUnits="userSpaceOnUse">
<stop stop-color="#01F8F1"/>
<stop offset="1" stop-color="#3643A3"/>
</linearGradient>
<linearGradient id="paint6_linear" x1="24.3909" y1="9.57631" x2="28.421" y2="26.1695" gradientUnits="userSpaceOnUse">
<stop stop-color="#01F8F1"/>
<stop offset="1" stop-color="#3643A3"/>
</linearGradient>
<linearGradient id="paint7_linear" x1="23.0244" y1="31.3779" x2="46.1132" y2="54.3759" gradientUnits="userSpaceOnUse">
<stop stop-color="#01F8F1"/>
<stop offset="1" stop-color="#3643A3"/>
</linearGradient>
</defs>
</svg>
