<svg width="1282" height="813" viewBox="0 0 1282 813" fill="none" xmlns="http://www.w3.org/2000/svg">
<path d="M1380 415.864L1034.42 216.284L687.822 16.2412L343.447 215.079L0 413.361L345.579 612.94L691.9 812.891L692.178 812.983L1036.55 614.145L1380 415.864ZM1035.63 613.589L998.176 591.991L1035.44 570.485L1072.89 592.083L1035.63 613.589ZM996.229 414.659L958.779 393.06L996.044 371.554L1033.49 393.153L996.229 414.659ZM1034.42 393.709L1071.87 415.308L1034.61 436.814L997.156 415.215L1034.42 393.709ZM652.504 392.411L689.768 370.905L727.218 392.504L689.954 414.01L652.504 392.411ZM689.027 414.566L651.855 436.072L614.405 414.473L651.669 392.967L689.027 414.566ZM690.046 415.122L727.496 436.721L690.232 458.227L652.782 436.628L690.046 415.122ZM690.973 414.659L728.145 393.153L765.596 414.751L728.331 436.257L690.973 414.659ZM729.072 392.596L766.337 371.09L803.787 392.689L766.523 414.195L729.072 392.596ZM728.145 392.04L690.695 370.442L727.96 348.936L765.41 370.534L728.145 392.04ZM689.768 369.885L652.318 348.287L689.583 326.781L727.033 348.379L689.768 369.885ZM688.841 370.442L651.577 391.948L614.126 370.349L651.391 348.843L688.841 370.442ZM650.742 392.411L613.478 413.917L576.027 392.318L613.292 370.812L650.742 392.411ZM612.551 414.473L575.286 435.979L537.836 414.381L575.1 392.875L612.551 414.473ZM613.478 415.029L650.928 436.628L613.663 458.134L576.213 436.535L613.478 415.029ZM651.855 437.184L689.305 458.783L652.04 480.289L614.59 458.69L651.855 437.184ZM690.232 459.339L727.682 480.938L690.417 502.444L652.967 480.845L690.232 459.339ZM691.159 458.876L728.423 437.37L765.874 458.968L728.609 480.474L691.159 458.876ZM729.35 436.814L766.615 415.308L804.065 436.906L766.801 458.412L729.35 436.814ZM767.45 414.751L804.714 393.245L842.164 414.844L804.9 436.35L767.45 414.751ZM805.641 392.689L842.906 371.183L880.356 392.782L843.091 414.381L805.641 392.689ZM804.714 392.226L767.264 370.627L804.529 349.121L841.979 370.72L804.714 392.226ZM766.337 369.978L728.887 348.379L766.152 326.873L803.602 348.472L766.337 369.978ZM727.96 347.823L690.51 326.224L727.775 304.718L765.225 326.317L727.96 347.823ZM689.49 325.668L652.04 304.07L689.305 282.564L726.755 304.162L689.49 325.668ZM688.563 326.224L651.298 347.73L613.848 326.132L651.113 304.626L688.563 326.224ZM650.464 348.194L613.199 369.7L575.749 348.101L613.014 326.595L650.464 348.194ZM612.272 370.256L575.008 391.762L537.558 370.163L574.822 348.657L612.272 370.256ZM574.173 392.318L536.909 413.824L499.459 392.133L536.723 370.627L574.173 392.318ZM535.982 414.381L498.717 435.887L461.267 414.288L498.532 392.782L535.982 414.381ZM536.909 414.844L574.359 436.443L537.094 457.949L499.644 436.35L536.909 414.844ZM575.286 437.092L612.736 458.69L575.564 480.196L538.114 458.598L575.286 437.092ZM613.663 459.247L651.113 480.845L613.848 502.351L576.398 480.753L613.663 459.247ZM652.04 481.401L689.49 503L652.225 524.506L614.775 502.907L652.04 481.401ZM690.51 503.556L727.96 525.155L690.695 546.661L653.245 525.062L690.51 503.556ZM691.437 503L728.702 481.494L766.152 503.093L728.887 524.692L691.437 503ZM729.536 481.031L766.801 459.525L804.251 481.123L766.986 502.629L729.536 481.031ZM767.728 458.968L804.992 437.462L842.442 459.061L805.178 480.567L767.728 458.968ZM805.919 436.906L843.184 415.4L880.634 436.999L843.369 458.505L805.919 436.906ZM844.018 414.844L881.283 393.338L918.733 414.937L881.561 436.535L844.018 414.844ZM882.21 392.875L919.475 371.368L956.925 392.967L919.66 414.473L882.21 392.875ZM881.283 392.318L843.833 370.72L881.098 349.214L918.548 370.812L881.283 392.318ZM842.906 370.163L805.456 348.565L842.721 327.059L880.171 348.657L842.906 370.163ZM804.529 348.009L766.986 326.317L804.251 304.811L841.701 326.41L804.529 348.009ZM766.059 325.761L728.609 304.162L765.874 282.656L803.324 304.255L766.059 325.761ZM727.682 303.606L690.232 282.007L727.496 260.501L764.947 282.1L727.682 303.606ZM689.305 281.451L651.855 259.852L689.119 238.346L726.57 259.945L689.305 281.451ZM688.378 282.007L651.113 303.513L613.663 281.822L650.928 260.316L688.378 282.007ZM650.186 304.07L612.921 325.576L575.471 303.977L612.736 282.471L650.186 304.07ZM611.994 326.039L574.73 347.545L537.279 325.946L574.544 304.44L611.994 326.039ZM573.895 348.101L536.631 369.607L499.181 348.009L536.445 326.503L573.895 348.101ZM535.704 370.163L498.439 391.669L460.989 370.071L498.254 348.565L535.704 370.163ZM497.605 392.133L460.34 413.639L422.89 392.04L460.155 370.534L497.605 392.133ZM459.413 414.195L422.148 435.701L384.698 414.102L421.963 392.596L459.413 414.195ZM460.34 414.751L497.79 436.35L460.525 457.856L423.075 436.257L460.34 414.751ZM498.717 436.906L536.167 458.505L498.902 480.011L461.452 458.412L498.717 436.906ZM537.094 459.061L574.544 480.66L537.279 502.166L499.829 480.567L537.094 459.061ZM575.564 481.309L613.014 502.907L575.749 524.414L538.299 502.815L575.564 481.309ZM613.941 503.464L651.391 525.062L614.126 546.568L576.676 524.97L613.941 503.464ZM652.318 525.619L689.768 547.217L652.596 568.723L615.146 547.125L652.318 525.619ZM690.695 547.773L728.145 569.372L690.881 590.878L653.523 569.279L690.695 547.773ZM691.622 547.217L728.887 525.711L766.337 547.31L729.072 568.816L691.622 547.217ZM729.814 525.248L767.079 503.742L804.529 525.34L767.264 546.846L729.814 525.248ZM768.006 503.186L805.27 481.68L842.721 503.278L805.456 524.784L768.006 503.186ZM806.105 481.123L843.369 459.617L880.82 481.216L843.555 502.722L806.105 481.123ZM844.296 459.061L881.561 437.555L919.011 459.154L881.747 480.66L844.296 459.061ZM882.488 437.092L919.753 415.586L957.203 437.184L919.938 458.69L882.488 437.092ZM920.587 415.029L957.852 393.523L995.302 415.122L958.037 436.628L920.587 415.029ZM957.852 392.504L920.402 370.812L957.666 349.306L995.117 370.905L957.852 392.504ZM919.475 370.256L882.025 348.657L919.289 327.151L956.739 348.75L919.475 370.256ZM881.005 348.101L843.555 326.503L880.82 304.997L918.27 326.595L881.005 348.101ZM842.628 325.946L805.178 304.348L842.442 282.842L879.893 304.44L842.628 325.946ZM804.251 303.791L766.801 282.193L804.065 260.687L841.515 282.285L804.251 303.791ZM765.874 281.637L728.423 260.038L765.688 238.532L803.138 260.131L765.874 281.637ZM727.496 259.389L690.046 237.79L727.311 216.284L764.761 237.883L727.496 259.389ZM689.027 237.234L651.577 215.635L688.841 194.129L726.291 215.728L689.027 237.234ZM688.1 237.79L650.835 259.296L613.385 237.698L650.65 216.192L688.1 237.79ZM650.001 259.852L612.736 281.358L575.286 259.76L612.551 238.254L650.001 259.852ZM611.809 281.822L574.544 303.328L537.094 281.729L574.359 260.223L611.809 281.822ZM573.617 303.884L536.353 325.39L498.902 303.791L536.167 282.285L573.617 303.884ZM535.518 325.946L498.254 347.452L460.803 325.854L498.068 304.348L535.518 325.946ZM497.327 348.009L460.062 369.515L422.612 347.916L459.876 326.41L497.327 348.009ZM459.135 369.978L421.87 391.484L384.42 369.885L421.685 348.379L459.135 369.978ZM421.036 392.04L383.771 413.546L346.321 391.948L383.586 370.442L421.036 392.04ZM382.844 414.102L345.579 435.608L308.129 414.01L345.394 392.504L382.844 414.102ZM383.771 414.566L421.221 436.165L383.956 457.671L346.506 436.072L383.771 414.566ZM422.148 436.814L459.598 458.412L422.334 479.918L384.883 458.32L422.148 436.814ZM460.525 458.968L497.975 480.567L460.711 502.073L423.261 480.474L460.525 458.968ZM498.995 481.123L536.445 502.722L499.181 524.228L461.73 502.629L498.995 481.123ZM537.372 503.278L574.822 524.877L537.558 546.383L500.107 524.784L537.372 503.278ZM575.749 525.433L613.199 547.032L575.935 568.538L538.485 546.939L575.749 525.433ZM614.126 547.681L651.577 569.279L614.312 590.785L576.862 569.187L614.126 547.681ZM652.596 569.836L690.046 591.434L652.782 612.94L615.331 591.342L652.596 569.836ZM690.973 591.991L728.423 613.589L691.159 635.095L653.709 613.497L690.973 591.991ZM691.9 591.434L729.165 569.928L766.615 591.527L729.35 613.033L691.9 591.434ZM730.092 569.372L767.357 547.866L804.807 569.465L767.542 591.064L730.092 569.372ZM768.191 547.403L805.456 525.897L842.906 547.495L805.641 569.001L768.191 547.403ZM806.383 525.34L843.647 503.834L881.098 525.433L843.833 546.939L806.383 525.34ZM844.574 503.278L881.839 481.772L919.289 503.371L882.025 524.877L844.574 503.278ZM882.674 481.309L919.938 459.803L957.388 481.401L920.124 502.907L882.674 481.309ZM920.865 459.247L958.13 437.741L995.58 459.339L958.315 480.845L920.865 459.247ZM959.057 437.184L996.322 415.678L1033.77 437.277L996.507 458.876L959.057 437.184ZM1034.7 437.833L1072.15 459.432L1034.88 480.938L997.434 459.339L1034.7 437.833ZM1035.63 437.37L1072.89 415.864L1110.34 437.462L1073.08 458.968L1035.63 437.37ZM1073.72 415.308L1110.99 393.802L1148.44 415.4L1111.17 436.906L1073.72 415.308ZM1072.8 414.751L1035.35 393.153L1072.61 371.647L1110.06 393.245L1072.8 414.751ZM1034.42 392.596L996.971 370.998L1034.24 349.492L1071.69 371.09L1034.42 392.596ZM996.044 370.442L958.593 348.843L995.858 327.337L1033.31 348.936L996.044 370.442ZM957.574 348.287L920.124 326.688L957.388 305.182L994.838 326.781L957.574 348.287ZM919.197 326.039L881.747 304.44L919.011 282.934L956.461 304.533L919.197 326.039ZM880.82 303.884L843.369 282.285L880.634 260.779L918.084 282.378L880.82 303.884ZM842.442 281.729L804.992 260.131L842.257 238.625L879.707 260.223L842.442 281.729ZM804.065 259.574L766.615 237.976L803.88 216.47L841.33 238.068L804.065 259.574ZM765.596 237.419L728.145 215.821L765.41 194.315L802.86 215.913L765.596 237.419ZM727.218 215.172L689.768 193.573L727.033 172.067L764.483 193.666L727.218 215.172ZM688.841 193.017L651.391 171.418L688.656 149.912L726.106 171.511L688.841 193.017ZM687.914 193.573L650.65 215.079L613.199 193.48L650.464 171.974L687.914 193.573ZM649.723 215.635L612.458 237.141L575.008 215.543L612.272 194.037L649.723 215.635ZM611.531 237.605L574.266 259.111L536.816 237.512L574.081 216.006L611.531 237.605ZM573.432 259.667L536.167 281.173L498.717 259.574L535.982 238.068L573.432 259.667ZM535.24 281.729L497.975 303.235L460.525 281.637L497.79 260.131L535.24 281.729ZM497.048 303.791L459.784 325.297L422.334 303.699L459.598 282.193L497.048 303.791ZM458.949 325.761L421.685 347.267L384.235 325.668L421.499 304.162L458.949 325.761ZM420.758 347.823L383.493 369.329L346.043 347.73L383.308 326.224L420.758 347.823ZM382.566 369.885L345.301 391.391L307.851 369.793L345.116 348.287L382.566 369.885ZM344.467 391.855L307.202 413.361L269.752 391.762L307.017 370.256L344.467 391.855ZM306.275 413.917L269.011 435.423L231.56 413.824L268.825 392.318L306.275 413.917ZM307.202 414.473L344.652 436.072L307.388 457.578L269.938 435.979L307.202 414.473ZM345.579 436.628L383.03 458.227L345.765 479.733L308.315 458.134L345.579 436.628ZM383.956 458.783L421.407 480.382L384.142 501.888L346.692 480.289L383.956 458.783ZM422.426 480.938L459.876 502.537L422.612 524.043L385.162 502.444L422.426 480.938ZM460.803 503.186L498.254 524.784L460.989 546.29L423.539 524.692L460.803 503.186ZM499.181 525.34L536.631 546.939L499.366 568.445L461.916 546.846L499.181 525.34ZM537.558 547.495L575.008 569.094L537.743 590.6L500.293 569.001L537.558 547.495ZM576.027 569.65L613.478 591.249L576.213 612.755L538.763 591.156L576.027 569.65ZM614.405 591.805L651.855 613.404L614.683 635.003L577.232 613.404L614.405 591.805ZM652.782 614.053L690.232 635.651L652.967 657.158L615.517 635.559L652.782 614.053ZM691.251 636.208L728.702 657.806L691.437 679.312L653.987 657.714L691.251 636.208ZM692.178 635.651L729.443 614.145L766.893 635.744L729.629 657.25L692.178 635.651ZM730.277 613.589L767.542 592.083L804.992 613.682L767.728 635.188L730.277 613.589ZM768.469 591.62L805.734 570.114L843.184 591.712L805.919 613.219L768.469 591.62ZM806.661 569.558L843.926 548.052L881.376 569.65L844.111 591.156L806.661 569.558ZM844.76 547.495L882.025 525.989L919.475 547.588L882.303 569.187L844.76 547.495ZM882.952 525.433L920.216 503.927L957.666 525.526L920.402 547.032L882.952 525.433ZM921.051 503.464L958.315 481.958L995.765 503.556L958.501 525.062L921.051 503.464ZM959.242 481.401L996.507 459.895L1033.96 481.494L996.692 503L959.242 481.401ZM1034.88 482.05L1072.33 503.649L1035.07 525.155L997.619 503.556L1034.88 482.05ZM1035.81 481.587L1073.08 460.081L1110.53 481.68L1073.26 503.186L1035.81 481.587ZM1074 459.525L1111.27 438.019L1148.72 459.617L1111.45 481.123L1074 459.525ZM1112.19 437.462L1149.46 415.956L1186.91 437.555L1149.64 459.061L1112.19 437.462ZM1150.29 415.4L1187.56 393.894L1225.01 415.493L1187.74 436.999L1150.29 415.4ZM1149.37 414.937L1111.92 393.338L1149.18 371.832L1186.63 393.431L1149.37 414.937ZM1110.99 392.689L1073.54 371.09L1110.8 349.584L1148.25 371.183L1110.99 392.689ZM1072.61 370.534L1035.16 348.936L1072.43 327.43L1109.88 349.028L1072.61 370.534ZM1034.14 348.379L996.692 326.781L1033.96 305.275L1071.41 326.873L1034.14 348.379ZM995.765 326.224L958.315 304.626L995.58 283.12L1033.03 304.718L995.765 326.224ZM957.388 304.07L919.938 282.471L957.203 260.965L994.653 282.564L957.388 304.07ZM919.011 281.822L881.561 260.223L918.826 238.717L956.276 260.316L919.011 281.822ZM880.541 259.667L843.091 238.068L880.356 216.562L917.806 238.161L880.541 259.667ZM842.164 237.512L804.714 215.913L841.979 194.407L879.429 216.006L842.164 237.512ZM803.787 215.357L766.337 193.759L803.602 172.253L841.052 193.851L803.787 215.357ZM765.41 193.202L727.867 171.511L765.132 150.005L802.582 171.604L765.41 193.202ZM726.94 171.047L689.49 149.449L726.755 127.943L764.205 149.541L726.94 171.047ZM688.563 148.8L651.113 127.201L688.378 105.695L725.828 127.294L688.563 148.8ZM687.636 149.356L650.371 170.862L612.921 149.263L650.186 127.757L687.636 149.356ZM649.444 171.418L612.18 192.924L574.73 171.233L611.994 149.727L649.444 171.418ZM611.345 193.48L574.081 214.986L536.631 193.388L573.895 171.882L611.345 193.48ZM573.154 215.45L535.889 236.956L498.439 215.357L535.704 193.851L573.154 215.45ZM534.962 237.512L497.79 259.018L460.247 237.327L497.512 215.821L534.962 237.512ZM496.863 259.574L459.598 281.08L422.148 259.482L459.413 237.976L496.863 259.574ZM458.671 281.544L421.407 303.05L383.956 281.451L421.221 259.945L458.671 281.544ZM420.48 303.606L383.215 325.112L345.765 303.513L383.03 282.007L420.48 303.606ZM382.381 325.668L345.116 347.174L307.666 325.576L344.93 304.07L382.381 325.668ZM344.189 347.73L306.924 369.236L269.474 347.638L306.739 326.132L344.189 347.73ZM305.997 369.7L268.825 391.206L231.375 369.607L268.64 348.101L305.997 369.7ZM267.898 391.762L230.633 413.268L193.183 391.669L230.448 370.163L267.898 391.762ZM229.706 413.824L192.442 435.33L154.992 413.732L192.256 392.226L229.706 413.824ZM230.633 414.288L268.084 435.887L230.819 457.393L193.369 435.794L230.633 414.288ZM269.011 436.535L306.461 458.134L269.196 479.64L231.746 458.041L269.011 436.535ZM307.388 458.69L344.838 480.289L307.573 501.795L270.216 480.196L307.388 458.69ZM345.857 480.845L383.308 502.444L346.043 523.95L308.593 502.351L345.857 480.845ZM384.235 503L421.685 524.599L384.42 546.105L346.97 524.506L384.235 503ZM422.612 525.155L460.062 546.754L422.797 568.26L385.347 546.661L422.612 525.155ZM461.081 547.403L498.532 569.001L461.267 590.507L423.817 568.909L461.081 547.403ZM499.459 569.558L536.909 591.156L499.644 612.662L462.194 591.064L499.459 569.558ZM537.836 591.712L575.286 613.311L538.021 634.817L500.571 613.219L537.836 591.712ZM576.213 613.867L613.663 635.466L576.398 656.972L538.948 635.373L576.213 613.867ZM614.683 636.022L652.133 657.621L614.868 679.127L577.418 657.528L614.683 636.022ZM653.06 658.177L690.51 679.776L653.245 701.282L615.795 679.683L653.06 658.177ZM691.437 680.425L728.887 702.023L691.622 723.53L654.172 701.931L691.437 680.425ZM692.364 679.869L729.629 658.363L767.079 679.961L729.814 701.467L692.364 679.869ZM730.556 657.806L767.82 636.3L805.27 657.899L768.006 679.498L730.556 657.806ZM768.747 635.837L806.012 614.331L843.462 635.93L806.197 657.436L768.747 635.837ZM806.846 613.775L844.111 592.269L881.561 613.867L844.296 635.373L806.846 613.775ZM845.038 591.712L882.303 570.206L919.753 591.805L882.488 613.404L845.038 591.712ZM883.23 569.65L920.494 548.144L957.945 569.743L920.68 591.249L883.23 569.65ZM921.329 547.681L958.593 526.175L996.044 547.773L958.779 569.279L921.329 547.681ZM959.52 525.619L996.785 504.113L1034.24 525.711L996.971 547.217L959.52 525.619ZM1035.16 526.267L1072.61 547.866L1035.35 569.372L997.898 547.773L1035.16 526.267ZM1036.09 525.711L1073.35 504.205L1110.8 525.804L1073.54 547.31L1036.09 525.711ZM1074.19 503.742L1111.45 482.236L1148.9 503.834L1111.64 525.34L1074.19 503.742ZM1112.38 481.68L1149.64 460.174L1187.09 481.772L1149.83 503.278L1112.38 481.68ZM1150.57 459.617L1187.84 438.111L1225.29 459.71L1188.02 481.216L1150.57 459.617ZM1188.76 437.648L1226.03 416.142L1263.48 437.741L1226.21 459.247L1188.76 437.648ZM1226.86 415.586L1264.13 394.08L1301.58 415.678L1264.31 437.184L1226.86 415.586ZM1225.94 415.029L1188.49 393.431L1225.75 371.925L1263.2 393.523L1225.94 415.029ZM1187.56 392.875L1150.11 371.276L1187.37 349.77L1224.82 371.368L1187.56 392.875ZM1149.18 370.72L1111.73 349.121L1149 327.615L1186.45 349.214L1149.18 370.72ZM1110.71 348.565L1073.26 326.966L1110.53 305.46L1147.98 327.059L1110.71 348.565ZM1072.33 326.317L1034.88 304.718L1072.15 283.212L1109.6 304.811L1072.33 326.317ZM1033.96 304.162L996.507 282.564L1033.77 261.058L1071.22 282.656L1033.96 304.162ZM995.58 282.007L958.13 260.409L995.395 238.903L1032.84 260.501L995.58 282.007ZM957.11 259.852L919.66 238.254L956.925 216.748L994.375 238.346L957.11 259.852ZM918.733 237.698L881.283 216.006L918.548 194.5L955.998 216.099L918.733 237.698ZM880.356 215.45L842.906 193.851L880.171 172.345L917.621 193.944L880.356 215.45ZM841.979 193.295L804.529 171.696L841.701 150.19L879.151 171.789L841.979 193.295ZM803.509 171.14L766.059 149.541L803.324 128.035L840.774 149.634L803.509 171.14ZM765.132 148.985L727.682 127.387L764.947 105.881L802.397 127.479L765.132 148.985ZM726.755 126.83L689.305 105.232L726.57 83.7256L764.02 105.324L726.755 126.83ZM688.285 104.675L650.835 83.0767L688.1 61.5707L725.55 83.1694L688.285 104.675ZM687.358 105.139L650.093 126.645L612.643 105.046L649.908 83.5402L687.358 105.139ZM649.259 127.201L611.994 148.707L574.544 127.108L611.809 105.602L649.259 127.201ZM611.067 149.263L573.803 170.769L536.353 149.171L573.617 127.665L611.067 149.263ZM572.876 171.233L535.611 192.739L498.161 171.14L535.426 149.634L572.876 171.233ZM534.777 193.295L497.512 214.801L460.062 193.202L497.327 171.696L534.777 193.295ZM496.585 215.357L459.32 236.863L421.87 215.265L459.135 193.759L496.585 215.357ZM458.393 237.327L421.129 258.833L383.678 237.234L420.943 215.728L458.393 237.327ZM420.294 259.389L383.03 280.895L345.579 259.296L382.844 237.79L420.294 259.389ZM382.103 281.451L344.838 302.957L307.388 281.358L344.652 259.852L382.103 281.451ZM343.911 303.513L306.646 325.019L269.196 303.421L306.461 281.915L343.911 303.513ZM305.812 325.483L268.547 346.989L231.097 325.39L268.362 303.884L305.812 325.483ZM267.62 347.545L230.355 369.051L192.905 347.452L230.17 325.946L267.62 347.545ZM229.428 369.607L192.164 391.113L154.714 369.515L191.978 348.009L229.428 369.607ZM191.329 391.577L154.065 413.083L116.615 391.484L153.879 369.978L191.329 391.577ZM153.138 413.639L115.873 435.145L78.4228 413.546L115.688 392.04L153.138 413.639ZM154.065 414.195L191.515 435.794L154.25 457.3L116.8 435.701L154.065 414.195ZM192.442 436.35L229.892 457.949L192.627 479.455L155.177 457.856L192.442 436.35ZM230.912 458.505L268.362 480.104L231.097 501.61L193.647 480.011L230.912 458.505ZM269.289 480.66L306.739 502.259L269.474 523.765L232.024 502.166L269.289 480.66ZM307.666 502.907L345.116 524.506L307.944 546.012L270.494 524.414L307.666 502.907ZM346.043 525.062L383.493 546.661L346.228 568.167L308.778 546.568L346.043 525.062ZM384.513 547.217L421.963 568.816L384.698 590.322L347.248 568.723L384.513 547.217ZM422.89 569.372L460.34 590.971L423.075 612.477L385.625 590.878L422.89 569.372ZM461.267 591.527L498.717 613.126L461.452 634.632L424.002 613.033L461.267 591.527ZM499.644 613.775L537.094 635.373L499.829 656.879L462.379 635.281L499.644 613.775ZM538.114 635.93L575.564 657.528L538.299 679.034L500.849 657.436L538.114 635.93ZM576.491 658.085L613.941 679.683L576.676 701.189L539.226 679.59L576.491 658.085ZM614.868 680.239L652.318 701.838L615.053 723.344L577.603 701.745L614.868 680.239ZM653.245 702.394L690.695 723.993L653.431 745.499L615.98 723.9L653.245 702.394ZM691.715 724.642L729.165 746.241L691.9 767.747L654.45 746.148L691.715 724.642ZM692.642 724.086L729.907 702.58L767.357 724.178L730.092 745.684L692.642 724.086ZM730.741 702.023L768.006 680.517L805.456 702.116L768.191 723.622L730.741 702.023ZM768.933 679.961L806.197 658.455L843.647 680.054L806.383 701.56L768.933 679.961ZM807.124 657.992L844.389 636.486L881.839 658.085L844.574 679.59L807.124 657.992ZM845.223 635.93L882.488 614.424L919.938 636.022L882.674 657.528L845.223 635.93ZM883.415 613.867L920.68 592.361L958.13 613.96L920.865 635.466L883.415 613.867ZM921.607 591.898L958.872 570.392L996.322 591.991L959.057 613.497L921.607 591.898ZM959.706 569.836L996.971 548.33L1034.42 569.928L997.156 591.434L959.706 569.836ZM1073.82 591.62L1036.37 570.021L1073.63 548.515L1111.08 570.114L1073.82 591.62ZM1111.92 569.558L1074.47 547.959L1111.73 526.453L1149.18 548.052L1111.92 569.558ZM1150.11 547.495L1112.66 525.897L1149.92 504.391L1187.37 525.989L1150.11 547.495ZM1188.3 525.526L1150.85 503.927L1188.11 482.421L1225.56 504.02L1188.3 525.526ZM1226.4 503.464L1188.95 481.865L1226.21 460.359L1263.66 481.958L1226.4 503.464ZM1264.59 481.401L1227.14 459.803L1264.41 438.297L1301.86 459.895L1264.59 481.401ZM1302.78 459.432L1265.33 437.833L1302.6 416.327L1340.05 437.926L1302.78 459.432ZM1378.15 415.864L1340.88 437.37L1303.43 415.771L1340.7 394.265L1378.15 415.864ZM1339.77 393.709L1302.5 415.215L1265.05 393.616L1302.32 372.11L1339.77 393.709ZM1301.39 371.554L1264.13 393.06L1226.68 371.461L1263.94 349.955L1301.39 371.554ZM1262.92 349.306L1225.66 370.812L1188.21 349.214L1225.47 327.708L1262.92 349.306ZM1224.54 327.151L1187.28 348.657L1149.83 327.059L1187.09 305.553L1224.54 327.151ZM1186.17 304.997L1148.9 326.503L1111.45 304.904L1148.72 283.398L1186.17 304.997ZM1147.7 282.842L1110.43 304.348L1072.98 282.749L1110.25 261.243L1147.7 282.842ZM1109.32 260.687L1072.06 282.193L1034.61 260.594L1071.87 239.088L1109.32 260.687ZM1070.94 238.439L1033.68 259.945L996.229 238.346L1033.49 216.84L1070.94 238.439ZM1032.57 216.284L995.302 237.79L957.852 216.192L995.117 194.686L1032.57 216.284ZM994.19 194.129L956.925 215.635L919.475 194.037L956.739 172.531L994.19 194.129ZM955.72 171.974L918.455 193.48L881.005 171.882L918.27 150.376L955.72 171.974ZM917.343 149.82L880.078 171.326L842.628 149.634L879.893 128.128L917.343 149.82ZM878.966 127.572L841.701 149.078L804.251 127.479L841.515 105.973L878.966 127.572ZM840.496 105.417L803.231 126.923L765.781 105.324L803.046 83.8183L840.496 105.417ZM802.119 83.2621L764.854 104.768L727.404 83.1694L764.669 61.6634L802.119 83.2621ZM763.742 61.1072L726.477 82.6132L689.027 61.0145L726.291 39.5085L763.742 61.1072ZM687.822 17.2609L725.272 38.8596L688.007 60.3656L650.557 38.7669L687.822 17.2609ZM649.723 39.3231L687.173 60.9218L649.908 82.4278L612.458 60.8291L649.723 39.3231ZM611.531 61.3853L648.981 82.984L611.716 104.49L574.266 82.8913L611.531 61.3853ZM573.339 83.3548L610.789 104.954L573.525 126.46L536.074 104.861L573.339 83.3548ZM535.24 105.417L572.69 127.016L535.426 148.522L497.975 126.923L535.24 105.417ZM497.048 127.479L534.499 149.078L497.234 170.584L459.784 148.985L497.048 127.479ZM458.857 149.449L496.307 171.047L459.042 192.553L421.592 170.955L458.857 149.449ZM420.665 171.511L458.115 193.11L420.85 214.616L383.4 193.017L420.665 171.511ZM420.016 215.172L382.751 236.678L345.301 215.079L382.566 193.573L420.016 215.172ZM344.374 215.635L381.824 237.234L344.56 258.74L307.11 237.141L344.374 215.635ZM306.275 237.605L343.725 259.204L306.461 280.71L269.011 259.111L306.275 237.605ZM268.084 259.667L305.534 281.266L268.269 302.772L230.819 281.173L268.084 259.667ZM229.892 281.729L267.342 303.328L230.077 324.834L192.627 303.235L229.892 281.729ZM191.7 303.699L229.15 325.297L191.886 346.803L154.435 325.205L191.7 303.699ZM153.601 325.761L191.051 347.36L153.787 368.958L116.336 347.36L153.601 325.761ZM115.409 347.823L152.86 369.422L115.595 390.928L78.1447 369.329L115.409 347.823ZM77.2177 369.885L114.668 391.484L77.4031 412.99L39.953 391.391L77.2177 369.885ZM1.85397 413.361L39.1187 391.855L76.5688 413.454L39.3041 434.96L1.85397 413.361ZM40.2311 435.516L77.4958 414.01L114.946 435.701L77.6812 457.207L40.2311 435.516ZM78.7009 457.763L115.966 436.257L153.416 457.856L116.151 479.362L78.7009 457.763ZM117.078 479.918L154.343 458.412L191.793 480.011L154.528 501.517L117.078 479.918ZM155.455 502.073L192.72 480.567L230.17 502.166L192.905 523.672L155.455 502.073ZM193.832 524.228L231.097 502.722L268.547 524.321L231.282 545.827L193.832 524.228ZM232.302 546.383L269.567 524.877L307.017 546.476L269.752 568.074L232.302 546.383ZM270.679 568.538L307.944 547.032L345.394 568.631L308.129 590.137L270.679 568.538ZM309.056 590.785L346.321 569.279L383.771 590.878L346.506 612.384L309.056 590.785ZM347.433 612.94L384.698 591.434L422.148 613.033L384.883 634.539L347.433 612.94ZM385.903 635.095L423.168 613.589L460.618 635.188L423.353 656.694L385.903 635.095ZM424.28 657.25L461.545 635.744L498.995 657.343L461.73 678.849L424.28 657.25ZM462.657 679.405L499.922 657.899L537.372 679.498L500.107 701.004L462.657 679.405ZM501.034 701.653L538.299 680.147L575.749 701.745L538.577 723.251L501.034 701.653ZM539.504 723.808L576.769 702.302L614.219 723.9L576.954 745.406L539.504 723.808ZM577.881 745.963L615.146 724.456L652.596 746.055L615.331 767.561L577.881 745.963ZM616.258 768.117L653.523 746.611L690.973 768.21L653.709 789.716L616.258 768.117ZM692.178 811.964L654.728 790.365L691.993 768.859L729.443 790.458L692.178 811.964ZM730.37 789.901L692.92 768.303L730.185 746.797L767.635 768.396L730.37 789.901ZM768.469 767.839L731.019 746.241L768.284 724.735L805.734 746.333L768.469 767.839ZM806.661 745.87L769.211 724.271L806.475 702.765L843.926 724.364L806.661 745.87ZM844.853 723.808L807.402 702.209L844.667 680.703L882.117 702.302L844.853 723.808ZM882.952 701.745L845.501 680.147L882.766 658.641L920.216 680.239L882.952 701.745ZM921.143 679.776L883.693 658.177L920.958 636.671L958.408 658.27L921.143 679.776ZM959.335 657.714L921.885 636.115L959.15 614.609L996.6 636.208L959.335 657.714ZM959.984 614.053L997.249 592.547L1034.7 614.145L997.434 635.651L959.984 614.053Z" fill="url(#paint0_radial)"/>
<path d="M879.242 415.956L584.554 248.821C581.495 247.06 577.694 247.06 574.635 248.914L482.493 302.679C481.659 303.143 434.661 294.243 434.105 294.8C432.343 295.541 430.86 297.117 430.397 299.249C429.377 303.791 431.324 310.188 435.31 312.412L702.93 472.317C702.93 472.317 740.936 493.081 752.153 499.2C754.099 500.219 756.417 500.219 758.271 499.107L879.242 432.086C885.453 428.471 885.453 419.479 879.242 415.956Z" fill="url(#paint1_linear)"/>
<path d="M800.45 405.296C800.45 405.296 799.06 410.58 802.212 410.58C805.363 410.58 814.355 411.136 815.746 405.203C817.136 399.363 813.613 379.433 813.613 379.433L800.45 405.296Z" fill="#41E4FE"/>
<path d="M805.548 387.684C805.548 387.684 799.522 402.515 800.542 406.779C800.542 406.779 814.169 410.209 814.354 400.939C814.539 391.577 814.354 378.599 814.354 378.599L805.548 387.684Z" fill="#2CA7D1" stroke="#41E4FE" stroke-miterlimit="10"/>
<path d="M781.725 334.104L669.096 353.107C667.335 352.087 669.096 305.182 669.096 303.235V179.575L710.347 161.777L784.32 163.817L781.725 334.104Z" fill="url(#paint2_linear)"/>
<path d="M784.229 163.817L717.115 202.843C714.056 204.604 710.348 204.604 707.289 202.843L670.859 181.708C669.098 180.688 669.098 180.225 669.098 178.185L739.178 137.398L784.229 163.817Z" fill="url(#paint3_linear)"/>
<path d="M818.251 254.105C818.251 254.105 826.408 270.328 821.866 298.786C817.324 327.244 820.939 334.104 821.68 343.93C822.422 353.756 819.178 391.67 819.178 391.67C819.178 391.67 809.63 399.086 803.326 390.835C803.326 390.835 803.79 329.284 802.955 322.239C802.121 315.194 800.452 306.295 800.452 306.295C800.452 306.295 796.93 314.916 796.93 326.225C796.93 337.534 794.334 373.686 794.334 373.686C794.334 373.686 784.138 377.765 776.073 373.964C776.073 373.964 778.483 310.373 776.722 297.488C774.96 284.603 775.98 242.611 775.98 242.611L818.251 254.105Z" fill="#2CA7D1" stroke="#41E4FE" stroke-miterlimit="10"/>
<path d="M749.004 240.571C749.004 240.571 747.243 242.889 746.779 243.63C746.316 244.465 744.925 244.928 744.462 245.299C743.905 245.67 743.257 247.246 741.681 248.636C740.568 249.656 739.641 250.768 739.271 251.232C739.178 251.417 739.085 251.51 739.085 251.51C739.085 251.51 739.085 251.602 739.085 251.695C739.085 251.88 739.085 252.344 739.178 252.622C739.178 253.086 738.622 253.734 738.529 254.013C738.436 254.291 738.065 255.31 737.324 255.403C736.675 255.496 735.748 255.125 735.099 254.476C734.45 253.827 733.152 252.251 732.596 251.788C732.04 251.324 729.63 249.748 729.63 249.192C729.63 248.729 730.279 245.021 730.372 244.094C730.372 244.001 730.372 243.908 730.372 243.908C730.372 243.908 729.166 244.001 728.796 244.372C728.425 244.743 726.756 246.226 725.922 246.597C725.273 246.875 724.532 246.689 724.346 246.133C724.253 245.948 724.253 245.762 724.346 245.577C724.717 244.65 728.147 241.406 728.981 240.757C729.908 240.108 734.079 237.42 735.006 237.049C735.933 236.678 741.866 235.936 742.422 235.844C742.979 235.751 743.813 235.102 744.462 235.102C746.038 235.102 746.779 235.844 748.17 236.956C749.653 238.068 749.004 240.571 749.004 240.571Z" fill="#2CA7D1" stroke="#41E4FE" stroke-miterlimit="10"/>
<path d="M739.92 244.187C739.549 244.928 737.788 246.226 737.51 247.338C737.232 248.451 737.139 250.305 737.788 250.768C738.529 251.232 739.178 251.232 739.178 251.232L739.271 251.602L738.622 251.695L737.51 252.715C737.51 252.715 736.861 252.622 736.212 252.251C735.47 251.881 734.636 250.49 734.636 250.49C734.636 250.49 734.636 249.749 734.636 249.1C734.636 248.451 733.616 247.338 733.616 247.338L733.987 246.504V244.743L734.543 243.723L736.397 241.869L735.841 241.776C735.841 241.776 734.173 242.982 733.431 243.074C732.597 243.167 731.577 243.538 730.465 244.001C730.372 244.001 730.279 244.094 730.279 244.094C730.279 244.001 730.279 243.909 730.279 243.909C730.279 243.909 729.074 244.001 728.703 244.372C728.333 244.743 726.664 246.226 725.83 246.597C725.181 246.875 724.439 246.689 724.254 246.133C724.81 246.319 725.552 246.041 725.922 245.67C726.479 245.114 728.147 243.816 729.445 243.074C730.743 242.333 731.855 242.24 733.246 241.962C734.729 241.684 737.046 240.386 738.344 239.459C738.344 239.459 738.159 239.922 738.159 240.571C738.159 241.128 738.622 241.776 739.456 242.425C740.383 243.167 740.291 243.445 739.92 244.187Z" fill="#41E4FE"/>
<path d="M858.852 230.468C858.852 230.468 843.927 199.784 838.829 193.295C838.273 192.554 837.717 191.998 837.253 191.534C834.194 187.085 830.208 183.284 825.573 180.503L796.095 165.671L787.011 166.876C779.595 171.326 776.628 180.132 775.609 189.309C772.086 199.97 767.915 212.206 767.266 215.914C767.08 215.914 766.895 216.007 766.895 216.007C766.524 216.099 747.892 229.262 745.76 231.394C743.628 233.527 739.549 236.122 741.032 240.294C742.515 244.372 743.906 246.504 747.243 245.114C750.58 243.723 767.266 236.029 773.106 231.302C773.847 230.746 774.496 230.097 775.145 229.541V247.061C775.145 247.061 775.794 258.092 822.051 265.971L825.202 270.699L847.357 249.841C847.543 249.656 847.728 249.471 847.913 249.285C848.47 248.822 848.933 248.358 849.304 247.895C851.807 245.114 853.568 242.704 854.773 240.757C859.686 235.937 858.852 230.468 858.852 230.468ZM823.997 250.583L822.421 251.881C822.421 241.221 823.534 227.408 828.169 220.549L837.717 236.771C833.731 240.664 827.056 247.246 823.997 250.583Z" fill="#2CA7D1" stroke="#41E4FE" stroke-miterlimit="10"/>
<path d="M795.075 174.941C795.075 174.941 782.098 169.843 781.449 253.642L802.584 261.799C802.584 261.799 798.876 181.059 818.065 176.795L799.896 167.71L795.075 174.941Z" stroke="#41E4FE" stroke-miterlimit="10"/>
<path d="M796.743 180.596L801.193 189.587L818.064 176.795L804.159 169.75L795.075 174.941L792.572 175.775L790.254 178.834L788.215 183.84L796.743 180.596Z" stroke="#41E4FE" stroke-miterlimit="10"/>
<path d="M791.832 184.118L797.764 185.879L792.48 189.587L791.832 184.118Z" stroke="#41E4FE" stroke-miterlimit="10"/>
<path d="M785.899 229.54L790.905 222.773L792.481 189.587L784.602 221.475L785.899 229.54Z" stroke="#41E4FE" stroke-miterlimit="10"/>
<path d="M818.435 258.277C818.435 258.277 820.66 256.515 822.328 257.071C823.904 257.628 826.963 259.111 825.758 262.541C824.553 266.063 822.05 264.024 818.25 269.678C814.542 275.333 811.946 280.061 811.946 280.061L803.418 281.637C803.418 281.637 799.895 278.948 796.28 278.299C792.665 277.651 791.46 276.631 792.943 275.704C794.333 274.87 797.114 275.704 797.114 275.704C797.114 275.704 798.69 274.684 801.286 275.055C801.286 275.055 802.305 273.386 806.013 272.367C806.013 272.367 806.848 270.884 808.516 270.513L807.96 268.566C807.96 268.566 809.999 267.361 810.834 267.268C810.834 267.268 808.331 267.361 807.033 268.751C805.735 270.142 802.584 270.976 801.378 269.678C800.173 268.473 801.1 267.268 801.1 267.268C801.1 267.268 804.159 265.229 804.345 265.229C804.53 265.229 806.662 263.931 807.033 263.004C807.404 262.077 812.41 258.925 814.078 259.111C815.747 259.296 818.435 258.277 818.435 258.277Z" fill="#2CA7D1" stroke="#41E4FE" stroke-miterlimit="10"/>
<path d="M803.79 273.758L802.121 273.294C802.121 273.294 801.287 270.606 799.433 270.699L798.691 271.255C798.691 271.255 798.691 271.626 799.525 273.109L800.082 274.407C800.082 274.407 799.34 274.221 798.784 274.128C798.784 274.128 797.393 271.904 796.466 271.718C795.539 271.533 795.076 271.162 794.612 271.811L794.705 272.367L795.818 273.85C795.818 273.85 793.5 272.831 792.666 273.294C791.832 273.758 791.832 274.407 791.832 274.407L794.52 276.168L801.472 275.982L803.79 273.758Z" fill="#2CA7D1" stroke="#41E4FE" stroke-miterlimit="10"/>
<path d="M792.664 166.134L792.849 175.682C792.849 175.682 794.518 180.781 801.656 180.595C808.794 180.41 809.906 175.404 809.906 175.404V163.168L792.664 166.134Z" fill="#2CA7D1" stroke="#41E4FE" stroke-miterlimit="10"/>
<path d="M806.94 163.817C806.94 163.817 816.766 161.871 818.342 151.21C819.918 140.55 818.064 128.499 801.378 131.744C784.6 134.895 806.94 163.817 806.94 163.817Z" fill="#2CA7D1" stroke="#41E4FE" stroke-miterlimit="10"/>
<path d="M811.206 162.241C811.206 162.241 816.304 158.44 814.45 155.474C812.596 152.508 809.167 155.474 809.167 155.474L808.796 145.185L786.641 145.092L784.602 156.772L785.807 169.935C785.807 173.179 788.773 175.59 791.925 174.941L802.585 172.809C807.591 171.696 811.206 167.339 811.206 162.241Z" fill="#2CA7D1" stroke="#41E4FE" stroke-miterlimit="10"/>
<path d="M808.89 147.966C808.89 147.966 808.797 145.37 802.215 146.39C795.634 147.41 789.794 149.634 785.808 145.092C781.822 140.55 784.232 125.069 806.943 131.465C811.671 132.856 814.637 137.491 814.081 141.384C813.525 145.834 808.89 147.966 808.89 147.966Z" fill="#2CA7D1" stroke="#41E4FE" stroke-miterlimit="10"/>
<path d="M787.103 158.997C789.253 158.997 790.997 156.756 790.997 153.991C790.997 151.226 789.253 148.985 787.103 148.985C784.953 148.985 783.21 151.226 783.21 153.991C783.21 156.756 784.953 158.997 787.103 158.997Z" stroke="#41E4FE" stroke-miterlimit="10"/>
<path d="M796.096 163.724C798.451 163.724 800.36 161.483 800.36 158.719C800.36 155.954 798.451 153.713 796.096 153.713C793.741 153.713 791.832 155.954 791.832 158.719C791.832 161.483 793.741 163.724 796.096 163.724Z" stroke="#41E4FE" stroke-miterlimit="10"/>
<path d="M788.215 160.017C788.215 160.017 788.215 162.983 790.996 161.871" stroke="#41E4FE" stroke-miterlimit="10"/>
<path d="M758.184 391.577C758.184 391.577 759.203 400.29 781.729 386.478L785.808 384.81L792.297 382.956C792.297 382.956 794.707 370.163 790.906 368.587C787.013 367.011 758.184 391.577 758.184 391.577Z" fill="#41E4FE"/>
<path d="M758.18 391.577C758.18 391.577 773.197 392.226 787.843 374.521L775.144 375.169C775.144 375.077 753.267 390.094 758.18 391.577Z" fill="#2CA7D1" stroke="#41E4FE" stroke-miterlimit="10"/>
<path d="M702.375 354.312V466.013L793.034 417.532V331.137L702.375 354.312Z" fill="url(#paint4_linear)"/>
<path d="M432.715 307.5L702.375 466.014V354.312L432.715 216.562V307.5Z" fill="#6461D7"/>
<path d="M699.965 176.053L678.738 186.065C677.903 186.528 671.229 182.635 670.765 181.8L662.701 167.896C652.967 151.673 669.004 143.053 669.004 143.053C674.288 139.993 683.002 140.642 686.061 145.926L700.614 173.55C701.078 174.477 700.8 175.59 699.965 176.053Z" fill="#5C25DA"/>
<path d="M703.397 175.775L684.301 186.806C681.983 188.104 679.11 187.362 677.719 185.045L667.8 167.803C659.272 153.62 674.382 144.628 674.382 144.628C678.09 143.238 683.466 142.125 687.452 147.409L703.489 175.219C703.582 175.497 703.582 175.682 703.397 175.775Z" fill="#21006C"/>
<path d="M818.061 343.003L717.205 400.754L421.498 233.155C413.896 228.891 413.804 217.953 421.405 213.596L513.547 159.831C516.606 158.07 520.314 158.07 523.466 159.738L818.154 326.873C824.272 330.396 824.272 339.388 818.061 343.003Z" fill="url(#paint5_linear)"/>
<path d="M618.484 209.98C618.206 211.834 617.742 213.781 617 215.82C613.107 226.666 603.837 235.194 596.329 234.824C593.733 234.731 591.694 233.526 590.303 231.579C590.025 231.208 589.84 230.838 589.654 230.467C589.006 235.102 589.654 239.088 591.601 241.683C592.992 243.63 595.031 244.835 597.627 244.928C605.135 245.299 614.405 236.77 618.298 225.925C620.523 219.528 620.43 213.688 618.484 209.98Z" fill="#21006C"/>
<path d="M718.69 400.568C717.856 400.754 716.929 400.661 716.187 400.198L666.13 372.852L420.387 232.784C416.401 230.56 414.454 224.163 415.474 219.621C416.401 215.45 421.128 213.41 424.929 215.542L718.227 383.605C723.974 386.849 725.179 398.9 718.69 400.568Z" fill="#6666CC" stroke="#00FAFF" stroke-miterlimit="10"/>
<path d="M825.293 270.698L816.301 256.052L830.02 252.714L825.293 270.698Z" fill="#2CA7D1"/>
<path d="M825.293 270.698L816.301 256.051L822.419 251.88" stroke="#41E4FE" stroke-miterlimit="10"/>
<path d="M729.256 1.50204L586.315 99.2988C573.152 107.364 584.554 129.704 601.889 117.282L592.897 107.92L733.335 7.15663C743.532 0.945843 748.816 9.19599 747.24 18.4658C749.835 8.4544 738.711 -4.43065 729.256 1.50204Z" fill="#20CFFA"/>
<path d="M733.335 7.15642L592.712 101.06C579.456 109.681 586.779 125.161 600.406 118.209L737.692 32.5558C742.234 29.7748 745.664 25.418 746.962 20.3196C747.147 19.6707 747.24 19.1145 747.333 18.4656C748.816 9.19578 743.532 0.945628 733.335 7.15642ZM740.102 21.7101C738.526 25.8815 734.54 28.3843 731.11 28.0135C727.681 27.6427 726.105 23.4713 727.773 19.2999C729.349 15.1285 732.964 12.0694 736.302 12.4402C739.639 12.811 741.678 17.5386 740.102 21.7101Z" fill="#531BBA"/>
<path d="M608.473 195.89C605.97 193.387 603.096 191.719 600.408 191.163C597.905 191.904 595.402 193.202 592.899 194.871C591.601 197.744 591.509 201.916 593.085 206.55C597.72 201.267 603.189 197.373 608.473 195.89Z" fill="#606060"/>
<path opacity="0.51" d="M592.066 197.651C592.159 197.281 592.252 196.817 592.344 196.446C592.159 196.91 592.159 197.281 592.066 197.651Z" fill="#BCD1EE"/>
<path d="M591.879 200.154C591.879 202.101 592.25 204.326 592.992 206.643C592.25 204.326 591.879 202.101 591.879 200.154Z" fill="#6B7587"/>
<path d="M592.344 196.447C592.436 196.168 592.529 195.798 592.622 195.52C592.529 195.89 592.436 196.168 592.344 196.447Z" fill="#6B7587"/>
<path d="M593.267 207.292C593.175 207.014 593.082 206.829 593.082 206.644C593.082 206.829 593.175 207.107 593.267 207.292C594.751 211.464 597.161 215.079 599.849 217.767C599.849 217.767 599.849 217.767 599.942 217.767C597.161 214.986 594.751 211.371 593.267 207.292Z" fill="#606060"/>
<path d="M592.065 197.651C592.065 197.837 591.972 198.023 591.972 198.208C591.972 198.023 591.972 197.837 592.065 197.651Z" fill="#606060"/>
<path d="M591.879 200.154C591.879 202.101 592.25 204.326 592.992 206.643C592.25 204.326 591.879 202.101 591.879 200.154Z" fill="#606060"/>
<path d="M615.33 195.242C614.959 195.149 614.496 195.149 614.125 195.149C602.816 194.593 588.819 207.385 582.886 223.793C578.992 234.453 579.549 244.001 583.535 249.471C585.667 252.344 588.726 254.198 592.619 254.384C603.928 254.94 617.926 242.147 623.858 225.74C629.513 209.981 625.712 196.725 615.33 195.242ZM618.204 225.925C614.311 236.771 605.041 245.299 597.532 244.928C594.937 244.836 592.897 243.631 591.507 241.684C588.818 238.069 588.54 231.672 591.043 224.627C591.878 222.217 593.083 219.9 594.38 217.768C592.712 215.45 591.229 212.947 590.024 210.352L592.99 206.644C593.083 206.922 593.175 207.107 593.268 207.385C594.195 209.888 595.4 212.206 596.883 214.245C601.333 208.869 606.895 205.346 611.715 205.624C611.993 205.624 612.271 205.624 612.549 205.717C619.409 206.644 622.005 215.45 618.204 225.925Z" fill="#3D0E9A"/>
<path d="M600.315 224.256V218.045C600.223 217.952 600.037 217.86 599.945 217.674C599.945 217.674 599.945 217.674 599.852 217.674C598.832 216.655 597.813 215.45 596.886 214.152C595.959 215.264 595.124 216.377 594.383 217.674C596.144 220.27 598.183 222.495 600.315 224.256Z" fill="#24CFFF"/>
<path d="M593.268 207.385C593.175 207.107 593.082 206.922 592.99 206.644L590.023 210.351C591.229 213.04 592.712 215.543 594.38 217.767C595.122 216.562 595.956 215.357 596.883 214.245C595.4 212.205 594.195 209.888 593.268 207.385Z" fill="#3D0E9A"/>
<path d="M621.542 205.531C616.814 192.461 605.598 182.171 596.513 182.542C596.143 182.542 595.865 182.635 595.494 182.635C588.819 183.562 585.482 190.607 586.78 199.877C587.244 199.413 587.707 199.042 588.171 198.579C589.654 197.188 591.23 195.891 592.805 194.871C592.805 194.871 592.898 194.871 592.898 194.778C593.084 194.407 593.362 193.944 593.547 193.573C594.659 191.997 596.328 191.07 598.367 190.977C598.924 190.977 599.48 190.978 600.129 191.07C600.221 191.07 600.221 191.07 600.314 190.977C603.002 191.441 605.876 193.202 608.379 195.705C611.16 198.393 613.57 202.009 614.96 206.087C617 211.742 616.722 216.84 614.59 219.807C613.477 221.29 611.901 222.217 609.862 222.402V229.54C611.16 229.818 612.365 230.003 613.57 229.911C616.722 229.725 619.225 228.335 620.893 226.017C624.23 221.753 624.694 214.059 621.542 205.531Z" fill="#24CFFF"/>
<path d="M592.991 206.644C597.718 201.36 603.095 197.467 608.379 195.891C605.783 193.388 602.909 191.719 600.221 191.256C597.811 191.997 595.401 193.203 592.991 194.871C592.898 195.057 592.805 195.242 592.713 195.52C592.805 195.335 592.805 195.149 592.898 194.964C592.898 194.964 590.488 196.725 588.263 198.672C587.799 199.135 587.336 199.506 586.872 199.97C586.594 200.248 586.409 200.526 586.131 200.711C586.131 200.711 586.131 200.804 586.038 200.804C581.403 205.717 577.417 212.02 574.914 218.973C570.836 230.096 571.67 240.015 576.12 245.392C577.973 247.616 587.151 252.808 587.151 252.808C583.165 247.338 578.993 234.453 582.886 223.793C584.648 218.88 587.151 214.338 590.024 210.352C590.951 209.054 591.971 207.756 592.991 206.644Z" fill="#6461D7"/>
<path d="M608.473 195.89C605.97 193.387 603.096 191.719 600.408 191.163C600.315 191.163 600.315 191.163 600.223 191.255C602.911 191.626 605.785 193.387 608.473 195.89C608.38 195.89 608.38 195.89 608.473 195.89Z" fill="#6461D7"/>
<path d="M592.899 194.871C592.714 195.056 592.714 195.335 592.621 195.52C592.714 195.242 592.807 195.056 592.899 194.871Z" fill="#6461D7"/>
<path d="M588.265 198.671C587.802 199.135 587.338 199.506 586.875 199.969C587.338 199.506 587.802 199.042 588.265 198.671Z" fill="#6461D7"/>
<path d="M592.99 206.644C591.97 207.849 590.95 209.054 590.023 210.351L592.99 206.644Z" fill="#6461D7"/>
<path d="M621.54 205.532C616.812 192.461 605.596 182.172 596.511 182.635C596.14 182.635 591.32 184.674 590.949 184.674C590.949 184.674 596.975 180.966 597.902 180.41C599.292 179.483 600.961 178.927 602.815 178.834C611.899 178.371 623.116 188.66 627.843 201.731C631.088 210.63 630.439 218.602 626.916 222.959C625.433 224.72 618.11 228.891 618.11 228.891C621.262 224.442 624.691 214.06 621.54 205.532Z" fill="#531BBA"/>
<path d="M608.75 179.576V142.96H598.461V180.039C598.461 180.41 598.553 180.874 598.739 181.244C599.573 183.098 602.539 184.118 605.228 183.469C607.638 182.913 609.028 181.244 608.75 179.576Z" fill="url(#paint6_linear)"/>
<path d="M756.05 21.1541L741.496 13.5529C734.822 10.0303 726.572 13.5529 724.44 20.876L673.178 155.567C669.099 165.671 696.352 175.126 696.352 175.126L740.477 41.3624L756.05 21.1541Z" fill="url(#paint7_linear)"/>
<path d="M762.627 36.8198L723.045 177.258L693.289 169.749L740.472 41.3621C740.472 41.4547 749.001 43.8649 762.627 36.8198Z" fill="url(#paint8_linear)"/>
<path d="M731.112 193.202L709.884 203.213C709.05 203.677 702.375 199.784 701.912 198.949L693.847 185.045C684.114 168.822 700.15 160.201 700.15 160.201C705.434 157.142 714.148 157.791 717.207 163.075L731.761 190.699C732.224 191.626 731.946 192.739 731.112 193.202Z" fill="#5C25DA"/>
<path d="M734.542 192.924L711.645 206.18C711.46 206.272 711.182 206.18 711.089 205.994L698.945 184.952C690.417 170.769 705.527 161.777 705.527 161.777C709.235 160.387 714.611 159.274 718.597 164.558L734.634 192.368C734.82 192.553 734.727 192.831 734.542 192.924Z" fill="#21006C"/>
<path opacity="0.4" d="M717.579 174.57C716.466 179.575 712.851 183.747 708.958 184.025C705.064 184.21 701.82 179.112 702.932 174.013C704.045 169.008 708.216 165.393 712.11 165.207C716.003 165.022 718.691 169.564 717.579 174.57Z" fill="#00FFFF"/>
<path opacity="0.4" d="M717.578 175.311C716.558 179.946 713.314 183.84 709.791 184.025C706.269 184.21 703.395 179.946 704.415 175.311C705.434 170.676 709.142 166.783 712.665 166.598C716.28 166.412 718.597 170.584 717.578 175.311Z" fill="#00FFFF"/>
<path d="M613.939 103.841C613.939 103.1 613.754 102.266 613.476 101.524C611.715 97.7234 605.967 95.684 600.591 96.9818C596.327 98.0015 593.546 100.875 593.453 103.841V158.626C593.453 159.368 593.546 160.202 593.917 160.944C595.678 164.744 601.425 166.784 606.802 165.486C611.066 164.466 613.847 161.593 613.939 158.626V103.841Z" fill="url(#paint9_linear)"/>
<path d="M750.764 13.9239L607.36 112.091C594.011 120.805 606.804 141.755 622.933 130.075L613.941 120.712L754.936 19.5785C765.132 13.275 770.416 21.6179 768.933 30.8877C771.436 20.8763 760.312 7.99122 750.764 13.9239Z" fill="#20CFFA"/>
<path d="M754.843 19.5778L613.664 113.852C600.408 123.029 610.141 137.675 621.358 131.001L759.2 45.0698C763.742 42.2889 767.172 37.9321 768.47 32.741C768.655 32.0921 768.748 31.5359 768.841 30.887C770.417 21.6172 765.04 13.367 754.843 19.5778ZM762.166 31.9994C760.683 35.8 757.068 38.581 754.009 38.3029C751.599 38.1175 750.208 35.5219 750.486 32.4629C750.579 31.9067 750.765 31.4432 750.95 30.887C752.526 26.8083 755.956 23.7492 759.293 24.0273C761.981 24.7689 763.464 28.3841 762.166 31.9994Z" fill="#531BBA"/>
<path d="M622.747 123.123C621.727 126.46 619.039 129.148 616.351 129.055C613.662 128.963 611.716 125.718 612.735 122.381C613.755 119.044 616.814 116.448 619.502 116.448C622.191 116.448 623.766 119.785 622.747 123.123Z" fill="#2ACCF3"/>
<path d="M672.988 325.483C672.988 325.483 702.374 325.761 736.95 325.576C758.178 325.483 781.909 320.848 802.117 318.438L719.708 270.698L672.988 325.483Z" fill="url(#paint10_linear)"/>
<path d="M642.399 270.142C651.113 246.133 671.599 227.408 688.192 228.149C688.841 228.149 697.74 231.765 698.389 231.857C698.389 231.857 687.265 225.09 685.597 223.978C683.094 222.309 680.035 221.29 676.605 221.104C660.012 220.27 639.526 239.088 630.812 263.097C624.879 279.412 625.992 293.965 632.573 301.845C635.262 305.089 648.703 312.69 648.703 312.69C642.863 304.626 636.745 285.808 642.399 270.142Z" fill="url(#paint11_linear)"/>
<path d="M689.955 228.335C689.399 228.242 688.75 228.15 688.194 228.15C671.601 227.315 651.115 246.133 642.401 270.142C636.746 285.808 637.488 299.806 643.328 307.87C646.387 312.134 650.929 314.73 656.676 315.008C673.269 315.842 693.756 297.025 702.469 273.016C710.812 249.934 705.158 230.467 689.955 228.335Z" fill="url(#paint12_linear)"/>
<path d="M660.012 280.802C668.726 256.794 689.212 238.068 705.805 238.81C706.454 238.81 715.353 242.425 716.002 242.518C716.002 242.518 704.878 235.751 703.21 234.639C700.707 232.97 697.648 231.95 694.218 231.765C677.625 230.931 657.139 249.748 648.425 273.757C642.492 290.072 643.605 304.626 650.186 312.505C652.875 315.75 666.316 323.351 666.316 323.351C660.383 315.286 654.265 296.468 660.012 280.802Z" fill="url(#paint13_linear)"/>
<path d="M707.568 238.995C707.012 238.903 706.363 238.81 705.807 238.81C689.214 237.976 668.728 256.793 660.014 280.802C654.36 296.468 655.101 310.466 660.941 318.53C664 322.795 668.542 325.39 674.29 325.668C690.883 326.503 711.369 307.685 720.083 283.676C728.426 260.594 722.771 241.127 707.568 238.995Z" fill="url(#paint14_linear)"/>
<path d="M677.254 285.344C683.001 269.4 696.721 256.886 707.752 257.35C708.123 257.35 714.148 259.76 714.519 259.852C714.519 259.852 707.103 255.403 705.991 254.569C704.322 253.456 702.283 252.807 700.058 252.715C689.027 252.158 675.308 264.673 669.56 280.71C665.574 291.648 666.316 301.289 670.765 306.572C672.527 308.704 681.518 313.803 681.518 313.803C677.532 308.426 673.454 295.819 677.254 285.344Z" fill="url(#paint15_linear)"/>
<path d="M708.957 257.535C708.586 257.442 708.123 257.442 707.752 257.442C696.721 256.886 683.001 269.4 677.254 285.437C673.454 295.912 674.01 305.182 677.903 310.558C679.942 313.432 683.002 315.1 686.802 315.286C697.833 315.842 711.553 303.328 717.3 287.291C722.862 271.903 719.154 258.925 708.957 257.535Z" fill="url(#paint16_linear)"/>
<path d="M694.589 291.833C698.204 281.729 706.639 273.85 713.592 274.128C714.611 274.221 715.446 274.406 716.28 274.777C714.241 273.572 709.606 270.883 709.049 270.513C708.03 269.864 706.732 269.4 705.342 269.308C698.389 268.937 689.861 276.723 686.246 286.55C683.743 293.224 684.206 299.249 686.987 302.494C688.007 303.699 694.31 307.407 695.145 307.87C692.642 304.533 692.271 298.508 694.589 291.833Z" fill="url(#paint17_linear)"/>
<path d="M717.114 275.333C717.114 275.333 716.557 274.869 716.279 274.777C715.445 274.406 714.611 274.22 713.591 274.128C706.731 273.757 698.203 281.729 694.588 291.833C692.271 298.415 692.549 304.255 694.959 307.592L695.237 307.87C695.422 307.963 697.554 308.704 698.481 308.704C705.341 309.075 713.869 301.103 717.484 290.999C719.802 284.603 719.431 278.763 717.114 275.333Z" fill="url(#paint18_linear)"/>
<path d="M715.907 302.771C718.781 294.614 725.641 288.31 731.11 288.588C731.851 288.588 732.593 288.774 733.242 289.052C731.666 288.125 718.41 280.616 717.947 280.246C717.112 279.689 716.093 279.319 714.98 279.319C709.418 279.04 702.559 285.251 699.685 293.131C697.738 298.507 698.109 303.327 700.241 305.923C701.076 306.943 715.629 315.193 716.371 315.564C714.239 312.968 713.961 308.148 715.907 302.771Z" fill="url(#paint19_linear)"/>
<path d="M751.319 304.533L740.288 285.252C740.102 284.788 739.824 284.325 739.546 283.954L739.453 283.861C738.99 283.305 738.526 282.841 737.97 282.471C732.686 279.319 722.675 286.271 715.722 298.044C708.77 309.817 707.287 321.867 712.571 325.019C713.127 325.39 713.868 325.575 714.517 325.668C714.981 325.761 715.537 325.761 716.093 325.668L738.341 326.132L751.319 304.533Z" fill="url(#paint20_linear)"/>
<path d="M736.949 325.668C733.427 323.536 733.519 316.954 737.227 310.836C740.935 304.718 746.682 301.474 750.205 303.513C753.728 305.645 753.635 312.227 749.927 318.345C746.219 324.463 740.472 327.707 736.949 325.668Z" fill="url(#paint21_linear)"/>
<path d="M858.941 596.903L728.885 525.711L690.694 547.773L576.489 480.752L504.277 522.374" stroke="url(#paint22_linear)" stroke-miterlimit="10"/>
<path d="M446.157 462.027L498.717 435.886L392.948 368.587L432.716 346.896L374.223 310.188" stroke="url(#paint23_linear)" stroke-miterlimit="10"/>
<path d="M866.172 501.795L970.736 441.448L1020.89 469.35L916.785 530.717L866.172 501.795Z" fill="url(#paint24_linear)"/>
<path d="M930.228 511.158V516.627C930.228 516.627 924.944 519.222 918.641 518.203C912.337 517.183 911.689 515.978 911.689 515.978V513.29C911.689 513.29 900.75 513.475 892.778 509.86C884.806 506.245 886.289 497.16 889.07 495.492C891.944 493.823 930.228 511.158 930.228 511.158Z" fill="#5650CC"/>
<path d="M953.679 493.73L953.772 500.219C953.772 500.219 945.8 502.166 942.741 499.756C939.589 497.346 935.047 492.247 934.583 492.247C934.12 492.247 925.406 492.247 925.406 492.247L928.651 480.289L953.679 493.73Z" fill="#5650CC"/>
<path d="M908.166 493.823C908.166 493.823 897.228 493.638 891.944 493.823C886.66 494.009 884.806 506.801 898.248 509.489C911.689 512.177 912.709 512.548 915.397 513.753C918.085 514.958 924.203 515.978 930.229 511.158C930.229 511.158 931.248 498.736 927.818 498.922C924.389 499.107 908.166 493.823 908.166 493.823Z" fill="#07007F"/>
<path d="M950.9 483.812C950.9 483.812 954.422 482.421 953.68 493.73C953.68 493.73 951.085 496.326 943.854 496.233C936.531 496.048 938.2 489.744 929.115 490.022C920.031 490.3 924.48 476.025 924.48 476.025C924.48 476.025 931.804 477.601 933.843 476.674C935.79 475.747 950.9 483.812 950.9 483.812Z" fill="#07007F"/>
<path d="M925.869 264.951C925.869 264.951 921.698 269.307 919.195 270.049C916.692 270.791 908.627 276.167 907.237 280.802C907.237 280.802 903.992 326.688 903.158 335.123C902.416 343.559 902.416 358.669 902.695 365.065C902.973 371.461 957.943 358.576 957.943 358.576C957.943 358.576 957.943 342.354 957.943 329.005C957.943 317.047 970.179 295.541 968.881 279.69C967.583 263.838 959.426 260.779 955.069 260.501C955.069 260.501 953.401 255.125 945.985 257.164C938.383 259.389 925.869 264.951 925.869 264.951Z" fill="#8996CC"/>
<path d="M957.85 360.43C957.85 360.43 950.156 368.773 937.178 372.202C924.201 375.632 905.012 370.256 901.953 368.402C901.953 368.402 902.324 404.925 903.9 411.785C905.476 418.644 906.217 459.061 908.257 495.491C908.257 495.491 906.217 506.244 928.65 502.629C928.65 502.629 930.412 451.83 929.948 442.653C929.392 433.476 929.206 415.122 929.948 411.228C929.948 411.228 934.583 409.467 933.749 476.581C933.749 476.581 936.066 486.314 950.898 483.719C950.898 483.719 955.718 437.277 954.698 425.782C953.679 414.287 949.6 400.475 954.142 387.961C958.777 375.447 961.002 373.686 959.982 358.112L957.85 360.43Z" fill="#3729AA"/>
<path d="M936.623 380.546C936.623 380.546 928.094 383.883 919.195 381.566V384.532C919.195 384.532 930.968 386.293 936.623 382.956V380.546Z" fill="#5650CC"/>
<path d="M945.801 377.764V380.267C945.801 380.267 951.456 379.896 958.13 374.056V371.739C958.13 371.646 947.748 377.579 945.801 377.764Z" fill="#5650CC"/>
<path d="M965.36 267.453C965.36 267.453 964.526 290.999 955.812 304.811H950.899C950.899 304.811 962.394 278.114 959.335 261.799C959.242 261.706 965.175 263.282 965.36 267.453Z" fill="#3729AA"/>
<path d="M921.886 268.473C921.886 268.473 933.009 285.623 940.147 304.162L934.4 307.221C934.4 307.221 927.726 283.212 915.304 271.718C915.397 271.718 919.939 267.176 921.886 268.473Z" fill="#3729AA"/>
<path d="M901.953 369.607C901.953 369.607 934.768 386.2 960.168 360.708L960.26 367.104C960.26 367.104 943.667 388.61 902.046 374.984L901.953 369.607Z" fill="#07007F"/>
<path d="M922.628 373.964H920.496V381.565H922.628V373.964Z" fill="#3729AA"/>
<path d="M908.259 371.09C908.259 371.09 906.961 370.07 907.517 379.248L905.478 378.691C905.478 378.691 905.293 371.461 905.756 370.812L908.259 371.09Z" fill="#3729AA"/>
<path d="M944.505 370.72V377.857L942.373 378.321L942.188 371.739L944.505 370.72Z" fill="#3729AA"/>
<path d="M957.018 370.348L956.832 361.542L958.408 359.874L958.872 369.885L957.018 370.348Z" fill="#3729AA"/>
<path d="M913.82 235.936L802.582 284.046L799.152 115.984L915.952 218.972L913.82 235.936Z" fill="url(#paint25_linear)"/>
<path d="M903.531 259.759L903.902 262.448L907.888 264.765L908.259 264.951L910.484 263.931C910.484 263.931 913.821 261.428 914.47 260.501C915.119 259.574 915.489 258.184 915.86 257.906C916.231 257.627 917.899 256.793 918.456 256.422C919.012 255.959 921.329 254.754 921.329 254.754C921.329 254.754 921.7 255.125 922.164 255.31C922.627 255.495 923.554 254.846 923.461 254.476C923.461 254.105 922.534 253.178 922.534 253.085V252.992C922.627 252.807 922.72 252.529 922.349 251.602C921.886 250.582 921.051 250.675 921.051 250.675L920.866 249.933C920.866 249.933 920.495 248.914 919.753 248.728C919.012 248.636 917.807 248.543 917.807 248.543L918.826 247.338H919.846C919.846 247.338 920.866 247.523 921.607 246.782C922.256 245.947 921.885 245.206 921.515 244.928C921.051 244.65 919.29 244.093 918.363 244.093C917.529 244.093 915.489 245.299 915.211 245.484L917.714 243.074C917.714 243.074 920.68 240.756 920.959 240.478C921.237 240.2 922.349 239.551 922.349 238.532C922.349 237.512 921.978 237.697 921.607 237.697C921.237 237.697 916.324 240.2 915.675 240.478C915.026 240.664 908.444 246.504 907.981 247.06C907.517 247.709 903.717 257.535 903.531 259.759Z" fill="#FEC7C7"/>
<path d="M911.504 250.397C912.06 251.324 912.524 251.602 912.894 252.436C913.265 253.27 913.636 253.549 914.563 253.641C915.49 253.734 917.529 252.158 917.9 252.065C918.364 251.88 919.939 250.953 921.145 250.953C920.959 250.397 921.052 250.675 921.052 250.675L918.734 251.324L917.9 251.231L916.602 251.509L916.232 250.953L915.583 252.251C915.583 252.251 914.378 252.714 914.007 252.529C913.636 252.436 913.265 251.695 913.265 251.695C913.265 251.695 914.378 251.046 914.378 250.211C914.378 249.377 914.656 248.636 914.656 248.636H915.768L916.417 249.099L917.9 248.821L918.92 247.616H919.939C919.939 247.616 920.866 247.709 921.237 247.43C921.701 247.06 921.701 247.06 921.701 247.06C921.701 247.06 920.681 247.06 920.403 247.06C920.125 247.06 919.013 247.06 919.013 247.06L918.549 247.152C918.549 247.152 917.993 248.172 917.529 248.357C917.066 248.543 916.139 248.45 916.139 248.45L915.675 248.172L914.47 247.987L915.675 246.133L916.046 245.391L915.212 245.855L917.715 243.444L921.423 240.478L921.886 239.922H921.701L918.456 242.517C918.456 242.517 915.119 244.928 914.841 245.762C914.563 246.596 913.636 248.079 913.451 248.636C913.358 249.192 912.709 250.211 912.431 250.304C912.338 250.304 911.504 250.397 911.504 250.397Z" fill="#EF989A"/>
<path d="M907.887 264.765L908.257 264.951L910.482 263.931C910.482 263.931 913.819 261.428 914.468 260.501C915.117 259.574 915.488 258.184 915.859 257.906C916.23 257.628 917.898 256.793 918.454 256.423C919.01 255.959 921.328 254.754 921.328 254.754C921.328 254.754 921.699 255.125 922.162 255.31C922.626 255.496 923.553 254.847 923.46 254.476C923.46 254.105 922.533 253.178 922.533 253.085V252.993C922.255 253.363 921.513 254.012 921.513 254.012C921.513 254.012 920.216 255.032 918.084 256.237C916.044 257.349 914.654 258.091 914.468 258.462C914.283 258.833 912.892 260.965 912.058 261.706C911.317 262.448 909.277 263.004 908.721 263.56C908.536 263.838 908.165 264.302 907.887 264.765Z" fill="#FEC7C7"/>
<path d="M954.515 232.97C955.071 238.902 952.847 246.504 951.827 249.563C950.807 252.622 950.807 256.886 950.993 259.018C951.178 261.15 943.948 263.282 938.478 264.395C933.009 265.507 929.579 266.712 929.579 264.395C929.672 262.077 929.487 258.184 928.467 255.032C927.447 251.88 925.779 251.88 923.369 251.417C921.051 250.861 924.017 239.737 924.017 239.737L932.546 223.978L954.515 232.97Z" fill="url(#paint26_linear)"/>
<path d="M925.499 218.138C923.923 221.197 921.884 228.52 921.976 229.355C922.069 230.189 922.347 231.858 922.255 232.136C922.162 232.414 920.864 233.433 920.864 234.268C920.957 235.102 921.884 236.678 921.976 236.863C922.069 237.141 920.771 243.352 920.864 245.577C920.957 247.802 921.513 250.212 922.625 251.417C923.738 252.622 928.28 250.397 929.3 249.192C930.227 247.987 931.617 237.327 931.432 234.36C931.246 231.394 929.949 221.29 929.949 221.29L925.499 218.138Z" fill="#FEC7C7"/>
<path d="M878.593 296.839C877.759 296.746 874.978 296.839 874.978 296.839C874.978 296.839 872.012 296.561 872.012 298.23C872.012 299.805 872.846 300.269 873.309 300.362C873.773 300.454 877.666 300.454 877.666 300.454L878.593 296.839Z" fill="#FEC7C7"/>
<path d="M872.014 308.89C873.219 308.983 876.556 308.983 877.762 309.168C878.874 309.261 879.152 309.817 879.245 310.188C879.337 310.559 879.337 311.486 879.337 311.486C879.337 311.486 880.357 311.208 880.728 311.578C881.099 311.949 881.377 312.413 881.284 312.969C881.191 313.525 881.099 313.803 881.099 313.803C881.099 313.803 881.933 313.525 882.304 313.525C882.582 313.618 882.953 314.267 882.767 314.73C882.582 315.194 880.913 316.399 880.357 316.77C879.801 317.14 878.874 317.697 878.41 317.789C877.947 317.882 876 317.233 875.629 316.862C875.259 316.491 875.166 316.399 875.166 316.399C875.166 316.399 873.219 315.935 872.663 315.472C872.107 315.008 872.014 313.525 872.014 313.247C872.014 312.969 870.809 312.691 870.346 312.32C869.882 311.949 869.697 311.208 869.697 311.208C869.697 311.208 869.789 310.188 869.697 309.076C869.604 308.056 868.862 307.314 868.77 306.758C868.677 306.202 870.16 304.441 870.531 304.07C870.902 303.699 873.405 302.309 873.405 302.309C873.405 302.309 873.219 304.163 873.497 304.348C873.683 304.533 875.073 304.719 875.444 305.09C875.815 305.46 876 306.295 875.722 306.944C875.444 307.5 874.795 307.5 874.054 307.5C873.312 307.592 872.2 308.241 872.2 308.241L872.014 308.89Z" fill="#FEC7C7"/>
<path d="M871.645 313.525C871.645 313.525 872.386 314.081 872.85 313.988C873.313 313.988 876.558 312.783 876.558 312.783C876.558 312.783 878.041 312.505 878.597 312.32C879.153 312.227 879.709 312.134 879.709 311.393C879.339 311.485 879.431 311.949 878.504 311.949C877.577 311.949 874.518 312.876 873.684 313.061C872.85 313.247 872.015 313.247 872.015 313.247L871.645 313.525Z" fill="#EF989A"/>
<path d="M881.838 313.525C881.097 313.71 879.984 314.544 879.521 314.915C879.057 315.286 877.203 316.398 877.018 316.491C876.833 316.584 875.164 316.491 875.164 316.491L876.925 316.306L880.262 314.081L881.282 313.339L881.838 313.525Z" fill="#EF989A"/>
<path d="M874.982 308.983C872.85 309.168 870.811 309.168 870.811 309.168H869.977C869.977 309.168 871.089 308.148 871.46 307.87C871.923 307.592 873.87 307.314 873.87 307.314C873.87 307.314 875.538 307.407 875.817 306.85C876.095 306.294 876.465 306.109 876.465 306.109L876.651 307.87L874.982 308.983Z" fill="#EF989A"/>
<path d="M925.778 237.975L927.447 238.717C927.447 238.717 929.579 234.731 933.194 237.79C936.902 240.942 937.458 244.928 937.736 246.596C938.014 248.265 939.961 250.675 942.464 251.787C944.967 252.9 950.899 252.344 951.456 251.324C952.104 250.304 953.588 245.577 956.091 242.703C958.593 239.829 967.4 228.057 958.964 218.972C954.7 216.469 953.958 215.635 953.958 215.635C953.958 215.635 952.104 210.259 942 210.351C931.896 210.444 925.593 213.596 924.202 216.377C922.905 219.158 924.202 222.031 924.202 222.031C924.202 222.031 925.407 223.793 925.222 224.441C925.037 225.183 923.924 228.057 923.924 228.057C923.924 228.057 926.056 231.579 926.056 232.413C925.964 233.34 925.778 237.975 925.778 237.975Z" fill="#0C022D"/>
<path d="M929.951 237.79C931.156 237.975 932.083 238.624 932.453 241.405C932.824 244.186 931.526 245.669 930.878 246.596C930.229 247.523 929.765 247.987 929.209 247.431C928.653 246.874 929.024 244.464 929.024 243.723C929.024 242.981 928.746 241.498 928.931 240.756C929.116 240.015 928.838 237.605 929.951 237.79Z" fill="url(#paint27_linear)"/>
<path d="M903.346 259.018C906.683 260.409 911.874 264.58 912.152 264.951C912.43 265.322 898.525 293.687 896.022 297.951C893.52 302.216 874.702 308.519 876.741 301.752C879.8 291.741 889.163 278.114 895.374 269.4C901.399 260.594 903.346 259.018 903.346 259.018Z" fill="#8996CC"/>
<path d="M915.951 218.88L915.858 218.973C908.72 228.057 913.819 235.936 913.819 235.936C913.819 235.936 955.255 238.439 956.367 244.001C956.367 244.001 961.002 247.338 963.598 239.737C965.266 234.546 915.951 218.88 915.951 218.88Z" fill="url(#paint28_radial)"/>
<path d="M935.697 223.978C935.697 223.978 920.217 221.939 918.548 218.787C916.879 215.635 923.368 214.986 923.368 214.986C923.368 214.986 936.346 219.714 935.697 223.978Z" fill="#07007F"/>
<path d="M923.368 214.986C923.368 214.986 927.54 201.545 943.02 201.081C958.501 200.618 970.922 212.854 964.526 232.32C964.526 232.32 938.663 229.261 923.368 214.986Z" fill="url(#paint29_linear)"/>
<path d="M914.283 275.24C911.317 276.353 906.589 282.007 906.589 282.007L906.311 282.564C902.881 285.252 899.266 288.311 896.949 290.072C892.221 293.78 905.106 309.075 905.106 309.075L904.921 311.022C904.921 311.022 916.23 306.758 920.216 296.468C925.778 282.193 916.601 274.406 914.283 275.24Z" fill="#5650CC"/>
<path d="M913.264 273.665C910.297 274.777 905.57 280.432 905.57 280.432L905.292 280.988C901.862 283.676 898.246 286.735 895.929 288.496C891.201 292.204 884.064 295.541 879.243 298.137C875.999 299.898 873.496 302.772 872.569 306.387C870.715 313.432 876.74 315.935 883.786 316.213C888.142 316.399 897.783 312.505 904.457 309.539C910.946 306.665 916.323 301.474 919.196 294.985C925.407 280.895 915.581 272.738 913.264 273.665Z" fill="#8996CC"/>
<path d="M905.012 311.114L903.344 330.766L905.012 329.839C905.012 329.839 907.608 310.002 909.462 308.797L910.111 307.685L905.012 311.114Z" fill="#5650CC"/>
<path d="M959.15 298.137L932.638 303.699L925.037 324.556L903.345 328.82C903.345 328.82 897.969 362.284 900.008 367.104C902.048 371.925 944.967 385.737 959.984 358.205C959.984 358.205 958.594 326.039 958.779 324.556C958.964 323.073 960.818 314.452 960.818 314.452L959.15 298.137Z" fill="#3729AA"/>
<defs>
<radialGradient id="paint0_radial" cx="0" cy="0" r="1" gradientUnits="userSpaceOnUse" gradientTransform="translate(777.472 429.932) scale(563.395 280.965)">
<stop stop-color="#9494FF" stop-opacity="0.4"/>
<stop offset="0.5598" stop-color="#4842AB" stop-opacity="0"/>
</radialGradient>
<linearGradient id="paint1_linear" x1="575.665" y1="228.254" x2="809.401" y2="617.262" gradientUnits="userSpaceOnUse">
<stop offset="0.5868" stop-color="#1E1E72"/>
<stop offset="0.6469" stop-color="#27267E" stop-opacity="0.7118"/>
<stop offset="0.7549" stop-color="#3E399E" stop-opacity="0.1932"/>
<stop offset="0.7951" stop-color="#4842AB" stop-opacity="0"/>
</linearGradient>
<linearGradient id="paint2_linear" x1="668.31" y1="257.442" x2="784.266" y2="257.442" gradientUnits="userSpaceOnUse">
<stop offset="0.1243" stop-color="#5F23D3"/>
<stop offset="0.4394" stop-color="#21006C"/>
</linearGradient>
<linearGradient id="paint3_linear" x1="764.388" y1="119.157" x2="696.617" y2="212.304" gradientUnits="userSpaceOnUse">
<stop offset="0.1486" stop-color="#21006C"/>
<stop offset="0.2505" stop-color="#250272"/>
<stop offset="0.3886" stop-color="#2F0883"/>
<stop offset="0.5475" stop-color="#4012A0"/>
<stop offset="0.7206" stop-color="#581FC7"/>
<stop offset="0.7671" stop-color="#5F23D3"/>
<stop offset="0.808" stop-color="#300884"/>
</linearGradient>
<linearGradient id="paint4_linear" x1="753.781" y1="350.566" x2="734.312" y2="463.969" gradientUnits="userSpaceOnUse">
<stop stop-color="#250272"/>
<stop offset="0.177" stop-color="#280477"/>
<stop offset="0.3934" stop-color="#310986"/>
<stop offset="0.6305" stop-color="#40119F"/>
<stop offset="0.8807" stop-color="#541DC1"/>
<stop offset="0.9914" stop-color="#5F23D3"/>
</linearGradient>
<linearGradient id="paint5_linear" x1="415.698" y1="279.555" x2="822.698" y2="279.555" gradientUnits="userSpaceOnUse">
<stop offset="0.045953" stop-color="#23208E"/>
<stop offset="0.2472" stop-color="#292394"/>
<stop offset="0.5198" stop-color="#3A2AA4"/>
<stop offset="0.832" stop-color="#5736BE"/>
<stop offset="0.9914" stop-color="#683ECE"/>
</linearGradient>
<linearGradient id="paint6_linear" x1="598.527" y1="163.314" x2="608.823" y2="163.314" gradientUnits="userSpaceOnUse">
<stop stop-color="#531BBA"/>
<stop offset="0.0628594" stop-color="#4D18B0"/>
<stop offset="0.292" stop-color="#3A0D93"/>
<stop offset="0.5177" stop-color="#2C067D"/>
<stop offset="0.7365" stop-color="#240270"/>
<stop offset="0.9405" stop-color="#21006C"/>
</linearGradient>
<linearGradient id="paint7_linear" x1="686.65" y1="73.0673" x2="755.727" y2="119.56" gradientUnits="userSpaceOnUse">
<stop offset="0.045953" stop-color="#21006C"/>
<stop offset="0.2017" stop-color="#250272"/>
<stop offset="0.4129" stop-color="#2F0883"/>
<stop offset="0.6557" stop-color="#4012A0"/>
<stop offset="0.9204" stop-color="#581FC7"/>
<stop offset="0.9914" stop-color="#5F23D3"/>
</linearGradient>
<linearGradient id="paint8_linear" x1="734.525" y1="41.7695" x2="726.799" y2="114.464" gradientUnits="userSpaceOnUse">
<stop offset="0.045953" stop-color="#21006C"/>
<stop offset="0.2017" stop-color="#250272"/>
<stop offset="0.4129" stop-color="#2F0883"/>
<stop offset="0.6557" stop-color="#4012A0"/>
<stop offset="0.9204" stop-color="#581FC7"/>
<stop offset="0.9914" stop-color="#5F23D3"/>
</linearGradient>
<linearGradient id="paint9_linear" x1="603.525" y1="158.693" x2="603.784" y2="105.643" gradientUnits="userSpaceOnUse">
<stop stop-color="#531BBA"/>
<stop offset="0.0628594" stop-color="#4D18B0"/>
<stop offset="0.292" stop-color="#3A0D93"/>
<stop offset="0.5177" stop-color="#2C067D"/>
<stop offset="0.7365" stop-color="#240270"/>
<stop offset="0.9405" stop-color="#21006C"/>
</linearGradient>
<linearGradient id="paint10_linear" x1="673.014" y1="298.2" x2="802.131" y2="298.2" gradientUnits="userSpaceOnUse">
<stop offset="0.3146" stop-color="#21006C"/>
<stop offset="0.4061" stop-color="#250272"/>
<stop offset="0.53" stop-color="#2F0883"/>
<stop offset="0.6726" stop-color="#4012A0"/>
<stop offset="0.8279" stop-color="#581FC7"/>
<stop offset="0.8696" stop-color="#5F23D3"/>
</linearGradient>
<linearGradient id="paint11_linear" x1="626.963" y1="266.945" x2="698.31" y2="266.945" gradientUnits="userSpaceOnUse">
<stop offset="0.045953" stop-color="#6360D6"/>
<stop offset="0.2634" stop-color="#6464D6"/>
<stop offset="0.4785" stop-color="#6870D5"/>
<stop offset="0.6921" stop-color="#6E84D4"/>
<stop offset="0.6956" stop-color="#6E84D4"/>
</linearGradient>
<linearGradient id="paint12_linear" x1="638.539" y1="271.576" x2="706.346" y2="271.576" gradientUnits="userSpaceOnUse">
<stop offset="0.045953" stop-color="#21006C"/>
<stop offset="0.2028" stop-color="#23046F"/>
<stop offset="0.3626" stop-color="#271078"/>
<stop offset="0.5238" stop-color="#2F2587"/>
<stop offset="0.6859" stop-color="#3A419C"/>
<stop offset="0.8473" stop-color="#4866B7"/>
<stop offset="0.9914" stop-color="#578DD4"/>
</linearGradient>
<linearGradient id="paint13_linear" x1="644.532" y1="277.593" x2="715.878" y2="277.593" gradientUnits="userSpaceOnUse">
<stop offset="0.045953" stop-color="#6360D6"/>
<stop offset="0.2634" stop-color="#6464D6"/>
<stop offset="0.4785" stop-color="#6870D5"/>
<stop offset="0.6921" stop-color="#6E84D4"/>
<stop offset="0.6956" stop-color="#6E84D4"/>
</linearGradient>
<linearGradient id="paint14_linear" x1="660.369" y1="293.149" x2="723.993" y2="269.7" gradientUnits="userSpaceOnUse">
<stop offset="0.045953" stop-color="#21006C"/>
<stop offset="0.2028" stop-color="#23046F"/>
<stop offset="0.3626" stop-color="#271078"/>
<stop offset="0.5238" stop-color="#2F2587"/>
<stop offset="0.6859" stop-color="#3A419C"/>
<stop offset="0.8473" stop-color="#4866B7"/>
<stop offset="0.9914" stop-color="#578DD4"/>
</linearGradient>
<linearGradient id="paint15_linear" x1="666.969" y1="283.255" x2="714.523" y2="283.255" gradientUnits="userSpaceOnUse">
<stop offset="0.045953" stop-color="#6360D6"/>
<stop offset="0.2634" stop-color="#6464D6"/>
<stop offset="0.4785" stop-color="#6870D5"/>
<stop offset="0.6921" stop-color="#6E84D4"/>
<stop offset="0.6956" stop-color="#6E84D4"/>
</linearGradient>
<linearGradient id="paint16_linear" x1="676.285" y1="280.544" x2="719.848" y2="292.58" gradientUnits="userSpaceOnUse">
<stop offset="0.045953" stop-color="#21006C"/>
<stop offset="0.2028" stop-color="#23046F"/>
<stop offset="0.3626" stop-color="#271078"/>
<stop offset="0.5238" stop-color="#2F2587"/>
<stop offset="0.6859" stop-color="#3A419C"/>
<stop offset="0.8473" stop-color="#4866B7"/>
<stop offset="0.9914" stop-color="#578DD4"/>
</linearGradient>
<linearGradient id="paint17_linear" x1="684.595" y1="288.603" x2="716.253" y2="288.603" gradientUnits="userSpaceOnUse">
<stop offset="0.045953" stop-color="#6360D6"/>
<stop offset="0.2634" stop-color="#6464D6"/>
<stop offset="0.4785" stop-color="#6870D5"/>
<stop offset="0.6921" stop-color="#6E84D4"/>
<stop offset="0.6956" stop-color="#6E84D4"/>
</linearGradient>
<linearGradient id="paint18_linear" x1="693.003" y1="291.497" x2="719.037" y2="291.497" gradientUnits="userSpaceOnUse">
<stop offset="0.045953" stop-color="#21006C"/>
<stop offset="0.2028" stop-color="#23046F"/>
<stop offset="0.3626" stop-color="#271078"/>
<stop offset="0.5238" stop-color="#2F2587"/>
<stop offset="0.6859" stop-color="#3A419C"/>
<stop offset="0.8473" stop-color="#4866B7"/>
<stop offset="0.9914" stop-color="#578DD4"/>
</linearGradient>
<linearGradient id="paint19_linear" x1="701.4" y1="304.145" x2="727.736" y2="290.694" gradientUnits="userSpaceOnUse">
<stop stop-color="#21006C"/>
<stop offset="0.00407996" stop-color="#21016D"/>
<stop offset="0.1555" stop-color="#322C8C"/>
<stop offset="0.3095" stop-color="#3F4FA6"/>
<stop offset="0.4647" stop-color="#4A6ABA"/>
<stop offset="0.6212" stop-color="#517EC9"/>
<stop offset="0.7801" stop-color="#5689D1"/>
<stop offset="0.9448" stop-color="#578DD4"/>
</linearGradient>
<linearGradient id="paint20_linear" x1="718.324" y1="319.287" x2="748.419" y2="290.091" gradientUnits="userSpaceOnUse">
<stop offset="0.045953" stop-color="#6360D6"/>
<stop offset="0.2811" stop-color="#6264D6"/>
<stop offset="0.5138" stop-color="#5F70D5"/>
<stop offset="0.7448" stop-color="#5A84D4"/>
<stop offset="0.8306" stop-color="#578DD4"/>
</linearGradient>
<linearGradient id="paint21_linear" x1="734.953" y1="316.168" x2="760.666" y2="311.43" gradientUnits="userSpaceOnUse">
<stop offset="0.045953" stop-color="#21006C"/>
<stop offset="0.1735" stop-color="#230671"/>
<stop offset="0.3463" stop-color="#2A177D"/>
<stop offset="0.5451" stop-color="#353492"/>
<stop offset="0.7633" stop-color="#445CAF"/>
<stop offset="0.9914" stop-color="#578DD4"/>
</linearGradient>
<linearGradient id="paint22_linear" x1="504.05" y1="538.762" x2="859.159" y2="538.762" gradientUnits="userSpaceOnUse">
<stop stop-color="#1F216E" stop-opacity="0"/>
<stop offset="0.1425" stop-color="#3FD9F6" stop-opacity="0.3"/>
<stop offset="0.572309" stop-color="#3643A3"/>
<stop offset="0.874946" stop-color="#3643A3" stop-opacity="0.5"/>
</linearGradient>
<linearGradient id="paint23_linear" x1="445.5" y1="341.804" x2="400.598" y2="436.001" gradientUnits="userSpaceOnUse">
<stop stop-color="#3643A3" stop-opacity="0.1"/>
<stop offset="0.147116" stop-color="#3643A3"/>
<stop offset="0.489155" stop-color="#2F7EB3" stop-opacity="0.5824"/>
<stop offset="0.587074" stop-color="#264C8D" stop-opacity="0.3147"/>
<stop offset="0.854287" stop-color="#212D77" stop-opacity="0.1127"/>
<stop offset="1" stop-color="#1F216E" stop-opacity="0"/>
</linearGradient>
<linearGradient id="paint24_linear" x1="893.987" y1="508.306" x2="1032.23" y2="446.622" gradientUnits="userSpaceOnUse">
<stop stop-color="#21006C"/>
<stop offset="0.3181" stop-color="#22026D" stop-opacity="0.5287"/>
<stop offset="0.4537" stop-color="#250972" stop-opacity="0.3278"/>
<stop offset="0.5546" stop-color="#29167B" stop-opacity="0.1784"/>
<stop offset="0.6377" stop-color="#302787" stop-opacity="0.0552582"/>
<stop offset="0.675" stop-color="#34328E" stop-opacity="0"/>
</linearGradient>
<linearGradient id="paint25_linear" x1="830.567" y1="212.794" x2="921.127" y2="251.732" gradientUnits="userSpaceOnUse">
<stop stop-color="#2CA7D1" stop-opacity="0"/>
<stop offset="1" stop-color="#2CA7D1"/>
</linearGradient>
<linearGradient id="paint26_linear" x1="954.63" y1="244.857" x2="922.62" y2="244.857" gradientUnits="userSpaceOnUse">
<stop offset="0.1224" stop-color="#FEC7C7"/>
<stop offset="0.9694" stop-color="#FFADB7"/>
</linearGradient>
<linearGradient id="paint27_linear" x1="929.03" y1="243.121" x2="933.159" y2="241.141" gradientUnits="userSpaceOnUse">
<stop offset="0.1224" stop-color="#FEB9B8"/>
<stop offset="1" stop-color="#FFDEDE"/>
</linearGradient>
<radialGradient id="paint28_radial" cx="0" cy="0" r="1" gradientUnits="userSpaceOnUse" gradientTransform="translate(938.727 231.462) rotate(7.24441) scale(34.523 32.4698)">
<stop offset="0.3379" stop-color="#1D107A"/>
<stop offset="0.3876" stop-color="#1C167D"/>
<stop offset="0.4528" stop-color="#1A2686"/>
<stop offset="0.5266" stop-color="#174296"/>
<stop offset="0.6068" stop-color="#1267AB"/>
<stop offset="0.6922" stop-color="#0C98C6"/>
<stop offset="0.7805" stop-color="#05D3E6"/>
<stop offset="0.8407" stop-color="#00FFFF"/>
<stop offset="1" stop-color="#08006D"/>
</radialGradient>
<linearGradient id="paint29_linear" x1="944.379" y1="228.621" x2="945.665" y2="199.855" gradientUnits="userSpaceOnUse">
<stop stop-color="#3729AA"/>
<stop offset="1" stop-color="#5D5ACA"/>
</linearGradient>
</defs>
</svg>
