<svg width="499" height="560" viewBox="0 0 499 560" fill="none" xmlns="http://www.w3.org/2000/svg">
<path d="M118.667 261.772L132.461 268.985C133.213 269.377 133.911 269.864 134.54 270.433L156.02 289.882C170.112 302.61 179.129 319.961 181.402 338.826L186.496 381.327C186.634 382.482 186.57 383.654 186.306 384.787L165.782 472.808C164.144 479.833 155.833 482.866 150.056 478.547L8.13603 372.448C5.95095 370.814 4.52815 368.359 4.19744 365.651L0.896541 338.621C0.766093 337.553 0.808922 336.47 1.02338 335.416L9.32658 294.586C9.68064 292.845 10.4922 291.23 11.6776 289.906L18.927 281.814C19.4017 281.284 19.9316 280.806 20.5076 280.389L35.3246 269.652L53.4504 260.036C54.5896 259.431 55.835 259.053 57.1179 258.922L101.604 254.364C103.637 254.156 105.684 254.575 107.471 255.566L118.667 261.772Z" fill="url(#paint0_linear)"/>
<path d="M88.8343 305.496C84.0307 310.581 75.6243 309.29 72.569 302.997L67.4518 292.458L63.2427 282.461C62.819 281.454 62.5629 280.386 62.4847 279.296L60.8288 256.237C60.6553 253.82 61.4758 251.437 63.1005 249.638C65.0654 247.464 67.9754 246.397 70.8801 246.787L100.322 250.735C103.725 251.191 106.656 253.362 108.085 256.484L108.868 258.195C110.044 260.762 110.079 263.707 108.965 266.302L105.54 274.279C105.005 275.525 104.729 276.867 104.729 278.224V284.693C104.729 287.247 103.752 289.703 101.998 291.56L88.8343 305.496Z" fill="#EF989A"/>
<path d="M141.735 342.685C141.862 342.44 141.929 342.168 141.929 341.892V329.47C141.929 327.756 141.488 326.071 140.649 324.576L133.594 312.006L139.334 326.176C139.595 326.822 139.701 327.521 139.642 328.215L138.492 341.746C138.333 343.622 140.868 344.356 141.735 342.685Z" fill="#282877"/>
<path d="M35.4875 354.131C36.106 354.131 36.6479 353.717 36.8101 353.12L39.6524 342.658C39.9463 341.576 40.0562 340.453 39.9775 339.334L38.3537 316.248V336.706C38.3537 337.66 38.2171 338.609 37.9481 339.525L34.1725 352.374C33.9146 353.252 34.5726 354.131 35.4875 354.131Z" fill="#282877"/>
<path d="M119.168 274.908C124.549 273.992 127.828 268.689 124.96 264.045C122.584 260.198 113.829 252.592 109.546 248.985C107.996 247.68 106.087 246.912 104.064 246.784C96.4953 246.306 76.885 245.358 66.3929 247.528C58.0301 249.259 51.7406 259.129 48.2591 266.116C46.2252 270.198 47.8276 274.984 51.6191 277.517L56.973 281.095C59.3501 282.684 60.9335 285.214 61.3233 288.046L61.5783 289.899C61.7557 291.188 62.183 292.431 62.8362 293.556L73.5052 311.937C77.0001 317.959 85.425 318.655 89.8611 313.289L108.332 290.947C109.82 289.147 110.304 286.719 109.621 284.485C108.394 280.477 110.968 276.303 115.1 275.6L119.168 274.908ZM102.079 280.941C98.7044 281.082 95.6631 283.017 94.1057 286.013L89.9548 294C86.1373 301.346 75.5581 301.137 72.0333 293.647L68.2539 285.616C67.6271 284.284 67.3021 282.83 67.3021 281.358V273.99C67.3021 273.473 67.262 272.957 67.1821 272.445L65.399 261.041C64.5088 255.348 69.1151 250.292 74.8665 250.65L102.166 252.35C102.671 252.382 102.833 253.046 102.399 253.306C102.144 253.46 102.071 253.797 102.241 254.042L103.821 256.317C105.943 259.424 106.473 263.288 105.185 266.849L102.417 274.737C102.243 275.233 102.154 275.755 102.154 276.28V280.866C102.154 280.907 102.121 280.941 102.079 280.941Z" fill="#8996CC"/>
<path d="M107.975 228.388C112.163 228.053 115.696 225.134 116.815 221.084L118.116 216.376C119.295 212.113 117.533 207.582 113.784 205.236L86.4017 188.095C83.1105 186.035 78.9242 186.066 75.664 188.175L54.4204 201.918C50.5129 204.446 48.8658 209.335 50.447 213.712L54.6231 225.272C56.1546 229.511 60.333 232.202 64.8261 231.842L107.975 228.388Z" fill="#0C022D"/>
<path d="M45.1757 207.523C43.2057 210.857 44.4938 215.176 47.979 216.918C51.6158 218.737 57.5255 220.176 67.3751 219.873C92.9083 219.04 130.715 220.479 129.124 211.084C127.382 201.235 123.063 203.811 121.396 197.749C119.654 191.688 115.638 163.579 84.8013 162.139C53.9645 160.7 49.9489 188.582 48.5094 195.325C47.4486 200.022 46.8425 204.796 45.1757 207.523Z" fill="url(#paint1_linear)"/>
<path d="M58.7253 220.993C59.3017 220.794 59.8798 221.227 59.8852 221.837L59.9432 228.449C59.9479 228.993 60.0261 229.534 60.1754 230.057C60.2519 230.324 60.3285 230.592 60.405 230.86C60.5366 231.189 60.611 231.461 60.678 231.675C60.6975 231.738 60.7311 231.815 60.7515 231.877C60.8155 232.072 60.8939 232.249 60.9684 232.441C61.8274 234.654 63.373 236.445 65.4055 237.679L66.8451 238.512C68.6634 239.573 70.6334 240.255 72.7548 240.406L76.4674 240.709C81.2406 241.088 85.7866 238.891 88.5141 234.951L88.9687 234.269C89.8022 232.981 91.6963 232.981 92.5297 234.194L94.4239 236.845C95.8634 238.815 98.1364 240.027 100.561 240.027H102.304C105.713 240.103 109.047 238.891 111.623 236.694C112.456 236.012 113.062 235.103 113.29 234.042L113.844 231.975C114.025 231.301 113.97 230.582 113.738 229.923C113.693 229.795 113.65 229.669 113.609 229.545C112.643 226.603 117.973 218.129 116.715 215.3C116.654 215.163 116.581 215.036 116.495 214.913C112.646 209.349 105.948 207.455 104.085 207.023C103.754 206.946 103.421 206.905 103.083 206.881C88.7398 205.865 75.4943 206.547 67.5455 208.624C66.5722 208.878 65.6124 209.228 64.7064 209.665C64.3145 209.854 63.8576 210.078 63.3598 210.327C58.5108 212.676 55.1013 217.298 54.1921 222.601C54.1521 222.841 54.6507 223.081 54.8408 222.929C55.941 222.049 57.614 221.377 58.7253 220.993Z" fill="url(#paint2_linear)"/>
<path d="M118.23 227.294C118.098 226.407 117.536 225.451 116.639 225.456C115.811 225.461 114.774 226.336 114.29 230.241C114.221 230.8 114.125 231.361 113.979 231.905L113.365 234.194C113.062 235.254 112.532 236.163 111.699 236.845C109.123 239.043 105.789 240.179 102.379 240.179H100.637C98.2122 240.179 95.9392 238.967 94.4997 236.997L92.6055 234.345C91.6964 233.133 89.878 233.133 89.0445 234.421L88.59 235.103C85.9381 239.043 81.3164 241.24 76.5432 240.861L72.8306 240.558C70.7849 240.406 68.7393 239.724 66.9209 238.664L65.4813 237.83C63.4339 236.587 61.8805 234.709 61.0254 232.536C60.964 232.38 60.9366 232.242 60.8664 232.09C60.8228 231.995 60.7723 231.869 60.7406 231.77C60.6599 231.517 60.544 231.264 60.4808 231.011C59.5716 228.36 57.4501 222.829 54.1922 224.117C52.5253 224.571 51.4646 226.314 51.3131 226.92C50.5554 229.951 53.4345 234.875 55.4044 239.194C56.0884 240.693 57.2655 241.8 58.5109 242.606C61.3091 244.417 64.2404 246.401 65.6477 249.422C67.6647 253.752 70.5153 259.621 71.7699 261.015C73.8156 263.288 83.1348 268.212 84.9532 269.046C86.317 269.652 88.4384 269.728 90.9387 269.576C93.5905 269.349 96.2423 268.516 98.5153 267.152C101.622 265.258 106.168 262.909 106.774 261.924C108.848 258.568 110.133 252.867 110.902 247.985C111.703 242.898 115.967 237.346 117.57 232.452C118.174 230.608 118.441 228.718 118.23 227.294Z" fill="url(#paint3_linear)"/>
<path d="M60.7513 232.023C60.7666 232.061 60.7301 232.008 60.7188 231.968C60.7067 231.925 60.7349 231.981 60.7513 232.023Z" fill="url(#paint4_linear)"/>
<path d="M60.7513 232.023C60.7666 232.061 60.7301 232.008 60.7188 231.968C60.7067 231.925 60.7349 231.981 60.7513 232.023Z" fill="url(#paint5_linear)"/>
<path d="M113.182 228.036C113.335 228.828 115.133 226.307 115.745 225.781C116.405 225.215 114.731 223.643 113.992 224.101C113.209 224.585 112.754 225.819 113.182 228.036Z" fill="url(#paint6_linear)"/>
<path d="M60.4044 230.86C60.3279 230.592 60.2514 230.325 60.1749 230.057C60.0255 229.534 59.9474 228.994 59.9426 228.45L59.8937 222.872C59.8837 221.738 59.724 220.641 58.6568 221.023C57.1451 221.563 57.0197 224.456 57.9664 225.753C59.1073 227.315 59.9307 229.479 60.4044 230.86Z" fill="url(#paint7_linear)"/>
<path d="M93.2874 248.816C92.454 249.346 91.5448 249.574 90.6356 249.574C88.7312 249.525 87.236 248.186 86.3932 247.22C85.9744 246.739 86.1432 245.915 86.6799 245.571C87.1475 245.272 87.7737 245.412 88.1458 245.824C88.7685 246.514 89.722 247.301 90.7114 247.301C91.4594 247.301 92.2074 246.908 92.9886 246.121C93.4377 245.669 94.1507 245.562 94.6605 245.944C95.1629 246.321 95.2855 247.035 94.87 247.506C94.377 248.065 93.8494 248.51 93.2874 248.816Z" fill="#EF989A"/>
<path d="M147.541 375.951C147.541 375.951 146.026 363.601 144.662 350.418C143.299 337.235 141.935 332.31 136.48 327.991C132.464 324.885 131.252 319.733 130.873 317.157C130.721 316.096 129.812 315.414 128.752 315.49C126.782 315.717 124.357 317.308 126.403 324.203C127.542 328.002 128.488 331.47 129.232 334.358C129.944 337.122 126.736 339.095 124.502 337.318C119.416 333.272 112.647 328.155 108.598 326.173C101.4 322.763 96.551 317.687 90.7927 320.793C85.0345 323.9 102.006 331.022 102.006 331.022C102.006 331.022 83.3677 322.688 79.3521 323.824C75.3365 324.961 73.2908 332.461 100.567 342.766C100.567 342.766 80.7916 335.265 78.4429 338.447C77.761 339.356 79.5036 341.099 82.2312 343.069C88.7471 347.69 101.173 353.676 101.173 353.676L82.5342 347.084C82.5342 347.084 82.2312 357.161 102.309 365.723C122.387 374.36 156.027 391.862 156.027 391.862L147.541 375.951Z" fill="#2CA7D1"/>
<path d="M157.02 391.553C157.53 392.534 156.473 393.587 155.495 393.074C155.192 392.922 121.703 375.496 101.852 367.011C81.2439 358.222 81.3197 347.69 81.3197 347.236L81.3627 346.332C81.379 345.99 81.7209 345.762 82.0426 345.878C82.6226 346.086 83.0639 345.179 82.5545 344.832C82.2069 344.595 81.8707 344.36 81.547 344.129C77.9102 341.553 77.3041 340.265 77.1525 339.432C77.0768 338.901 77.1525 338.371 77.4556 337.916C78.4042 336.629 79.8247 333.48 78.6892 332.354C76.2201 329.906 75.6652 327.965 75.713 326.627C75.7887 324.809 77.001 323.369 78.8951 322.839C80.415 322.413 83.4957 323.061 86.9631 324.116C87.7201 324.347 88.4446 323.323 88.3659 322.536C88.3659 321.778 88.5932 320.642 90.1843 319.884C95.0333 317.308 99.2004 319.733 104.049 322.536C105.641 323.445 107.232 324.43 109.05 325.263C113.158 327.233 119.733 332.171 124.8 336.195C126.294 337.382 128.43 336.04 127.946 334.195C127.216 331.411 126.309 328.135 125.264 324.582C124.127 320.793 124.127 318.141 125.34 316.323C126.022 315.262 127.158 314.58 128.598 314.353C130.264 314.126 131.78 315.338 132.007 316.929C132.386 319.505 133.522 324.127 137.159 327.006C142.993 331.628 144.433 336.856 145.797 350.19C146.946 361.684 148.299 372.632 148.631 375.158C148.66 375.386 148.73 375.601 148.836 375.804L157.02 391.553ZM87.7568 350.314C86.2002 349.765 84.8248 351.19 85.7373 352.565C88.018 356.003 92.7722 360.616 102.761 364.889C116.363 370.709 136.303 380.702 147.674 386.488C149.415 387.374 151.263 385.494 150.354 383.766L146.508 376.455C146.439 376.323 146.403 376.176 146.403 376.027C146.403 375.875 144.812 363.525 143.524 350.418C142.16 336.931 140.644 332.689 135.72 328.824C131.477 325.491 130.113 320.187 129.734 317.308C129.658 316.853 129.28 316.55 128.901 316.626C128.143 316.702 127.613 317.005 127.31 317.535C126.779 318.369 126.4 320.111 127.537 323.9C130.312 333.309 131.999 340.783 132.381 342.323C132.429 342.518 132.484 342.718 132.525 342.915C132.726 343.878 131.594 344.55 130.845 343.911L130.568 343.675C130.416 343.523 115.111 330.491 108.141 327.158C106.247 326.248 104.58 325.263 102.989 324.354C98.367 321.702 95.1091 319.733 91.3965 321.778C91.1692 321.93 90.7904 322.157 90.7904 322.384C90.8662 323.9 95.9425 327.082 101.019 329.355C101.153 329.422 101.283 329.481 101.408 329.535C101.992 329.787 102.262 330.418 102.012 331.003C101.754 331.604 101.066 331.887 100.468 331.625C100.309 331.556 100.139 331.481 99.9581 331.4C92.7603 328.294 82.0773 324.278 79.577 324.96C79.1982 325.036 78.1375 325.491 78.0617 326.703C77.9872 327.746 78.8649 333.257 99.8517 341.363C100.444 341.592 100.753 342.263 100.521 342.854C100.293 343.435 99.6401 343.723 99.0549 343.507C91.515 340.724 84.3234 338.928 81.063 338.858C80.0903 338.837 79.8039 339.739 80.5195 340.398C81.0279 340.867 81.7649 341.471 82.835 342.235C88.1209 346.011 97.4835 350.727 100.591 352.261C101.175 352.548 101.425 353.233 101.169 353.831C100.914 354.426 100.241 354.721 99.6312 354.505L87.7568 350.314Z" fill="#41E4FE"/>
<path d="M300.961 247.906C300.961 247.906 344.602 277.455 351.118 288.062C357.634 298.745 373.696 310.186 351.118 373.375L351.345 397.317C351.421 405.5 349.527 413.531 345.814 420.804L337.177 437.549L348.012 466.34C349.982 471.492 350.588 477.098 349.906 482.554L345.814 515.133L214.436 523.088V462.854C214.436 462.854 209.057 402.62 211.936 390.574L211.178 392.013C208.451 397.014 203.223 400.12 197.54 400.12H194.737L166.628 405.5L139.655 400.12L147.611 369.283V357.767L160.339 360.873H175.795L179.205 361.783L179.66 355.418C180.114 349.812 181.933 344.356 185.039 339.659C190.949 330.643 200.419 316.247 201.556 314.732C202.768 313.141 210.875 297.381 215.573 288.29C217.694 284.047 220.497 280.258 223.907 276.925L239.363 261.544L270.958 261.165L300.961 247.906Z" fill="url(#paint8_linear)"/>
<path d="M213.3 524.301V462.93C213.073 460.127 208.982 413.758 210.194 395.498C207.088 399.135 202.466 401.332 197.541 401.332H194.813L166.553 406.712L138.141 401.105L146.323 369.283V356.479L160.34 359.888H175.872L178.145 360.494L178.524 355.494C178.978 349.66 180.873 344.053 184.055 339.204C190.949 328.673 199.511 315.717 200.647 314.201C201.481 313.065 206.557 303.518 214.513 287.986C216.71 283.668 219.589 279.728 222.998 276.318L238.758 260.559L270.58 260.18L300.962 246.694L301.492 247.073C303.31 248.285 345.436 276.849 351.952 287.607C352.634 288.744 353.468 289.88 354.301 291.093C361.499 301.397 372.409 316.929 352.18 373.678L352.407 397.392C352.483 405.727 350.513 413.985 346.724 421.41L338.314 437.776L348.922 466.112C350.891 471.416 351.573 477.25 350.891 482.857L346.649 516.421L345.739 516.497L213.3 524.301ZM215.119 382.467L213.149 390.877C210.346 402.62 215.573 462.172 215.649 462.779V462.854V521.876L344.754 514.148L348.77 482.478C349.452 477.174 348.77 471.795 346.952 466.794L335.966 437.548L344.83 420.274C348.467 413.228 350.361 405.272 350.285 397.317L350.058 373.147L350.134 372.92C370.136 317.08 359.605 302.079 352.634 292.153C351.801 290.941 350.967 289.729 350.21 288.592C344.3 278.894 305.886 252.528 300.962 249.118L271.337 262.302H271.11L239.97 262.605L224.893 277.682C221.635 280.94 218.907 284.653 216.786 288.82C211.027 300.033 203.905 313.823 202.693 315.414C201.86 316.55 195.95 325.415 186.176 340.265C183.221 344.811 181.403 350.114 180.948 355.494L180.342 363.222L175.72 362.01H160.113L148.748 359.282V369.586L141.02 399.287L166.629 404.363L194.738 399.059H197.541C202.845 399.059 207.618 396.18 210.194 391.558L215.119 382.467Z" fill="url(#paint9_linear)"/>
<path d="M85.3287 329.506C82.6769 327.839 80.3281 326.4 79.4947 325.869C76.0852 323.596 71.9939 322.233 67.3721 322.005C44.8696 320.945 16.9877 346.402 5.244 378.981C-2.7872 401.181 -1.27188 420.956 7.59275 431.563C11.1231 435.829 28.433 445.664 29.443 446.236C29.4758 446.254 29.5054 446.271 29.538 446.29L110.38 493.122C115.074 495.841 121.08 494.322 123.916 489.699L180.822 396.947C183.757 392.163 182.181 385.9 177.33 383.076L85.3287 329.506Z" fill="url(#paint10_linear)"/>
<path d="M303.902 450.203C303.76 450.252 303.61 450.277 303.46 450.277L252.245 446.833C251.864 446.807 251.522 446.593 251.333 446.261C251.181 445.958 234.891 418.304 252.848 388.528C252.995 388.283 253.224 388.099 253.494 388.009L253.53 387.997C253.943 387.86 262.571 385.339 274.051 387.224C276.326 387.597 278.68 387.37 280.752 386.359L288.934 382.371C291.299 381.219 293.114 379.181 293.987 376.699L295.434 372.582C295.831 371.453 296.019 370.292 296.033 369.095C296.147 359.159 298.286 314.733 324.828 293.25C325.321 292.851 326.046 292.947 326.427 293.455C326.799 293.951 326.7 294.657 326.217 295.047C297.192 318.508 298.232 370.576 298.232 371.102C298.232 371.252 298.206 371.401 298.156 371.543L295.731 378.438C294.858 380.922 293.04 382.961 290.672 384.113L278.047 390.253C277.821 390.363 277.566 390.395 277.32 390.346C269.64 388.49 262.8 388.844 258.569 389.427C255.948 389.788 253.717 391.465 252.531 393.83C242.835 413.169 247.277 430.99 250.649 439.658C251.894 442.858 255.001 444.811 258.427 445.043L301.288 447.943C302.621 448.033 303.959 447.856 305.222 447.42L335.669 436.926C336.252 436.725 336.888 437.031 337.095 437.612C337.306 438.202 336.994 438.851 336.401 439.055L303.902 450.203Z" fill="url(#paint11_linear)"/>
<g opacity="0.06">
<path opacity="0.06" d="M279.424 243.516C285.794 240.463 293.237 244.798 293.722 251.846L295.04 270.971C295.325 275.105 293.031 278.986 289.273 280.73L266.611 291.244C259.983 294.319 252.402 289.479 252.402 282.173V262.764C252.402 258.917 254.61 255.41 258.08 253.747L279.424 243.516Z" fill="#FF0000"/>
<path opacity="0.06" d="M265.444 293.041C258.818 296.094 251.258 291.254 251.258 283.959V262.081C251.258 258.234 253.465 254.728 256.935 253.064L280.494 241.768C286.86 238.715 294.299 243.042 294.793 250.084L296.31 271.701C296.601 275.848 294.296 279.743 290.52 281.483L265.444 293.041ZM259.217 254.507C255.743 256.168 253.531 259.677 253.531 263.528V280.458C253.531 287.758 261.099 292.598 267.725 289.537L288.11 280.119C291.878 278.378 294.179 274.491 293.892 270.35L292.735 253.643C292.246 246.601 284.813 242.268 278.445 245.313L259.217 254.507Z" fill="#41E4FE"/>
</g>
<path d="M302.246 240.709L306.243 249.246C306.558 249.917 306.796 250.62 306.955 251.344L307.903 255.665C308.362 257.761 308.136 259.949 307.256 261.906L299.649 278.835C297.56 283.484 291.625 284.875 287.687 281.64C283.852 278.488 277.836 279.586 274.777 283.496C272.034 287.001 268.105 291.492 262.676 296.628C256.97 302.027 247.953 298.145 247.219 290.324L246.045 277.83C245.775 274.962 242.775 273.2 240.139 274.362C236.53 275.952 232.905 272.167 234.65 268.63L235.028 267.864C235.138 267.642 235.266 267.428 235.411 267.227L237.811 263.884C238.874 262.403 240.322 261.241 241.998 260.523L294.821 237.905C297.624 236.617 300.882 237.905 302.246 240.709Z" fill="#2CA7D1"/>
<path d="M249.591 309.201C248.897 309.729 247.893 309.29 247.811 308.422L245.116 279.948C244.82 276.817 241.547 274.894 238.667 276.158C234.726 277.889 230.772 273.758 232.672 269.896L234.003 267.193C234.141 266.913 234.302 266.644 234.484 266.39L238.407 260.91C238.537 260.729 238.709 260.583 238.908 260.483L294.293 236.769C297.702 235.329 301.642 236.769 303.233 240.178L307.322 249.037C307.626 249.696 307.857 250.385 308.012 251.093L309.044 255.819C309.502 257.913 309.274 260.099 308.395 262.054L300.178 280.33C298.015 285.141 291.87 286.579 287.797 283.228C283.979 280.087 278.182 281.097 275.104 284.966C270.326 290.973 262.305 299.523 249.591 309.201ZM241.613 272.439C244.005 271.368 246.741 272.962 246.99 275.57L248.168 287.956C248.915 295.812 258.001 299.664 263.643 294.145C275.173 282.867 279.158 275.069 279.215 274.955C279.523 274.301 280.363 274.112 280.921 274.57L287.407 279.901C291.297 283.097 297.161 281.725 299.228 277.134L306.107 261.857C306.995 259.883 307.22 257.675 306.746 255.563L305.9 251.789C305.739 251.072 305.499 250.374 305.185 249.709L301.187 241.239C300.127 238.966 297.475 237.981 295.202 238.966L242.695 261.5C241.011 262.222 239.557 263.394 238.494 264.887L236.339 267.912C236.233 268.061 236.14 268.218 236.059 268.382C234.666 271.219 237.585 274.243 240.469 272.952L241.613 272.439Z" fill="#41E4FE"/>
<path d="M253.908 267.454V283.516C253.908 285.259 255.044 286.774 256.711 287.305C258.151 287.759 259.742 287.305 260.803 286.168L289.973 254.271C292.321 251.695 293.609 248.285 293.609 244.8C293.609 237.743 285.145 234.135 280.054 239.022L256.313 261.812C254.776 263.287 253.908 265.324 253.908 267.454Z" fill="#2CA7D1"/>
<path d="M257.845 288.592C257.314 288.592 256.86 288.517 256.329 288.365C254.208 287.683 252.693 285.713 252.693 283.516V267.932C252.693 265.207 253.805 262.599 255.773 260.713L279.187 238.27C285.004 232.695 294.667 236.818 294.667 244.875C294.667 248.664 293.227 252.3 290.727 255.104L261.557 287.001C260.648 288.062 259.284 288.592 257.845 288.592ZM258.118 261.698C256.152 263.584 255.041 266.19 255.041 268.914V283.516C255.041 284.804 255.875 285.865 257.011 286.244C258.072 286.547 259.208 286.244 259.966 285.41L289.136 253.513C291.333 251.164 292.47 248.058 292.47 244.8C292.47 238.766 285.233 235.681 280.88 239.858L258.118 261.698Z" fill="#41E4FE"/>
<path d="M235.609 380.632C233.832 381.506 233.07 383.527 232.797 385.488C231.461 395.078 227.792 424.409 232.926 424.092C237.768 423.794 245.345 404.631 248.328 396.556C249.167 394.283 249.111 391.784 247.968 389.647C245.568 385.159 240.797 378.081 235.609 380.632Z" fill="#2CA7D1"/>
<path d="M232.774 425.229C232.244 425.229 231.562 425.078 230.956 424.396C226.637 419.623 231.108 388.483 232.092 382.27L232.105 382.206C232.146 382.001 232.247 381.812 232.396 381.664C234.365 379.467 236.563 378.557 238.911 379.012C245.503 380.148 250.428 392.044 250.655 392.574C250.752 392.817 250.752 393.089 250.655 393.332C248.854 398.509 239.622 424.273 233.114 425.135C233.007 425.15 232.883 425.229 232.774 425.229ZM236.889 381.346C234.925 381.899 234.121 384.104 233.837 386.124C231.871 400.12 230.094 420.065 232.699 422.88C232.78 422.962 232.904 422.957 233.017 422.934C236.357 422.28 242.73 408.391 247.067 396.69C247.936 394.343 247.869 391.733 246.648 389.549C244.663 385.996 241.618 381.76 238.533 381.209C237.983 381.151 237.434 381.193 236.889 381.346Z" fill="#41E4FE"/>
<path d="M232.079 380.892C232.084 380.833 232.09 380.776 232.098 380.717C232.216 379.782 233.448 371.285 239.101 371.032C239.272 371.024 239.447 371.03 239.615 371.058C240.148 371.146 241.434 371.471 242.677 372.648C246.351 376.128 250.022 381.492 252.376 385.973C252.967 387.098 253.461 388.466 253.78 390.13C253.875 390.624 253.908 391.13 253.908 391.633V394.69C253.908 395.579 254.028 396.461 254.238 397.325C254.803 399.648 255.876 404.56 255.651 407.546C255.348 411.561 249.893 422.926 245.044 427.169C240.649 431.014 235.756 430.317 234.878 430.152C234.785 430.135 234.695 430.111 234.607 430.078C234.24 429.939 233.215 429.462 232.833 428.38C232.252 426.735 232.997 425.516 231.871 424.183C230.438 422.486 231.185 417.543 231.405 415.333C231.436 415.015 231.506 414.68 231.622 414.328C232.508 411.656 232.661 407.209 233.591 404.552C233.953 403.517 234.669 402.317 235.911 400.941C236.084 400.75 236.247 400.54 236.381 400.32C237.918 397.812 235.617 395.991 233.809 393.67C232.38 391.835 231.436 388.114 232.079 380.892Z" fill="#2CA7D1"/>
<path d="M236.715 431.412C236.479 431.412 236.257 431.404 236.05 431.392C234.977 431.328 233.863 431.095 233.004 430.449C232.539 430.1 232.073 429.604 231.79 428.912C231.041 427.115 230.504 424.982 230.051 423.089C230.015 422.938 229.988 422.783 229.971 422.623C229.967 422.547 229.964 422.47 229.964 422.395C229.965 420.326 230.302 417.946 230.199 415.88C230.15 414.58 230.592 413.279 231.484 411.96C232.417 410.581 232.399 408.651 232.093 407.015C231.721 404.932 232.737 402.557 235.069 400.033C235.155 399.94 235.233 399.839 235.301 399.732L235.703 399.095C236.402 397.984 235.484 396.338 234.366 395.65C231.411 393.756 230.274 388.756 231.032 380.724C231.108 380.27 232.244 369.966 239.442 369.966C239.546 369.966 242.614 370.177 244.769 373.348C247.131 376.824 249.911 380.534 252.434 383.894C253.618 385.471 254.627 387.647 255.102 390.649C255.118 390.749 255.126 390.852 255.126 390.953V394.643C255.126 395.513 255.241 396.376 255.443 397.222C256.017 399.633 257.05 404.54 256.868 407.697C256.565 411.94 251.034 423.608 245.882 428.078C242.473 430.806 238.912 431.412 236.715 431.412ZM234.436 428.672C234.837 428.994 235.228 429.038 235.74 429.082C237.312 429.218 240.898 429.168 244.291 426.26C248.913 422.244 254.292 411.182 254.52 407.47C254.806 403.895 253.067 397.217 252.871 396.412C252.857 396.358 252.84 396.306 252.815 396.256C252.79 396.207 252.777 396.152 252.777 396.096V391.721C252.777 391.21 252.743 390.698 252.644 390.196C251.136 382.577 245.724 381.937 245.503 381.937C244.949 381.894 244.518 381.432 244.518 380.876C244.291 372.617 239.594 372.239 239.366 372.239C234.366 372.239 233.305 380.649 233.305 380.952C232.472 390.271 234.366 392.998 235.654 393.756C237.196 394.784 239.235 393.678 239.36 393.608C239.364 393.606 239.368 393.603 239.372 393.601C240.371 393.014 241.489 394.155 240.881 395.142L237.178 401.148C237.071 401.321 236.945 401.482 236.807 401.631C235.056 403.515 234.223 405.251 234.442 406.636C234.613 407.667 235.305 408.308 235.665 408.56C235.799 408.654 235.956 408.723 236.1 408.803C236.713 409.14 236.781 409.994 236.229 410.424L236.033 410.576C233.684 412.47 232.472 414.213 232.547 415.804C232.623 417.395 233.987 418.304 233.987 418.304C233.987 418.304 233.987 418.304 233.987 418.304C234.647 418.745 234.665 419.709 234.022 420.173L233.987 420.198C233.153 420.729 232.244 421.638 232.32 422.396C232.396 423.229 233.532 424.063 233.911 424.29C234.455 424.583 234.659 425.261 234.366 425.805C234.165 426.207 233.93 426.709 233.884 427.201C233.837 427.69 234.053 428.365 234.436 428.672Z" fill="#41E4FE"/>
<path d="M235.161 409.774C235.183 409.753 235.168 409.758 235.194 409.742C235.657 409.458 236.646 410.297 236.163 410.547C235.742 410.764 235.307 410.976 234.858 411.181C234.411 411.386 234.058 410.842 234.412 410.5L235.161 409.774Z" fill="#41E4FE"/>
<path d="M233.204 419.356C233.218 419.311 233.225 419.265 233.231 419.219C233.255 419.029 233.381 418.517 234.059 418.455C234.181 418.442 234.314 418.42 234.459 418.389C236.334 417.995 236.955 418.984 235.195 419.743C234.927 419.868 234.668 420.006 234.418 420.157C233.983 420.42 233.047 419.839 233.204 419.356Z" fill="#41E4FE"/>
<path d="M255.842 346.11C257.042 341.312 261.568 338.111 266.492 338.58L282.289 340.084C287.422 340.573 291.341 344.884 291.341 350.039V351.781C291.341 357.563 286.451 362.141 280.681 361.759L264.342 360.678C258.12 360.267 253.788 354.324 255.301 348.275L255.842 346.11Z" fill="#2CA7D1"/>
<path d="M-nan -nanL292.475 363.677L262.85 361.734C256.619 361.326 252.283 355.371 253.806 349.316L254.924 344.872C256.128 340.086 260.644 336.894 265.558 337.356L283.411 339.034C288.549 339.517 292.475 343.83 292.475 348.99V363.677L-nan -nanZM256.75 347.255C255.232 353.28 259.543 359.208 265.742 359.62L279.868 360.56C285.502 360.935 290.278 356.466 290.278 350.82C290.278 345.782 286.445 341.572 281.429 341.101L267.334 339.776C262.444 339.316 257.95 342.492 256.75 347.255Z" fill="#41E4FE"/>
<path d="M223.756 345.91V344.243C223.756 339.243 219.702 335.189 214.702 335.189C209.701 335.189 205.648 339.243 205.648 344.243V345.91C205.648 350.911 209.701 354.964 214.702 354.964C219.702 354.964 223.756 350.911 223.756 345.91Z" fill="#2CA7D1"/>
<path d="M224.886 346.1C224.886 351.623 220.409 356.1 214.886 356.1H214.505C208.982 356.1 204.505 351.623 204.505 346.1V344.052C204.505 338.529 208.982 334.052 214.505 334.052H214.886C220.409 334.052 224.886 338.529 224.886 344.052V346.1ZM206.778 345.91C206.778 350.282 210.323 353.827 214.696 353.827C219.068 353.827 222.613 350.282 222.613 345.91V344.243C222.613 339.87 219.068 336.325 214.696 336.325C210.323 336.325 206.778 339.87 206.778 344.243V345.91Z" fill="#41E4FE"/>
<path d="M298.965 186.15C295.564 192.406 282.184 191.312 275.1 192.035C274.143 192.133 273.116 192.268 272.015 192.446C256.104 195.023 241.86 200.326 232.086 189.34C222.312 178.354 228.222 140.471 283.531 156.155C295.124 159.412 302.246 170.853 300.958 180.248C300.633 182.445 299.91 184.411 298.965 186.15Z" fill="#2CA7D1"/>
<path d="M288.632 197.32C287.89 197.638 287.059 197.116 287.023 196.31C287.023 196.234 286.871 195.401 285.81 194.643C284.522 193.658 280.961 192.143 272.097 193.582C269.445 194.037 266.869 194.492 264.369 195.022C251.64 197.522 239.669 199.795 231.107 190.173C226.41 184.945 224.97 173.58 230.729 164.413C235.578 156.684 248.912 145.244 283.689 155.093C295.205 158.351 303.388 169.716 301.949 180.475C300.433 191.688 289.144 197.143 288.69 197.295L288.632 197.32ZM259.52 153.426C243.306 153.426 235.956 160.321 232.698 165.473C227.471 173.732 228.759 183.884 232.85 188.506C240.578 197.219 251.413 195.098 263.99 192.673C266.49 192.219 269.142 191.688 271.794 191.234C279.37 190.021 284.598 190.552 287.401 192.825C288.369 193.577 289.706 194.008 290.713 193.309C293.976 191.042 298.82 186.599 299.751 180.02C300.888 171.61 294.524 160.397 283.159 157.139C273.688 154.563 265.96 153.426 259.52 153.426Z" fill="#41E4FE"/>
<path d="M232.638 184.539C232.247 185.344 232.039 186.229 231.938 187.118L229.514 208.433C229.438 209.19 229.438 209.948 229.514 210.706L230.726 222.904L233.415 241.585C233.541 242.462 233.784 243.318 234.135 244.131L240.652 259.196C241.94 262.226 244.895 264.348 248.228 264.499L258.002 265.106C260.578 265.257 263.23 264.802 265.579 263.742L273.679 260.1C274.786 259.602 275.792 258.908 276.65 258.05L289.218 245.482C290.885 243.815 292.021 241.694 292.324 239.345L292.859 235.947C293.57 231.437 298.175 228.097 300.08 223.948C300.298 223.472 300.468 222.97 300.583 222.449L301.87 216.529C302.021 215.831 302.098 215.119 302.098 214.404V212.448C302.098 209.418 300.204 206.69 297.4 205.629C296.14 205.134 295.343 203.879 295.3 202.526C295.129 197.187 293.362 183.993 280.353 180.096C264.321 175.294 240.219 168.906 232.638 184.539Z" fill="#2CA7D1"/>
<path d="M258.912 266.242C258.609 266.242 258.23 266.242 257.927 266.242L248.154 265.636C244.365 265.408 241.107 263.135 239.592 259.65L233.009 244.523C232.651 243.701 232.406 242.835 232.279 241.947L229.591 223.131L228.379 210.857C228.303 210.023 228.303 209.19 228.379 208.356L230.936 185.719C230.948 185.608 230.98 185.5 231.03 185.399C238.683 166.306 267.019 174.868 280.657 178.959C294.287 183.069 296.215 196.961 296.403 202.501C296.433 203.379 296.961 204.174 297.78 204.492C301.038 205.705 303.235 208.887 303.235 212.372V214.556C303.235 215.27 303.159 215.982 303.007 216.68L301.72 222.6C301.499 223.575 301.122 224.485 300.618 225.302C298.432 228.843 294.705 231.914 294.065 236.026L293.537 239.42C293.159 241.997 291.946 244.345 290.052 246.164L277.324 258.823C276.472 259.671 275.474 260.357 274.379 260.851L266.11 264.575C263.761 265.711 261.337 266.242 258.912 266.242ZM234.553 241.29C234.679 242.161 234.92 243.012 235.269 243.82L241.713 258.741C242.85 261.393 245.426 263.211 248.305 263.363L258.079 263.969C260.503 264.12 262.928 263.666 265.125 262.681L273.011 259.113C274.109 258.616 275.108 257.925 275.96 257.073L288.385 244.648C289.901 243.133 290.886 241.239 291.189 239.117L292.951 228.049C293.029 227.563 293.426 227.191 293.916 227.146C296.644 226.843 298.841 224.873 299.447 222.222L300.729 216.388C300.884 215.683 300.962 214.963 300.962 214.241V212.372C300.962 209.796 299.371 207.523 296.947 206.614L294.773 205.778C294.311 205.6 294.023 205.137 294.068 204.644C294.144 203.886 295.356 185.778 279.975 181.081C260.861 175.273 240.534 171.32 233.738 184.725C233.316 185.557 233.1 186.476 232.997 187.403L230.652 208.508C230.576 209.19 230.576 209.872 230.652 210.554L231.864 222.752L234.553 241.29Z" fill="#41E4FE"/>
<path d="M280.986 188.698C281.062 189.602 281.541 190.396 282.167 191.053C283.636 192.595 286.286 196.163 287.741 202.897C288.082 204.474 293.3 206.079 294.646 205.189C294.906 205.017 295.447 204.819 295.747 204.907C297.606 205.452 304.249 208.414 300.677 222.392C300.668 222.428 300.649 222.415 300.662 222.449C300.745 222.665 302.277 223.651 302.452 223.499C306.822 219.702 311.171 213.217 310.587 202.598C309.451 181.99 308.087 160.927 292.328 153.426C278.188 146.796 280.359 181.245 280.986 188.698Z" fill="#2CA7D1"/>
<path d="M295.484 229.051C294.868 229.231 294.238 228.854 294.067 228.236C293.899 227.625 294.239 226.996 294.829 226.765C295.664 226.439 296.918 225.889 298.357 225.056C298.729 224.841 299.105 224.576 299.297 224.192C299.667 223.576 299.586 223.06 299.543 222.889C299.532 222.848 299.52 222.808 299.509 222.767C299.47 222.607 299.466 222.441 299.498 222.281L299.525 222.146C301.04 216.236 300.888 211.615 298.994 208.735C297.414 206.365 293.959 206.806 292.247 209.084C290.763 211.058 290.094 212.995 289.939 213.522C289.912 213.613 289.89 213.707 289.865 213.799C289.535 215.042 287.705 214.802 287.705 213.517V213.357C287.705 197.103 281.344 191.677 280.581 191.065C280.53 191.024 280.48 190.988 280.425 190.951C280.188 190.793 280.03 190.542 279.99 190.26L279.977 190.173C279.825 188.885 276.795 158.654 285.432 152.593C287.478 151.153 289.978 151.078 292.857 152.441C309.45 160.321 310.662 182.748 311.799 202.523C312.531 215.124 306.392 222.2 301.259 225.873C300.914 226.12 300.592 226.394 300.269 226.669C299.11 227.653 297.515 228.458 295.484 229.051ZM301.8 222.366C301.798 222.371 301.798 222.379 301.798 222.385C301.798 222.44 301.863 222.467 301.904 222.43C305.96 218.781 309.976 212.664 309.45 202.674C308.313 182.596 307.177 161.761 291.797 154.487C289.751 153.502 288.084 153.502 286.72 154.487C281.106 158.438 281.262 177.162 281.967 186.994C282.082 188.601 282.894 190.051 283.896 191.311C285.403 193.207 287.36 196.494 288.61 201.71C289.135 203.904 292.713 204.923 294.676 203.811L294.791 203.742C294.96 203.64 295.162 203.605 295.356 203.644C295.407 203.654 295.458 203.66 295.51 203.668C296.025 203.749 298.848 204.423 300.888 207.447C303.085 210.856 303.388 215.929 301.8 222.366Z" fill="#41E4FE"/>
<path d="M297.306 201.28C296.437 200.469 294.552 200.453 293.48 200.969L291.041 202.144C284.904 205.099 278.16 206.614 271.417 206.463C265.542 206.248 257.432 206.71 248.879 209.196C247.895 209.482 246.878 209.645 245.854 209.645H244.329C243.054 209.645 241.792 209.396 240.576 209.012C237.368 207.998 230.446 206.256 224.072 207.621C220.649 208.354 218.836 211.783 218.836 215.283V215.873C218.836 218.441 219.823 220.91 221.594 222.77L223.382 224.646C225.918 227.291 228.84 227.321 230.31 227.12C230.952 227.032 231.585 226.881 232.21 226.711C233.856 226.263 237.404 224.921 240.922 221.155C241.91 220.097 243.23 219.376 244.675 219.303C246.073 219.232 247.429 219.752 248.499 220.652C251.812 223.44 259.691 229.161 267.606 228.221C268.025 228.171 268.435 228.073 268.836 227.94C270.598 227.354 275.745 225.475 277.554 222.98L282.277 216.395C282.713 215.786 283.217 215.228 283.778 214.732L291.785 207.651C291.996 207.465 292.192 207.265 292.392 207.067C292.597 206.863 292.901 206.582 293.276 206.296C296.156 204.097 299.955 203.753 297.306 201.28Z" fill="#2CA7D1"/>
<path d="M265.88 229.419C258.157 229.419 250.872 224.117 247.738 221.452C246.917 220.753 245.875 220.354 244.798 220.401C243.655 220.451 242.601 221.007 241.828 221.85C238.142 225.865 234.352 227.317 232.506 227.785C231.833 227.956 231.149 228.097 230.461 228.193C228.755 228.431 225.421 228.383 222.542 225.328L220.44 223.161C218.629 221.295 217.617 218.798 217.617 216.198V209.498C217.617 209.12 217.819 208.771 218.147 208.584C225.854 203.909 236.3 206.398 240.658 207.793C241.869 208.181 243.122 208.432 244.394 208.432H245.555C246.572 208.432 247.583 208.271 248.561 207.989C257.413 205.439 265.735 205.106 271.335 205.25C277.851 205.477 284.443 204.038 290.428 201.083L294.477 199.059C294.701 198.947 294.956 198.912 295.201 198.962C300.505 200.098 300.354 206.993 300.354 207.296C300.311 208.434 298.794 208.788 298.252 207.787L298.232 207.75C297.702 206.765 297.02 206.159 296.338 206.084C294.974 205.932 293.383 207.372 292.853 207.902L292.777 207.978L284.578 215.281C284.035 215.765 283.546 216.306 283.12 216.896L278.457 223.358C276.155 226.552 269.556 228.654 268.583 228.949C268.547 228.96 268.512 228.965 268.474 228.965C268.412 228.965 268.352 228.98 268.296 229.006C267.561 229.349 266.756 229.419 265.88 229.419ZM246.858 218.001C247.199 217.987 247.53 218.116 247.772 218.358C247.846 218.432 257.725 228.022 267.352 227.086C267.836 227.039 268.31 226.926 268.77 226.768C271.046 225.985 275.286 224.195 276.715 222.222L281.594 215.47C282.027 214.871 282.525 214.322 283.079 213.833L291.337 206.538C291.792 206.084 294.065 203.735 296.717 203.962C297.124 204.043 297.55 203.61 297.355 203.244C297.003 202.584 296.504 201.994 295.816 201.62C295.485 201.44 295.088 201.479 294.749 201.645L291.565 203.204C285.2 206.311 278.23 207.826 271.411 207.599C265.661 207.448 256.966 207.825 247.813 210.692C247.786 210.701 247.759 210.712 247.734 210.724C247.659 210.762 247.577 210.781 247.494 210.781H242.408C242.297 210.781 242.188 210.763 242.083 210.728C242.037 210.713 241.995 210.697 241.95 210.679C241.137 210.358 232.817 207.3 225.179 208.606C221.874 209.171 220.042 212.415 220.042 215.768C220.042 218.112 220.941 220.366 222.554 222.066L224.284 223.889C227.123 226.798 230.36 226.052 230.884 225.883C230.93 225.869 230.975 225.851 231.021 225.835C231.126 225.8 231.234 225.777 231.343 225.758C232.292 225.587 237.174 224.417 241.559 218.661C241.75 218.375 242.065 218.198 242.408 218.184L246.858 218.001Z" fill="#41E4FE"/>
<path d="M234.074 183.187C229.201 182.916 225.348 179.057 226.309 174.272C227.993 165.887 233.479 153.144 250.802 145.244C277.87 132.9 306.763 149.605 313.268 171.217C313.512 172.028 313.612 172.873 313.612 173.72V184.347C313.612 185.594 313.847 186.822 314.24 188.005C315.63 192.192 318.475 202.515 313.612 204.796C307.475 207.675 324.749 184.643 282.623 184.643C263.421 184.643 244.555 183.771 234.074 183.187Z" fill="#2CA7D1"/>
<path d="M312.779 206.16C312.476 206.16 312.097 206.084 311.794 205.857C310.809 205.175 310.885 203.962 311.036 202.22C311.188 199.568 311.415 195.628 308.309 192.295C304.217 187.976 295.58 185.779 282.7 185.779C254.136 185.779 225.951 183.809 225.648 183.809C225.081 183.765 224.631 183.315 224.587 182.748C224.587 182.521 222.466 156.988 250.423 144.183C263.379 138.273 277.623 138.349 290.579 144.562C302.674 150.271 311.641 160.45 314.672 171.848C314.724 172.042 314.749 172.243 314.749 172.444V184.193C314.749 185.392 314.972 186.572 315.353 187.709C316.89 192.285 319.844 203.13 314.067 205.857C313.84 205.932 313.309 206.16 312.779 206.16ZM227.821 172.556C226.545 177.577 230.662 181.886 235.835 182.165C246.584 182.743 264.49 183.506 282.548 183.506C296.11 183.506 305.354 185.93 309.824 190.703C313.612 194.795 313.385 199.492 313.158 202.371C313.158 202.96 313.701 203.296 314.054 202.826C316.572 199.481 313.772 189.966 312.4 186.536C312.35 186.386 312.324 186.228 312.324 186.069V173.725C312.324 172.874 312.224 172.025 311.977 171.211C308.86 160.947 300.518 151.778 289.443 146.532C277.093 140.622 263.531 140.546 251.181 146.153C235.562 153.412 229.866 164.508 227.821 172.556Z" fill="#41E4FE"/>
<path d="M218.455 185.861C215.826 187.339 213.894 190.411 215.327 193.065C215.957 194.232 217.026 195.1 218.834 194.87C223.607 194.264 233.229 187.672 246.564 186.915C259.975 186.157 273.385 192.067 287.554 190.021C300.247 188.188 308.926 191.099 307.6 206.326C307.285 209.94 308.822 214.661 312.206 213.354C313.79 212.742 315.42 211.06 316.648 207.296C320.057 196.84 312.405 184.187 303.616 181.535C294.827 178.883 285.205 181.156 273.764 180.778C263.086 180.424 237.687 175.054 218.455 185.861Z" fill="#2CA7D1"/>
<path d="M310.582 214.796C308.006 214.796 306.036 213.13 305.961 213.054C305.634 212.774 305.489 212.337 305.582 211.917C307.4 203.28 306.718 197.294 303.688 194.037C300.809 191.006 295.581 190.021 287.701 191.157C279.821 192.294 272.093 191.006 264.668 189.718C258.455 188.657 252.546 187.672 246.636 188.051C238.074 188.506 231.028 191.46 225.876 193.582C222.997 194.794 220.8 195.703 218.981 195.931C217.542 196.158 216.254 195.779 215.344 194.87C213.147 192.824 213.299 188.733 213.299 188.278C213.299 187.947 213.464 187.638 213.74 187.454L213.753 187.445C230.195 175.474 252.849 177.671 266.411 178.959C269.29 179.262 271.79 179.489 273.76 179.565C277.851 179.717 281.716 179.489 285.428 179.262C291.944 178.883 298.157 178.58 303.915 180.323C308.612 181.762 313.083 185.854 315.886 191.157C318.689 196.537 319.371 202.522 317.704 207.447C316.66 210.643 315.216 212.742 313.374 213.825C312.528 214.322 311.597 214.79 310.616 214.796C310.605 214.796 310.593 214.796 310.582 214.796ZM308.589 207.992C308.317 210.224 309.393 213.02 311.567 212.448C313.234 211.993 314.598 210.099 315.659 206.993C317.098 202.598 316.492 197.294 313.992 192.445C311.492 187.596 307.552 183.96 303.385 182.672C297.929 181.005 292.247 181.308 285.655 181.687C281.867 181.914 278.003 182.066 273.836 181.99C271.79 181.914 269.29 181.687 266.335 181.384C254.265 180.198 234.806 178.369 219.496 186.725C217.004 188.085 214.928 191.347 216.936 193.355C217.39 193.809 217.996 193.961 218.754 193.809C220.269 193.582 222.391 192.749 225.118 191.612C230.422 189.415 237.695 186.384 246.636 185.854C252.849 185.475 259.137 186.536 265.199 187.596C272.472 188.809 279.973 190.097 287.474 189.036C296.263 187.824 302.021 188.96 305.43 192.597C308.425 195.787 309.462 200.822 308.589 207.992Z" fill="#41E4FE"/>
<path d="M246.558 239.496C245.573 239.496 244.664 239.269 243.906 238.738C242.298 237.632 241.723 235.659 241.518 234.412C241.417 233.793 241.915 233.283 242.543 233.283C243.17 233.283 243.682 233.796 243.809 234.41C243.992 235.297 244.396 236.371 245.194 236.92C245.834 237.327 246.696 237.377 247.78 237.105C248.373 236.956 249.011 237.227 249.235 237.796C249.468 238.391 249.157 239.066 248.537 239.22C247.826 239.397 247.159 239.496 246.558 239.496Z" fill="#41E4FE"/>
<path d="M110.259 440.2C122.078 407.621 149.884 382.087 172.387 383.224C175.926 383.546 176.658 382.494 173.634 380.629C171.374 379.235 169.514 378.076 168.826 377.617C165.416 375.344 161.325 373.98 156.703 373.753C134.201 372.692 106.319 398.15 94.5752 430.729C86.544 452.929 88.0593 472.704 96.9239 483.311C100.888 488.101 110.157 479.78 108.866 473.698C106.613 463.081 106.343 451.055 110.259 440.2Z" fill="url(#paint12_linear)"/>
<path d="M174.886 383.451C174.053 383.375 173.295 383.224 172.462 383.224C149.959 382.163 122.077 407.621 110.334 440.2C102.606 461.49 103.666 480.507 111.622 491.418C115.865 497.252 122.002 500.737 129.806 501.116C152.308 502.177 180.19 476.719 191.934 444.14C203.223 412.773 195.571 386.33 174.886 383.451Z" fill="url(#paint13_linear)"/>
<path d="M133.742 446.413C141.622 424.744 160.109 407.697 175.186 408.454C177.362 408.454 177.851 407.907 175.998 406.767C174.49 405.839 173.242 405.062 172.762 404.742C170.489 403.226 167.761 402.317 164.655 402.166C149.653 401.408 131.09 418.455 123.211 440.124C117.831 454.899 118.816 468.082 124.802 475.204C127.464 478.448 133.681 472.855 132.816 468.749C131.324 461.672 131.147 453.656 133.742 446.413Z" fill="url(#paint14_linear)"/>
<path d="M176.854 408.606C176.323 408.53 175.793 408.454 175.187 408.454C160.185 407.696 141.622 424.744 133.743 446.413C128.591 460.581 129.348 473.234 134.576 480.583C137.38 484.447 141.471 486.796 146.699 487.023C161.7 487.781 180.263 470.734 188.143 449.065C195.719 428.153 190.643 410.5 176.854 408.606Z" fill="url(#paint15_linear)"/>
<path d="M157.308 455.202C162.233 441.488 173.749 430.73 183.069 431.184C183.411 431.203 183.769 430.294 183.473 430.12C180.656 428.458 177.458 426.552 176.932 426.184C175.492 425.275 173.825 424.668 171.855 424.593C162.46 424.138 150.868 434.594 145.943 448.004C142.61 457.096 143.216 465.203 146.928 469.598C149.068 472.075 155.016 467.388 155.308 464.127C155.558 461.34 156.214 458.33 157.308 455.202Z" fill="url(#paint16_linear)"/>
<path d="M188.559 434.01C188.124 433.216 187.511 432.498 186.702 432.093C185.641 431.638 184.429 431.335 183.065 431.259C173.746 430.805 162.153 441.564 157.304 455.277C154.122 464.142 154.501 472.097 157.759 476.719C158.01 477.021 158.315 477.263 158.684 477.397C159.633 477.739 161.548 478.328 162.532 478.386C171.851 478.841 183.444 468.082 188.293 454.368C191.292 446.066 191.145 438.728 188.559 434.01Z" fill="url(#paint17_linear)"/>
<path d="M186.172 470.128C190.112 459.142 199.355 450.505 206.856 450.883C207.917 450.959 208.902 451.186 209.735 451.565C207.538 450.277 189.582 440.049 188.975 439.67C187.839 438.912 186.475 438.458 184.884 438.382C177.307 438.003 167.988 446.413 164.048 457.172C161.321 464.521 161.851 471.037 164.882 474.522C165.268 474.986 167.805 476.585 171.022 478.517C174.681 480.714 184.747 474.151 186.172 470.128Z" fill="url(#paint18_linear)"/>
<path d="M231.342 477.427C233.206 474.323 233.247 470.455 231.449 467.312L219.359 446.186C219.069 445.534 218.779 444.951 218.357 444.437C218.319 444.391 218.285 444.34 218.258 444.286C218.234 444.24 218.206 444.195 218.173 444.155C217.584 443.426 216.988 442.838 216.177 442.322C208.979 438.079 195.493 447.55 185.946 463.461C176.4 479.447 174.506 495.813 181.703 500.131C182.537 500.586 183.446 500.889 184.355 501.041C185.037 501.116 185.795 501.192 186.552 501.116L210.899 501.667C214.49 501.748 217.849 499.897 219.698 496.818L231.342 477.427Z" fill="url(#paint19_linear)"/>
<path d="M214.891 501.116C210.117 498.313 210.269 489.221 215.194 480.962C220.118 472.628 227.998 468.234 232.771 471.037C237.545 473.84 237.393 482.932 232.468 491.191C227.468 499.525 219.664 503.995 214.891 501.116Z" fill="url(#paint20_linear)"/>
<path opacity="0.5" d="M71.1241 220.017C65.2383 220.054 60.6574 225.142 61.2356 230.999L92.869 551.474L485.841 559.658C491.425 559.774 496.022 555.294 496.049 549.708L498.685 0.356201L116.355 218.449C114.865 219.299 113.18 219.751 111.464 219.762L71.1241 220.017Z" fill="url(#paint21_linear)"/>
<defs>
<linearGradient id="paint0_linear" x1="93.7024" y1="254.044" x2="93.7024" y2="487.707" gradientUnits="userSpaceOnUse">
<stop stop-color="#5650CC"/>
<stop offset="1" stop-color="#5650CC" stop-opacity="0"/>
</linearGradient>
<linearGradient id="paint1_linear" x1="129.149" y1="190.98" x2="44.2878" y2="190.98" gradientUnits="userSpaceOnUse">
<stop stop-color="#3729AA"/>
<stop offset="1" stop-color="#5D5ACA"/>
</linearGradient>
<linearGradient id="paint2_linear" x1="85.1172" y1="185.129" x2="86.8861" y2="259.15" gradientUnits="userSpaceOnUse">
<stop offset="0.1856" stop-color="#1D107A"/>
<stop offset="0.2407" stop-color="#1C167D"/>
<stop offset="0.3131" stop-color="#1A2686"/>
<stop offset="0.3951" stop-color="#174296"/>
<stop offset="0.4841" stop-color="#1267AB"/>
<stop offset="0.5789" stop-color="#0C98C6"/>
<stop offset="0.6769" stop-color="#05D3E6"/>
<stop offset="0.7438" stop-color="#00FFFF"/>
<stop offset="0.8211" stop-color="#08006D"/>
</linearGradient>
<linearGradient id="paint3_linear" x1="118.269" y1="246.682" x2="51.0743" y2="246.682" gradientUnits="userSpaceOnUse">
<stop offset="0.1224" stop-color="#FEC7C7"/>
<stop offset="0.9694" stop-color="#FFADB7"/>
</linearGradient>
<linearGradient id="paint4_linear" x1="59.63" y1="185.739" x2="61.399" y2="259.76" gradientUnits="userSpaceOnUse">
<stop offset="0.1856" stop-color="#1D107A"/>
<stop offset="0.2407" stop-color="#1C167D"/>
<stop offset="0.3131" stop-color="#1A2686"/>
<stop offset="0.3951" stop-color="#174296"/>
<stop offset="0.4841" stop-color="#1267AB"/>
<stop offset="0.5789" stop-color="#0C98C6"/>
<stop offset="0.6769" stop-color="#05D3E6"/>
<stop offset="0.7438" stop-color="#00FFFF"/>
<stop offset="0.8211" stop-color="#08006D"/>
</linearGradient>
<linearGradient id="paint5_linear" x1="118.268" y1="231.969" x2="51.0745" y2="231.969" gradientUnits="userSpaceOnUse">
<stop offset="0.1224" stop-color="#FEC7C7"/>
<stop offset="0.9694" stop-color="#FFADB7"/>
</linearGradient>
<linearGradient id="paint6_linear" x1="114.403" y1="184.43" x2="116.172" y2="258.451" gradientUnits="userSpaceOnUse">
<stop offset="0.1856" stop-color="#1D107A"/>
<stop offset="0.2407" stop-color="#1C167D"/>
<stop offset="0.3131" stop-color="#1A2686"/>
<stop offset="0.3951" stop-color="#174296"/>
<stop offset="0.4841" stop-color="#1267AB"/>
<stop offset="0.5789" stop-color="#0C98C6"/>
<stop offset="0.6769" stop-color="#05D3E6"/>
<stop offset="0.7438" stop-color="#00FFFF"/>
<stop offset="0.8211" stop-color="#08006D"/>
</linearGradient>
<linearGradient id="paint7_linear" x1="56.236" y1="185.82" x2="58.0049" y2="259.841" gradientUnits="userSpaceOnUse">
<stop offset="0.1856" stop-color="#1D107A"/>
<stop offset="0.2407" stop-color="#1C167D"/>
<stop offset="0.3131" stop-color="#1A2686"/>
<stop offset="0.3951" stop-color="#174296"/>
<stop offset="0.4841" stop-color="#1267AB"/>
<stop offset="0.5789" stop-color="#0C98C6"/>
<stop offset="0.6769" stop-color="#05D3E6"/>
<stop offset="0.7438" stop-color="#00FFFF"/>
<stop offset="0.8211" stop-color="#08006D"/>
</linearGradient>
<linearGradient id="paint8_linear" x1="233.683" y1="290.039" x2="325.001" y2="758.5" gradientUnits="userSpaceOnUse">
<stop offset="0.0643764" stop-color="#2CA7D1"/>
<stop offset="0.404248" stop-color="#2CA7D1" stop-opacity="0"/>
</linearGradient>
<linearGradient id="paint9_linear" x1="251.459" y1="362.172" x2="313" y2="555" gradientUnits="userSpaceOnUse">
<stop offset="0.0643764" stop-color="#3CD8F4"/>
<stop offset="0.594472" stop-color="#2CA7D1" stop-opacity="0"/>
</linearGradient>
<linearGradient id="paint10_linear" x1="0.0161464" y1="409.991" x2="186.227" y2="409.991" gradientUnits="userSpaceOnUse">
<stop offset="0.045953" stop-color="#6360D6"/>
<stop offset="0.2634" stop-color="#6464D6"/>
<stop offset="0.4785" stop-color="#6870D5"/>
<stop offset="0.6921" stop-color="#6E84D4"/>
<stop offset="0.6956" stop-color="#6E84D4"/>
</linearGradient>
<linearGradient id="paint11_linear" x1="290.948" y1="292.532" x2="369" y2="526.356" gradientUnits="userSpaceOnUse">
<stop stop-color="#41E4FE"/>
<stop offset="1" stop-color="#41E4FE" stop-opacity="0"/>
</linearGradient>
<linearGradient id="paint12_linear" x1="89.3209" y1="435.849" x2="186.23" y2="435.849" gradientUnits="userSpaceOnUse">
<stop offset="0.045953" stop-color="#6360D6"/>
<stop offset="0.2634" stop-color="#6464D6"/>
<stop offset="0.4785" stop-color="#6870D5"/>
<stop offset="0.6921" stop-color="#6E84D4"/>
<stop offset="0.6956" stop-color="#6E84D4"/>
</linearGradient>
<linearGradient id="paint13_linear" x1="110.829" y1="456.979" x2="197.249" y2="425.128" gradientUnits="userSpaceOnUse">
<stop offset="0.045953" stop-color="#21006C"/>
<stop offset="0.2028" stop-color="#23046F"/>
<stop offset="0.3626" stop-color="#271078"/>
<stop offset="0.5238" stop-color="#2F2587"/>
<stop offset="0.6859" stop-color="#3A419C"/>
<stop offset="0.8473" stop-color="#4866B7"/>
<stop offset="0.9914" stop-color="#578DD4"/>
</linearGradient>
<linearGradient id="paint14_linear" x1="119.793" y1="443.54" x2="184.385" y2="443.54" gradientUnits="userSpaceOnUse">
<stop offset="0.045953" stop-color="#6360D6"/>
<stop offset="0.2634" stop-color="#6464D6"/>
<stop offset="0.4785" stop-color="#6870D5"/>
<stop offset="0.6921" stop-color="#6E84D4"/>
<stop offset="0.6956" stop-color="#6E84D4"/>
</linearGradient>
<linearGradient id="paint15_linear" x1="132.447" y1="439.857" x2="191.619" y2="456.207" gradientUnits="userSpaceOnUse">
<stop offset="0.045953" stop-color="#21006C"/>
<stop offset="0.2028" stop-color="#23046F"/>
<stop offset="0.3626" stop-color="#271078"/>
<stop offset="0.5238" stop-color="#2F2587"/>
<stop offset="0.6859" stop-color="#3A419C"/>
<stop offset="0.8473" stop-color="#4866B7"/>
<stop offset="0.9914" stop-color="#578DD4"/>
</linearGradient>
<linearGradient id="paint16_linear" x1="143.737" y1="450.804" x2="186.738" y2="450.804" gradientUnits="userSpaceOnUse">
<stop offset="0.045953" stop-color="#6360D6"/>
<stop offset="0.2634" stop-color="#6464D6"/>
<stop offset="0.4785" stop-color="#6870D5"/>
<stop offset="0.6921" stop-color="#6E84D4"/>
<stop offset="0.6956" stop-color="#6E84D4"/>
</linearGradient>
<linearGradient id="paint17_linear" x1="155.155" y1="454.736" x2="190.517" y2="454.736" gradientUnits="userSpaceOnUse">
<stop offset="0.045953" stop-color="#21006C"/>
<stop offset="0.2028" stop-color="#23046F"/>
<stop offset="0.3626" stop-color="#271078"/>
<stop offset="0.5238" stop-color="#2F2587"/>
<stop offset="0.6859" stop-color="#3A419C"/>
<stop offset="0.8473" stop-color="#4866B7"/>
<stop offset="0.9914" stop-color="#578DD4"/>
</linearGradient>
<linearGradient id="paint18_linear" x1="166.562" y1="471.915" x2="202.335" y2="453.645" gradientUnits="userSpaceOnUse">
<stop stop-color="#21006C"/>
<stop offset="0.00407996" stop-color="#21016D"/>
<stop offset="0.1555" stop-color="#322C8C"/>
<stop offset="0.3095" stop-color="#3F4FA6"/>
<stop offset="0.4647" stop-color="#4A6ABA"/>
<stop offset="0.6212" stop-color="#517EC9"/>
<stop offset="0.7801" stop-color="#5689D1"/>
<stop offset="0.9448" stop-color="#578DD4"/>
</linearGradient>
<linearGradient id="paint19_linear" x1="189.551" y1="492.482" x2="230.429" y2="452.826" gradientUnits="userSpaceOnUse">
<stop offset="0.045953" stop-color="#6360D6"/>
<stop offset="0.2811" stop-color="#6264D6"/>
<stop offset="0.5138" stop-color="#5F70D5"/>
<stop offset="0.7448" stop-color="#5A84D4"/>
<stop offset="0.8306" stop-color="#578DD4"/>
</linearGradient>
<linearGradient id="paint20_linear" x1="212.141" y1="488.246" x2="247.068" y2="481.81" gradientUnits="userSpaceOnUse">
<stop offset="0.045953" stop-color="#21006C"/>
<stop offset="0.1735" stop-color="#230671"/>
<stop offset="0.3463" stop-color="#2A177D"/>
<stop offset="0.5451" stop-color="#353492"/>
<stop offset="0.7633" stop-color="#445CAF"/>
<stop offset="0.9914" stop-color="#578DD4"/>
</linearGradient>
<linearGradient id="paint21_linear" x1="82.6469" y1="276.831" x2="248.009" y2="395.275" gradientUnits="userSpaceOnUse">
<stop offset="0.0643764" stop-color="#23C7FF"/>
<stop offset="0.866013" stop-color="#2CA7D1" stop-opacity="0"/>
<stop offset="1" stop-color="#2CA7D1" stop-opacity="0"/>
</linearGradient>
</defs>
</svg>
