<svg width="91" height="138" viewBox="0 0 91 138" fill="none" xmlns="http://www.w3.org/2000/svg">
<path d="M71.756 47.5481H50.208V70.6923H71.756V47.5481Z" fill="url(#paint0_linear)"/>
<path fill-rule="evenodd" clip-rule="evenodd" d="M71.7569 54.7309C71.7569 55.1717 71.3996 55.529 70.9588 55.529H56.5935C56.1527 55.529 55.7954 55.1717 55.7954 54.7309C55.7954 54.2902 56.1527 53.9329 56.5935 53.9329H70.9588C71.3996 53.9329 71.7569 54.2902 71.7569 54.7309Z" fill="url(#paint1_linear)"/>
<path fill-rule="evenodd" clip-rule="evenodd" d="M71.7569 59.5193C71.7569 59.96 71.3996 60.3173 70.9588 60.3173H56.5935C56.1527 60.3173 55.7954 59.96 55.7954 59.5193C55.7954 59.0785 56.1527 58.7212 56.5935 58.7212H70.9588C71.3996 58.7212 71.7569 59.0785 71.7569 59.5193Z" fill="url(#paint2_linear)"/>
<path fill-rule="evenodd" clip-rule="evenodd" d="M71.7569 64.3078C71.7569 64.7486 71.3996 65.1059 70.9588 65.1059H56.5935C56.1527 65.1059 55.7954 64.7486 55.7954 64.3078C55.7954 63.8671 56.1527 63.5098 56.5935 63.5098H70.9588C71.3996 63.5098 71.7569 63.8671 71.7569 64.3078Z" fill="url(#paint3_linear)"/>
<path d="M51.1131 69.4151C51.1137 69.4155 51.1143 69.4159 51.1149 69.4162L85.9853 90.7208C86.1514 90.8459 86.2465 91.0503 86.2535 91.2662C86.2607 91.4907 86.1739 91.6424 86.0834 91.7067L51.1149 113.016C51.1143 113.016 51.1138 113.016 51.1132 113.017C47.6285 115.107 43.1821 115.107 39.6973 113.017C39.6966 113.016 39.6959 113.016 39.6953 113.016L4.82466 91.7108C4.48293 91.4553 4.48293 90.9765 4.82466 90.721L39.6953 69.4162C39.6959 69.4159 39.6965 69.4155 39.6971 69.4151C43.1819 67.3252 47.6283 67.3252 51.1131 69.4151Z" stroke="url(#paint4_linear)"/>
<g filter="url(#filter0_d)">
<path d="M4 92.0112C4 92.0112 4.1822 106.861 4.5466 107.043L39.438 128.36C43.082 130.547 47.7281 130.547 51.3721 128.36L86.3546 107.043C86.719 106.861 86.9012 92.0112 86.9012 92.0112L52.9527 112.666C48.5078 115.37 42.9298 115.386 38.4692 112.708L4 92.0112Z" fill="url(#paint5_linear)"/>
<path d="M4.96528 106.713C4.94975 106.615 4.93319 106.477 4.91629 106.298C4.87753 105.886 4.84095 105.3 4.80688 104.593C4.73885 103.181 4.68203 101.313 4.6365 99.4465C4.591 97.5807 4.55686 95.7203 4.5341 94.3261C4.52495 93.7661 4.51765 93.2815 4.51218 92.902L38.2118 113.137C42.8317 115.911 48.609 115.894 53.2126 113.093L86.3889 92.9082C86.3835 93.2867 86.3762 93.7692 86.3671 94.3261C86.3444 95.7203 86.3102 97.5807 86.2647 99.4465C86.2192 101.313 86.1624 103.181 86.0943 104.593C86.0603 105.3 86.0237 105.886 85.9849 106.298C85.968 106.477 85.9515 106.615 85.936 106.712L51.1149 127.931C51.1143 127.932 51.1137 127.932 51.1132 127.932C47.6284 130.022 43.1821 130.022 39.6973 127.933C39.6966 127.932 39.6959 127.932 39.6952 127.931L4.96528 106.713Z" stroke="url(#paint6_linear)"/>
</g>
<path d="M86.2626 0H4.3634C4.3634 0 3.72583 91.7619 4.36354 92.1263L39.346 113.444C42.99 115.63 47.6361 115.63 51.2802 113.444L86.2626 92.1263C86.8092 91.7619 86.2626 0 86.2626 0Z" fill="url(#paint7_linear)"/>
<path d="M76.8915 53.7297C76.8363 53.3196 77.0263 52.9126 77.3837 52.7039L82.1717 49.9084C82.5926 49.6626 82.775 49.1492 82.6035 48.693L80.4946 43.0826C80.323 42.626 79.8471 42.3599 79.3682 42.4527L73.9138 43.5102C73.5092 43.5886 73.0995 43.4097 72.8702 43.0674C71.2852 40.7013 69.3353 38.6512 67.1458 36.9708C66.8187 36.7198 66.667 36.2991 66.7718 35.9003L68.1845 30.5275C68.3088 30.0545 68.0729 29.5611 67.6267 29.3609L62.1559 26.9059C61.7126 26.707 61.1904 26.8556 60.9182 27.2581L57.8046 31.8623C57.5724 32.2057 57.1527 32.3683 56.7466 32.2854C54.0413 31.7331 51.2378 31.6382 48.4078 32.0005C48.0002 32.0527 47.5973 31.8619 47.3906 31.5067L44.1925 26.012C44.189 26.0059 44.1807 26.0049 44.1757 26.0098L44.1698 26.0157C44.1652 26.0203 44.1574 26.017 44.1574 26.0105C44.1574 26.0054 44.1523 26.0019 44.1475 26.0037L37.7157 28.4005C37.2573 28.5713 36.9898 29.0487 37.0833 29.5288L38.142 34.9639C38.2208 35.3684 38.0423 35.7783 37.6998 36.0074C35.6333 37.3891 33.8079 39.025 32.2881 40.8721C32.2809 40.8808 32.2815 40.8936 32.2895 40.9016C32.2975 40.9095 32.2982 40.9222 32.2911 40.931C32.0069 41.2798 31.723 41.6289 31.4524 41.9914C31.3185 42.1706 31.0904 42.2547 30.8738 42.1985C30.3168 42.0538 29.9521 42.7667 30.3954 43.1337L34.5168 46.5462C35.0122 46.9564 35.7599 46.7982 36.0881 46.245C36.757 45.1174 37.5482 44.0646 38.4499 43.0749C38.4818 43.0398 38.5163 43.0072 38.5531 42.9773C40.1167 41.706 41.9003 40.682 43.904 39.9324C53.9558 36.1684 65.162 41.2246 68.9631 51.2525C71.6379 58.3311 69.8922 65.9996 65.0775 71.1961C63.5008 72.4883 61.6988 73.5276 59.6715 74.286C54.5324 76.2086 49.0898 75.8385 44.5041 73.6692C43.7393 73.3073 42.8144 73.9233 42.9319 74.7612L43.9378 81.9394C44.0643 82.8418 45.2377 83.1118 45.7458 82.3553C45.976 82.0126 46.3939 81.85 46.7984 81.9326C49.5052 82.4854 52.3103 82.5804 55.142 82.2176C55.5484 82.1655 55.9502 82.355 56.1575 82.7084L59.3829 88.2064C59.3865 88.2125 59.3948 88.2136 59.3998 88.2086L59.4057 88.2027C59.4102 88.1982 59.4181 88.2014 59.4181 88.2079C59.4181 88.213 59.4232 88.2165 59.4279 88.2147L65.8331 85.8185C66.2907 85.6473 66.5576 85.1704 66.4642 84.6907L65.4065 79.2609C65.3271 78.8532 65.5091 78.4406 65.8556 78.2116C67.9189 76.8485 69.7438 75.1912 71.2872 73.3463C71.2945 73.3376 71.2939 73.3248 71.2859 73.3168C71.2779 73.3089 71.2773 73.2962 71.2844 73.2875C71.5013 73.0211 71.7182 72.7546 71.9291 72.4821C72.184 72.1527 72.6086 71.9963 73.0115 72.1017L78.3917 73.5096C78.865 73.6334 79.3583 73.3967 79.5579 72.9501L81.9942 67.4978C82.1925 67.0539 82.0429 66.5317 81.6395 66.2603L77.0245 63.1541C76.6802 62.9224 76.5167 62.5025 76.5999 62.0959C77.1567 59.3739 77.2718 56.5553 76.8915 53.7297Z" fill="url(#paint8_linear)"/>
<path d="M34.951 50.2131C35.4297 50.2974 35.9365 50.4098 36.4996 50.4659L34.951 50.2131Z" fill="#8A97CC"/>
<path d="M44.074 46.9828C43.8487 46.6457 43.5672 46.2805 43.2293 45.9154C42.0186 44.5109 40.2166 42.9098 37.598 41.7581C35.4863 40.6626 32.9241 39.9604 30.1648 40.0166C26.3073 40.1008 24.5053 41.9828 24.2238 43.0222C24.1956 43.1345 24.1112 43.2188 23.9985 43.275C23.3509 43.5278 21.3237 44.7356 21.1266 50.0165V50.0445L21.1829 52.9097V52.9378C21.7742 59.904 24.7306 61.8141 24.7306 61.8141L24.8714 61.8984L25.8287 62.5725C25.8005 62.3759 25.6597 62.1512 25.5471 61.9545C25.4063 61.8141 25.2656 61.7017 25.0966 61.5332C23.0975 59.4826 21.9713 55.7748 23.6325 54.9883C23.9985 54.8198 25.1811 53.8366 27.1239 55.0726L28.8414 56.6456L30.8124 52.2636C31.4036 51.0277 32.0794 50.0445 32.8114 49.8198C32.9804 49.7637 33.1493 49.7637 33.3183 49.7917C33.7688 49.9041 34.3319 50.0165 34.9795 50.1569L36.5281 50.4097C37.2038 50.494 37.9359 50.5782 38.6961 50.6063H39.5408L43.0603 49.876C43.3982 49.7917 43.7361 49.7075 44.074 49.5389C44.4682 49.3423 44.8342 49.0895 45.2002 48.8367C45.1721 48.8648 44.8342 48.0783 44.074 46.9828Z" fill="url(#paint9_linear)"/>
<path d="M25.6028 62.5162C25.3775 62.4319 25.1241 62.6004 25.096 62.8532L24.9552 66.9824C24.9552 67.0105 24.9552 67.0386 24.9552 67.0667C25.0396 67.4318 25.6591 70.1004 27.7708 72.0947C28.5029 72.797 29.1505 73.3587 29.7136 73.8644C30.9525 74.8756 31.9098 75.3812 32.9516 75.4093C34.4157 75.4655 35.6264 75.0441 36.0769 73.8082C36.1051 73.7239 36.1332 73.6396 36.1614 73.5273C36.4429 72.3475 36.2459 70.3251 36.1895 69.679C36.1614 69.5386 36.0769 69.4262 35.9643 69.3981C35.3449 69.1734 33.3458 68.415 31.5438 67.4599C30.6709 67.0386 30.0233 66.6734 29.5165 66.224C29.3476 66.0555 29.1786 65.8869 29.0097 65.6903C28.7563 65.3532 29.2068 64.9038 29.5447 65.1847C30.2204 65.7465 31.0933 66.3364 32.135 66.7296C34.0778 67.488 36.2459 68.415 37.7663 68.3307C37.7945 68.3307 37.8226 68.3307 37.8508 68.3026C40.1314 68.6397 40.6664 64.651 40.6664 64.651L41.0043 64.3982C41.314 64.1735 41.3985 63.7521 41.2295 63.415L41.0887 63.1341C41.0887 63.1341 41.0887 63.1341 41.5392 62.9656C41.9897 62.7971 41.5111 60.8589 41.5111 60.8589C41.5111 60.8589 44.1578 60.4375 43.7354 59.3701C43.3131 58.3027 42.2995 55.55 42.2995 55.55L43.4539 50.6343C41.9616 51.3927 39.3149 51.7579 39.3149 51.7579C35.9643 51.8702 34.0778 50.6062 33.1205 50.6624C31.769 50.7466 28.7281 59.7634 28.7281 59.7634C28.1368 56.3646 26.1377 55.578 25.5746 55.4095C24.5047 55.1286 23.9416 54.9882 23.2376 56.2522C22.4211 57.7129 25.462 61.9544 25.462 61.9544C25.6028 62.151 25.7154 62.3476 25.7436 62.5724C25.7154 62.5443 25.6591 62.5443 25.6028 62.5162ZM27.8271 64.0611C27.799 64.0611 27.7708 64.033 27.7708 64.0049C27.8271 64.033 27.8271 64.033 27.8271 64.0611ZM27.4892 63.724C27.4611 63.724 27.4611 63.6959 27.4611 63.6678C27.4892 63.6959 27.4892 63.6959 27.4892 63.724ZM27.1514 63.387C27.1232 63.387 27.0951 63.3589 27.0951 63.3308C27.1232 63.3589 27.1514 63.3589 27.1514 63.387ZM26.7853 63.1061C26.7572 63.1061 26.729 63.1061 26.729 63.078C26.7572 63.078 26.7572 63.1061 26.7853 63.1061ZM26.6164 62.9937C26.5882 62.9937 26.5601 62.9937 26.5601 62.9656C26.5882 62.9656 26.6164 62.9937 26.6164 62.9937ZM26.4475 62.8813C26.4193 62.8813 26.3912 62.8532 26.3912 62.8532C26.4193 62.8813 26.4193 62.8813 26.4475 62.8813Z" fill="#8A97CC"/>
<path fill-rule="evenodd" clip-rule="evenodd" d="M47.0005 99.8219L47.0009 85.915C47.1698 85.4936 47.2261 84.5667 46.8882 81.5892C46.8601 81.3645 46.8319 81.1397 46.8038 80.8869C46.7756 80.4937 46.6911 80.0723 46.663 79.6229C46.1843 72.4039 39.2297 70.5219 38.6384 70.7185C37.8219 70.9713 37.484 71.2522 37.484 71.2522V73.4432C36.0481 78.7521 30.276 75.4095 30.2478 75.4095C28.9808 74.3982 26.5031 71.9544 25.7428 70.4938C24.87 68.8084 24.335 67.5163 24.9263 65.8309C24.9263 65.8309 24.4758 65.6343 23.0117 67.2635C22.7864 67.5163 22.5612 67.7691 22.3359 67.9657C21.3505 68.977 20.8155 69.5387 21.3786 71.0837C20.196 71.505 18.1125 73.1061 16.9018 74.3702C16.5076 74.7634 16.0852 75.1567 15.6347 75.5218C14.3395 76.6173 12.988 77.769 12.5939 79.9038C12.1434 82.2633 12.182 92.9549 11.9004 95.0335C35.1864 112.652 45.4195 102.216 47.0005 99.8219Z" fill="url(#paint10_linear)"/>
<defs>
<filter id="filter0_d" x="0" y="92.0112" width="90.9012" height="45.9888" filterUnits="userSpaceOnUse" color-interpolation-filters="sRGB">
<feFlood flood-opacity="0" result="BackgroundImageFix"/>
<feColorMatrix in="SourceAlpha" type="matrix" values="0 0 0 0 0 0 0 0 0 0 0 0 0 0 0 0 0 0 127 0"/>
<feOffset dy="4"/>
<feGaussianBlur stdDeviation="2"/>
<feColorMatrix type="matrix" values="0 0 0 0 0 0 0 0 0 0 0 0 0 0 0 0 0 0 0.25 0"/>
<feBlend mode="normal" in2="BackgroundImageFix" result="effect1_dropShadow"/>
<feBlend mode="normal" in="SourceGraphic" in2="effect1_dropShadow" result="shape"/>
</filter>
<linearGradient id="paint0_linear" x1="61.9615" y1="70.6923" x2="91.5514" y2="64.2041" gradientUnits="userSpaceOnUse">
<stop stop-color="#3D48DB"/>
<stop offset="0.494792" stop-color="#3C2D93"/>
<stop offset="1" stop-color="#6238B3"/>
</linearGradient>
<linearGradient id="paint1_linear" x1="59.8152" y1="54.9466" x2="59.824" y2="52.9856" gradientUnits="userSpaceOnUse">
<stop stop-color="#01F8F1"/>
<stop offset="1" stop-color="#3643A3"/>
</linearGradient>
<linearGradient id="paint2_linear" x1="59.8152" y1="59.7349" x2="59.824" y2="57.7739" gradientUnits="userSpaceOnUse">
<stop stop-color="#01F8F1"/>
<stop offset="1" stop-color="#3643A3"/>
</linearGradient>
<linearGradient id="paint3_linear" x1="59.8152" y1="64.5235" x2="59.824" y2="62.5625" gradientUnits="userSpaceOnUse">
<stop stop-color="#01F8F1"/>
<stop offset="1" stop-color="#3643A3"/>
</linearGradient>
<linearGradient id="paint4_linear" x1="45.4111" y1="67.3477" x2="45.4111" y2="115.084" gradientUnits="userSpaceOnUse">
<stop stop-color="#00D1FF" stop-opacity="0"/>
<stop offset="1" stop-color="#00D1FF"/>
</linearGradient>
<linearGradient id="paint5_linear" x1="4" y1="110.164" x2="86.9924" y2="110.164" gradientUnits="userSpaceOnUse">
<stop stop-color="#3D48DB"/>
<stop offset="0.494792" stop-color="#3C2D93"/>
<stop offset="0.915468" stop-color="#6238B3"/>
</linearGradient>
<linearGradient id="paint6_linear" x1="45.4506" y1="91.2154" x2="45.4506" y2="140.41" gradientUnits="userSpaceOnUse">
<stop stop-opacity="0"/>
<stop offset="1" stop-color="#00D1FF"/>
</linearGradient>
<linearGradient id="paint7_linear" x1="41.5293" y1="141.867" x2="41.5293" y2="5.40491" gradientUnits="userSpaceOnUse">
<stop stop-color="#00FFFF" stop-opacity="0.7"/>
<stop offset="1" stop-color="#0BBDD7" stop-opacity="0"/>
</linearGradient>
<linearGradient id="paint8_linear" x1="42.2234" y1="65.515" x2="46.1155" y2="-10.7283" gradientUnits="userSpaceOnUse">
<stop stop-color="#01F8F1"/>
<stop offset="1" stop-color="#3643A3"/>
</linearGradient>
<linearGradient id="paint9_linear" x1="34.2577" y1="62.5725" x2="66.8468" y2="54.3821" gradientUnits="userSpaceOnUse">
<stop stop-color="#3D48DB"/>
<stop offset="0.494792" stop-color="#3C2D93"/>
<stop offset="1" stop-color="#6238B3"/>
</linearGradient>
<linearGradient id="paint10_linear" x1="49.4099" y1="117.38" x2="31.3879" y2="28.2814" gradientUnits="userSpaceOnUse">
<stop offset="0.0995536" stop-color="#3D48DB" stop-opacity="0"/>
<stop offset="0.389393" stop-color="#3C2D93"/>
<stop offset="0.895048" stop-color="#6238B3"/>
</linearGradient>
</defs>
</svg>
