<svg width="92" height="138" viewBox="0 0 92 138" fill="none" xmlns="http://www.w3.org/2000/svg">
<path d="M51.9 69.4002L86.8 90.7002C87 90.8002 87.1 91.0002 87.1 91.2002C87.1 91.4002 87 91.6002 86.9 91.6002L51.9 112.9C48.4 115 44 115 40.5 112.9L5.6 91.7002C5.3 91.4002 5.3 91.0002 5.6 90.7002L40.5 69.4002C44 67.3002 48.4 67.3002 51.9 69.4002Z" stroke="url(#paint0_linear)"/>
<g filter="url(#filter0_d)">
<path d="M4.80078 92C4.80078 92 5.00078 106.8 5.30078 107L40.2008 128.3C43.8008 130.5 48.5008 130.5 52.1008 128.3L87.1008 107C87.5008 106.8 87.6008 92 87.6008 92L53.7008 112.7C49.3008 115.4 43.7008 115.4 39.2008 112.7L4.80078 92Z" fill="url(#paint1_linear)"/>
<path d="M5.70078 106.7C5.70078 106.6 5.70078 106.5 5.70078 106.3C5.70078 105.9 5.60078 105.3 5.60078 104.6C5.50078 103.2 5.50078 101.3 5.40078 99.4999C5.40078 97.5999 5.30078 95.7999 5.30078 94.3999C5.30078 93.7999 5.30078 93.3999 5.30078 92.9999L39.0008 113.1C43.6008 115.9 49.4008 115.9 54.0008 113.1L87.2008 92.8999C87.2008 93.2999 87.2008 93.7999 87.2008 94.2999C87.2008 95.6999 87.1008 97.5999 87.1008 99.3999C87.1008 101.3 87.0008 103.1 86.9008 104.5C86.9008 105.2 86.8008 105.8 86.8008 106.2C86.8008 106.4 86.8008 106.5 86.8008 106.6L52.0008 127.8C48.5008 129.9 44.1008 129.9 40.6008 127.8L5.70078 106.7Z" stroke="url(#paint2_linear)"/>
</g>
<path d="M87.0006 0H5.10065C5.10065 0 4.50065 91.8 5.10065 92.1L40.1007 113.4C43.7006 115.6 48.4007 115.6 52.0007 113.4L87.0006 92.1C87.6006 91.8 87.0006 0 87.0006 0Z" fill="url(#paint3_linear)"/>
<path d="M44.6996 76.6001L51.2996 80.1001L52.7996 79.4001L44.6996 75.1001L36.5996 79.4001L38.0996 80.1001L44.6996 76.6001Z" fill="url(#paint4_linear)"/>
<path d="M46.1992 90.7002L56.0992 85.2002C52.9992 83.7002 49.5992 82.1002 46.1992 80.2002V90.7002Z" fill="url(#paint5_linear)"/>
<path d="M69.5992 77.5999V73.9999V73.4999V46.3999L46.1992 59.8999V77.5999C50.9992 80.1999 55.3992 82.0999 59.0992 83.4999L69.5992 77.5999Z" fill="url(#paint6_linear)"/>
<path d="M46.1992 77.6001V80.2001C49.5992 82.0001 52.8992 83.7001 56.0992 85.2001L59.0992 83.5001C55.2992 82.1001 50.9992 80.2001 46.1992 77.6001Z" fill="url(#paint7_linear)"/>
<path d="M46.1992 33L23.6992 45.8L23.0992 46.2L22.6992 46.4L46.1992 59.9L69.5992 46.4L46.1992 33Z" fill="url(#paint8_linear)"/>
<path d="M22.9992 74.3999C22.8992 74.4999 22.7992 74.5999 22.6992 74.7999V77.5999L32.8992 83.2999C36.6992 81.9999 41.0992 80.0999 46.1992 77.4999V59.8999L22.6992 46.3999V74.1999C22.7992 74.0999 22.8992 73.9999 22.9992 73.8999V74.3999Z" fill="url(#paint9_linear)"/>
<path d="M46.1992 90.7002V80.2002C42.6992 82.0002 39.2992 83.7002 36.1992 85.1002L46.1992 90.7002Z" fill="url(#paint10_linear)"/>
<path d="M32.9004 83.3L36.2004 85.1C39.4004 83.7 42.7004 82 46.2004 80.2V77.5C41.1004 80.1 36.6004 82 32.9004 83.3Z" fill="url(#paint11_linear)"/>
<path d="M91.6991 41.8998C89.9991 38.8998 80.2991 40.8998 68.4991 45.8998L68.9991 46.1998C75.4991 43.8998 83.5991 41.8998 84.9991 44.3998C87.3991 48.4998 75.6991 60.1998 55.5991 72.1998C52.2991 74.1998 49.0991 75.9998 46.0991 77.4998C40.9991 80.0998 36.5991 81.9998 32.7991 83.2998C25.4991 85.6998 20.7991 85.6998 19.3991 83.4998C17.9991 81.0998 18.8991 79.0998 22.5991 74.7998V74.1998C12.7991 82.1998 9.59909 87.0998 11.2991 89.9998C13.0991 93.1998 22.9991 90.9998 36.0991 85.0998C39.2991 83.6998 42.5991 81.9998 46.0991 80.1998C49.3991 78.3998 52.8991 76.4998 56.3991 74.3998C78.5991 61.0998 94.3991 46.5998 91.6991 41.8998Z" fill="url(#paint12_linear)"/>
<path d="M22.9992 74.4V74C22.8992 74.1 22.7992 74.2 22.6992 74.3V74.9C22.7992 74.7 22.8992 74.6 22.9992 74.4Z" fill="url(#paint13_linear)"/>
<path d="M69.6004 73.4998V73.9998C73.6004 78.4998 75.9004 81.9998 74.5004 84.3998C73.1004 86.7999 67.6004 86.5998 59.1004 83.4998C55.4004 82.0998 51.0004 80.1998 46.2004 77.5998C43.7004 76.2998 41.1004 74.7998 38.4004 73.1998C18.3004 61.1998 6.60042 49.4999 9.00042 45.3999C10.3004 43.0999 17.2004 44.5998 23.4004 46.5998L24.0004 46.1999C12.9004 41.6999 3.90042 39.9999 2.30042 42.8999C-0.399581 47.5999 15.4004 62.0998 37.6004 75.3998C40.5004 77.0998 43.4004 78.7999 46.2004 80.2999C49.6004 82.0998 52.9004 83.7999 56.1004 85.2999C70.1004 91.7999 80.8004 94.3998 82.7004 90.9998C84.4004 87.9998 79.8004 81.5998 69.6004 73.4998Z" fill="url(#paint14_linear)"/>
<defs>
<filter id="filter0_d" x="0.800781" y="92" width="90.9" height="45.95" filterUnits="userSpaceOnUse" color-interpolation-filters="sRGB">
<feFlood flood-opacity="0" result="BackgroundImageFix"/>
<feColorMatrix in="SourceAlpha" type="matrix" values="0 0 0 0 0 0 0 0 0 0 0 0 0 0 0 0 0 0 127 0"/>
<feOffset dy="4"/>
<feGaussianBlur stdDeviation="2"/>
<feColorMatrix type="matrix" values="0 0 0 0 0 0 0 0 0 0 0 0 0 0 0 0 0 0 0.25 0"/>
<feBlend mode="normal" in2="BackgroundImageFix" result="effect1_dropShadow"/>
<feBlend mode="normal" in="SourceGraphic" in2="effect1_dropShadow" result="shape"/>
</filter>
<linearGradient id="paint0_linear" x1="46.1956" y1="67.3479" x2="46.1956" y2="115.085" gradientUnits="userSpaceOnUse">
<stop stop-color="#00D1FF" stop-opacity="0"/>
<stop offset="1" stop-color="#00D1FF"/>
</linearGradient>
<linearGradient id="paint1_linear" x1="4.78518" y1="111.006" x2="87.7776" y2="111.006" gradientUnits="userSpaceOnUse">
<stop stop-color="#3D48DB"/>
<stop offset="0.4948" stop-color="#3C2D93"/>
<stop offset="0.9155" stop-color="#6238B3"/>
</linearGradient>
<linearGradient id="paint2_linear" x1="46.2359" y1="91.2153" x2="46.2359" y2="140.41" gradientUnits="userSpaceOnUse">
<stop stop-opacity="0"/>
<stop offset="1" stop-color="#00D1FF"/>
</linearGradient>
<linearGradient id="paint3_linear" x1="46.0779" y1="141.867" x2="46.0779" y2="5.40489" gradientUnits="userSpaceOnUse">
<stop stop-color="#00FFFF" stop-opacity="0.7"/>
<stop offset="1" stop-color="#0BBDD7" stop-opacity="0"/>
</linearGradient>
<linearGradient id="paint4_linear" x1="43.9763" y1="75.8295" x2="45.2092" y2="81.8301" gradientUnits="userSpaceOnUse">
<stop stop-color="#6AC4D1"/>
<stop offset="1" stop-color="#384798"/>
</linearGradient>
<linearGradient id="paint5_linear" x1="15.8556" y1="43.7356" x2="60.7346" y2="100.034" gradientUnits="userSpaceOnUse">
<stop stop-color="#01F8F1"/>
<stop offset="1" stop-color="#3643A3"/>
</linearGradient>
<linearGradient id="paint6_linear" x1="32.6683" y1="30.3329" x2="77.5473" y2="86.6316" gradientUnits="userSpaceOnUse">
<stop stop-color="#01F8F1"/>
<stop offset="1" stop-color="#3643A3"/>
</linearGradient>
<linearGradient id="paint7_linear" x1="19.7519" y1="40.6295" x2="64.6309" y2="96.9282" gradientUnits="userSpaceOnUse">
<stop stop-color="#01F8F1"/>
<stop offset="1" stop-color="#3643A3"/>
</linearGradient>
<linearGradient id="paint8_linear" x1="14.5971" y1="46.4662" x2="1048.77" y2="46.4662" gradientUnits="userSpaceOnUse">
<stop stop-color="#3D48DB"/>
<stop offset="0.4948" stop-color="#3C2D93"/>
<stop offset="0.9155" stop-color="#6238B3"/>
</linearGradient>
<linearGradient id="paint9_linear" x1="11.1848" y1="27.0572" x2="47.6158" y2="92.4651" gradientUnits="userSpaceOnUse">
<stop stop-color="#01F8F1"/>
<stop offset="1" stop-color="#3643A3"/>
</linearGradient>
<linearGradient id="paint10_linear" x1="10.4057" y1="27.4915" x2="46.8367" y2="92.8994" gradientUnits="userSpaceOnUse">
<stop stop-color="#01F8F1"/>
<stop offset="1" stop-color="#3643A3"/>
</linearGradient>
<linearGradient id="paint11_linear" x1="10.117" y1="27.6527" x2="46.548" y2="93.0606" gradientUnits="userSpaceOnUse">
<stop stop-color="#01F8F1"/>
<stop offset="1" stop-color="#3643A3"/>
</linearGradient>
<linearGradient id="paint12_linear" x1="118.04" y1="-57.5757" x2="-345.093" y2="799.636" gradientUnits="userSpaceOnUse">
<stop stop-color="#01F8F1"/>
<stop offset="1" stop-color="#3643A3"/>
</linearGradient>
<linearGradient id="paint13_linear" x1="-0.0355241" y1="33.3068" x2="36.3956" y2="98.7147" gradientUnits="userSpaceOnUse">
<stop stop-color="#01F8F1"/>
<stop offset="1" stop-color="#3643A3"/>
</linearGradient>
<linearGradient id="paint14_linear" x1="-28.8518" y1="-65.362" x2="481.576" y2="879.388" gradientUnits="userSpaceOnUse">
<stop stop-color="#01F8F1"/>
<stop offset="1" stop-color="#3643A3"/>
</linearGradient>
</defs>
</svg>
