<svg width="92" height="138" viewBox="0 0 92 138" fill="none" xmlns="http://www.w3.org/2000/svg">
<path d="M51.3358 69.4157C51.3364 69.416 51.3369 69.4164 51.3375 69.4167L86.37 90.7214C86.5374 90.8469 86.6326 91.0512 86.6396 91.2663C86.6468 91.4898 86.5601 91.6414 86.4686 91.7061L51.3375 113.015C51.337 113.015 51.3364 113.016 51.3359 113.016C47.8336 115.107 43.3645 115.107 39.8623 113.016C39.8618 113.016 39.8612 113.015 39.8607 113.015L4.82794 91.7103C4.48444 91.4547 4.48444 90.9771 4.82794 90.7216L39.8607 69.4167C39.8612 69.4164 39.8618 69.416 39.8624 69.4157C43.3646 67.325 47.8336 67.325 51.3358 69.4157Z" stroke="url(#paint0_linear)"/>
<g filter="url(#filter0_d)">
<path d="M4 92.0112C4 92.0112 4.18305 106.861 4.54914 107.043L39.6026 128.36C43.2636 130.547 47.9313 130.547 51.5922 128.36L86.7372 107.043C87.1033 106.861 87.2863 92.0112 87.2863 92.0112L53.1221 112.701C48.6893 115.385 43.1361 115.401 38.6877 112.743L4 92.0112Z" fill="url(#paint1_linear)"/>
<path d="M4.96736 106.712C4.95178 106.615 4.93516 106.477 4.91821 106.297C4.87928 105.886 4.84253 105.3 4.80831 104.593C4.73996 103.181 4.68287 101.313 4.63713 99.4464C4.59142 97.5807 4.55712 95.7203 4.53425 94.3261C4.52505 93.7651 4.5177 93.2797 4.5122 92.8999L38.4312 113.172C43.0385 115.926 48.79 115.909 53.3811 113.128L86.7741 92.906C86.7686 93.2849 86.7612 93.7681 86.7521 94.3261C86.7292 95.7203 86.6949 97.5807 86.6492 99.4464C86.6035 101.313 86.5464 103.181 86.478 104.593C86.4438 105.3 86.4071 105.886 86.3681 106.297C86.3512 106.477 86.3346 106.614 86.319 106.712L51.3358 127.931C51.3353 127.931 51.3347 127.932 51.3342 127.932C47.8319 130.023 43.3629 130.023 39.8606 127.932C39.8601 127.932 39.8595 127.931 39.859 127.931L4.96736 106.712Z" stroke="url(#paint2_linear)"/>
</g>
<path d="M86.6463 0H4.36667C4.36667 0 3.72614 91.7619 4.36681 92.1263L39.5118 113.444C43.1728 115.63 47.8404 115.63 51.5014 113.444L86.6464 92.1263C87.1955 91.7619 86.6463 0 86.6463 0Z" fill="url(#paint3_linear)"/>
<path d="M52.4082 89.3862V83.9207C52.4082 82.6748 52.9028 81.4826 53.782 80.5717L56.6396 77.6513C57.6425 76.6198 59.0301 76.0438 60.4863 76.0438H60.7748C61.3381 76.0438 61.8739 75.8295 62.2723 75.441L67.5204 70.3773C68.2073 69.7075 69.3201 69.6807 70.0345 70.3103C70.8176 70.9935 70.8588 72.1724 70.1169 72.8957L63.7423 79.2321C63.4813 79.5 63.4676 79.9153 63.7148 80.1966C63.9896 80.4913 64.4567 80.5047 64.759 80.2234L71.2022 74.021C72.4936 72.7752 72.4524 70.739 71.1061 69.5467L70.3092 68.8367L71.2572 65.8494C71.3808 65.4342 71.4495 65.0189 71.4495 64.5902L71.3808 59.9954C71.3671 58.5218 72.4387 57.2626 73.9224 57.0215C74.7742 56.8741 75.5573 57.5037 75.5985 58.3477L75.9282 67.8053C75.9282 67.9392 75.9282 68.0732 75.9145 68.2071L75.2276 73.9272C74.9665 76.0572 73.9361 78.0264 72.315 79.4732L66.4625 84.6842C65.2947 85.7291 64.5666 87.1625 64.4704 88.703C64.4567 89.0513 64.4567 89.3326 64.5254 89.48L52.4082 89.3862Z" fill="url(#paint4_linear)"/>
<path d="M63.8253 101.8H53.309C52.1963 101.8 51.2871 100.92 51.2871 99.8441V93.6754C51.2871 92.5991 52.1963 91.7197 53.309 91.7197H63.8253C64.938 91.7197 65.8471 92.5991 65.8471 93.6754V99.8441C65.8471 100.933 64.938 101.8 63.8253 101.8Z" fill="url(#paint5_linear)"/>
<path d="M37.8071 89.3862V83.9184C37.8071 82.672 37.3131 81.4793 36.4349 80.568L33.5669 77.6464C32.5652 76.6145 31.1792 76.0383 29.7247 76.0383H29.4365C28.8739 76.0383 28.3387 75.8238 27.9408 75.4352L22.6989 70.3694C22.0128 69.6993 20.9013 69.6725 20.1877 70.3024C19.4055 70.9859 19.3644 72.1652 20.1054 72.8889L26.4725 79.2278C26.7332 79.4959 26.7469 79.9113 26.4999 80.1927C26.2255 80.4876 25.7589 80.501 25.4571 80.2195L19.0213 74.0146C17.7314 72.7683 17.7726 70.7312 19.1174 69.5385L19.9132 68.8282L18.9527 65.8531C18.8292 65.4376 18.7606 65.0222 18.7606 64.5933L18.8292 59.9966C18.8429 58.5224 17.7726 57.2627 16.2906 57.0215C15.4398 56.8741 14.6576 57.5039 14.6164 58.3482L14.2871 67.7963C14.2871 67.9303 14.2871 68.0643 14.3008 68.1984L14.9869 73.9208C15.2477 76.0517 16.2768 78.0217 17.8961 79.4691L23.7418 84.6822C24.9082 85.7276 25.6354 87.1615 25.7315 88.7027C25.7452 89.0512 25.7452 89.3326 25.6766 89.48L37.8071 89.3862Z" fill="url(#paint6_linear)"/>
<path d="M26.389 101.8H36.9053C38.018 101.8 38.9272 100.92 38.9272 99.8441V93.6754C38.9272 92.5991 38.018 91.7197 36.9053 91.7197H26.389C25.2763 91.7197 24.3672 92.5991 24.3672 93.6754V99.8441C24.3672 100.933 25.2628 101.8 26.389 101.8Z" fill="url(#paint7_linear)"/>
<path d="M47.9103 77H41.6972C40.2481 77 38.5823 75.7616 38.5823 73.3014V68.992C38.5823 66.9445 37.5496 65.0953 35.8839 63.6588C32.1527 60.7858 30.2871 56.6744 30.2871 52.1668C30.487 44.3569 36.9166 38.1981 44.5789 38C48.51 38 52.2412 39.4365 54.9396 42.1113C57.6381 44.7862 59.2871 48.4682 59.2871 52.3815C59.2871 56.6909 57.4215 60.8023 53.9069 63.4771C52.0413 64.9136 51.0085 67.1757 51.0085 69.2231V73.9454C51.0085 75.5635 49.5594 77 47.9103 77ZM44.7954 40.0474C38.1659 40.0474 32.5691 45.5953 32.3692 52.1668C32.3692 56.0635 34.0183 59.7621 37.1332 62.0241C39.4152 63.8734 40.6478 66.3336 40.6478 69.0085V73.318C40.6478 73.7307 40.6478 74.9526 41.6806 74.9526H47.8937C48.51 74.9526 48.9264 74.5398 48.9264 73.9289V69.2066C48.9264 66.5318 50.3756 63.6588 52.6576 61.8095C55.5559 59.5474 57.2216 56.0635 57.2216 52.3649C57.2216 49.0792 55.9723 46.008 53.4904 43.5313C51.2251 41.2858 48.1102 40.0474 44.7954 40.0474Z" fill="url(#paint8_linear)"/>
<path d="M45.3257 32.2408C44.7047 32.2408 44.2852 31.8225 44.2852 31.2035V27.0373C44.2852 26.4183 44.7047 26 45.3257 26C45.9467 26 46.3662 26.4183 46.3662 27.0373V31.2035C46.383 31.8225 45.9634 32.2408 45.3257 32.2408Z" fill="url(#paint9_linear)"/>
<path d="M59.3062 38.0635C59.1048 38.0635 58.6852 38.0635 58.467 37.8627C58.0475 37.4444 58.0475 36.8254 58.467 36.4071L61.3873 33.4958C61.8068 33.0776 62.4278 33.0776 62.8474 33.4958C63.2669 33.9141 63.2669 34.5332 62.8474 34.9515L59.9271 37.8627C59.9439 37.8627 59.5243 38.0635 59.3062 38.0635Z" fill="url(#paint10_linear)"/>
<path d="M69.3269 52.0005H65.148C64.527 52.0005 64.1074 51.5822 64.1074 50.9631C64.1074 50.3441 64.527 49.9258 65.148 49.9258H69.3269C69.9479 49.9258 70.3675 50.3441 70.3675 50.9631C70.3842 51.5989 69.9647 52.0005 69.3269 52.0005Z" fill="url(#paint11_linear)"/>
<path d="M25.5066 52.0005H21.3277C20.7067 52.0005 20.2871 51.5822 20.2871 50.9631C20.2871 50.3441 20.7067 49.9258 21.3277 49.9258H25.5066C26.1276 49.9258 26.5472 50.3441 26.5472 50.9631C26.5472 51.5989 26.1276 52.0005 25.5066 52.0005Z" fill="url(#paint12_linear)"/>
<path d="M31.3455 38.0632C31.1442 38.0632 30.7246 38.0632 30.5064 37.8625L27.5862 34.7337C27.1666 34.3154 27.1666 33.6964 27.5862 33.2781C28.0057 32.8598 28.6267 32.8598 29.0463 33.2781L31.9665 36.1893C32.3861 36.6076 32.3861 37.2267 31.9665 37.645C31.7651 37.8625 31.5637 38.0632 31.3455 38.0632Z" fill="url(#paint13_linear)"/>
<defs>
<filter id="filter0_d" x="0" y="92.0112" width="91.2863" height="45.9888" filterUnits="userSpaceOnUse" color-interpolation-filters="sRGB">
<feFlood flood-opacity="0" result="BackgroundImageFix"/>
<feColorMatrix in="SourceAlpha" type="matrix" values="0 0 0 0 0 0 0 0 0 0 0 0 0 0 0 0 0 0 127 0"/>
<feOffset dy="4"/>
<feGaussianBlur stdDeviation="2"/>
<feColorMatrix type="matrix" values="0 0 0 0 0 0 0 0 0 0 0 0 0 0 0 0 0 0 0.25 0"/>
<feBlend mode="normal" in2="BackgroundImageFix" result="effect1_dropShadow"/>
<feBlend mode="normal" in="SourceGraphic" in2="effect1_dropShadow" result="shape"/>
</filter>
<linearGradient id="paint0_linear" x1="45.6051" y1="67.3477" x2="45.6051" y2="115.084" gradientUnits="userSpaceOnUse">
<stop stop-color="#00D1FF" stop-opacity="0"/>
<stop offset="1" stop-color="#00D1FF"/>
</linearGradient>
<linearGradient id="paint1_linear" x1="4" y1="110.164" x2="87.378" y2="110.164" gradientUnits="userSpaceOnUse">
<stop stop-color="#3D48DB"/>
<stop offset="0.494792" stop-color="#3C2D93"/>
<stop offset="0.915468" stop-color="#6238B3"/>
</linearGradient>
<linearGradient id="paint2_linear" x1="45.6432" y1="91.2154" x2="45.6432" y2="140.41" gradientUnits="userSpaceOnUse">
<stop stop-opacity="0"/>
<stop offset="1" stop-color="#00D1FF"/>
</linearGradient>
<linearGradient id="paint3_linear" x1="41.7052" y1="141.867" x2="41.7052" y2="5.40491" gradientUnits="userSpaceOnUse">
<stop stop-color="#00FFFF" stop-opacity="0.7"/>
<stop offset="1" stop-color="#0BBDD7" stop-opacity="0"/>
</linearGradient>
<linearGradient id="paint4_linear" x1="61.4732" y1="61.988" x2="57.9073" y2="26.0156" gradientUnits="userSpaceOnUse">
<stop stop-color="#01F8F1"/>
<stop offset="1" stop-color="#3643A3"/>
</linearGradient>
<linearGradient id="paint5_linear" x1="59.2289" y1="101.8" x2="78.0107" y2="95.4105" gradientUnits="userSpaceOnUse">
<stop stop-color="#3D48DB"/>
<stop offset="0.494792" stop-color="#3C2D93"/>
<stop offset="1" stop-color="#6238B3"/>
</linearGradient>
<linearGradient id="paint6_linear" x1="23.3521" y1="61.988" x2="19.7862" y2="26.0156" gradientUnits="userSpaceOnUse">
<stop stop-color="#01F8F1"/>
<stop offset="1" stop-color="#3643A3"/>
</linearGradient>
<linearGradient id="paint7_linear" x1="32.309" y1="101.8" x2="51.0907" y2="95.4105" gradientUnits="userSpaceOnUse">
<stop stop-color="#3D48DB"/>
<stop offset="0.494792" stop-color="#3C2D93"/>
<stop offset="1" stop-color="#6238B3"/>
</linearGradient>
<linearGradient id="paint8_linear" x1="41.4642" y1="43.9893" x2="67.5896" y2="71.2229" gradientUnits="userSpaceOnUse">
<stop stop-color="#01F8F1"/>
<stop offset="1" stop-color="#3643A3"/>
</linearGradient>
<linearGradient id="paint9_linear" x1="45.0874" y1="26.9584" x2="68.7595" y2="35.3893" gradientUnits="userSpaceOnUse">
<stop stop-color="#01F8F1"/>
<stop offset="1" stop-color="#3643A3"/>
</linearGradient>
<linearGradient id="paint10_linear" x1="60.0832" y1="33.9318" x2="89.252" y2="65.8968" gradientUnits="userSpaceOnUse">
<stop stop-color="#01F8F1"/>
<stop offset="1" stop-color="#3643A3"/>
</linearGradient>
<linearGradient id="paint11_linear" x1="66.5203" y1="50.2444" x2="73.5688" y2="72.9556" gradientUnits="userSpaceOnUse">
<stop stop-color="#01F8F1"/>
<stop offset="1" stop-color="#3643A3"/>
</linearGradient>
<linearGradient id="paint12_linear" x1="22.6998" y1="50.2444" x2="29.7488" y2="72.9553" gradientUnits="userSpaceOnUse">
<stop stop-color="#01F8F1"/>
<stop offset="1" stop-color="#3643A3"/>
</linearGradient>
<linearGradient id="paint13_linear" x1="29.2023" y1="33.7474" x2="59.7635" y2="65.8096" gradientUnits="userSpaceOnUse">
<stop stop-color="#01F8F1"/>
<stop offset="1" stop-color="#3643A3"/>
</linearGradient>
</defs>
</svg>
