<svg width="130" height="84" viewBox="0 0 130 84" fill="none" xmlns="http://www.w3.org/2000/svg">
<path fill-rule="evenodd" clip-rule="evenodd" d="M50.7228 53.1515C50.723 53.1523 50.7232 53.153 50.7234 53.1538C50.9459 53.9947 51.1708 54.7926 51.4816 55.5475C51.4825 55.5499 51.4835 55.5523 51.4845 55.5547V55.6005L66.8302 55.8298C66.8342 55.8219 66.8437 55.7974 66.8578 55.7589C66.9988 55.3744 67.5979 53.5971 67.6927 53.0989C67.6932 53.0958 67.6938 53.0928 67.6944 53.0898C67.6984 53.0678 67.7014 53.0485 67.7032 53.0322C68.6591 49.3517 70.4267 46.7516 72.1572 44.2062L72.2058 44.1346C72.245 44.0767 72.2843 44.0188 72.3236 43.9608C73.3441 42.4558 74.3976 40.9019 75.2382 39.1355C75.3301 38.8603 75.4679 38.4935 75.6057 38.1266C78.3625 29.8253 74.7328 20.6066 67.1518 16.6623C64.9465 15.5157 62.4654 14.8277 60.0763 14.6902C59.8006 14.6443 59.479 14.6443 59.2033 14.6443C59.0479 14.6443 58.8924 14.655 58.7318 14.6661C58.574 14.6769 58.4112 14.6882 58.2385 14.6899C58.2308 14.69 58.2231 14.6901 58.2153 14.6901C58.2077 14.6901 58.2001 14.6902 58.1925 14.6902H58.0547C57.7845 14.6902 57.4701 14.7342 57.1549 14.7792C57.1485 14.7801 57.1421 14.781 57.1358 14.7819H57.0898C56.125 14.9195 55.1601 15.1488 54.2412 15.424C53.2304 15.745 52.2196 16.1578 51.2548 16.6623C51.2416 16.6692 51.2284 16.6761 51.2152 16.6831C43.707 20.6389 40.0948 29.8397 42.8008 38.1265C42.8062 38.1503 42.8116 38.1738 42.8172 38.197C42.8175 38.1981 42.8177 38.1991 42.818 38.2001C42.9094 38.5778 43.0389 38.8769 43.1684 39.1355C43.1741 39.1472 43.1799 39.1589 43.1856 39.1706C43.1859 39.1711 43.1861 39.1716 43.1863 39.1721C44.0564 40.9467 45.1513 42.5859 46.2008 44.1346C46.2104 44.1487 46.22 44.1628 46.2296 44.1769C46.2296 44.177 46.2296 44.1769 46.2296 44.1769C47.9664 46.7322 49.7439 49.3835 50.7034 53.078C50.7099 53.1026 50.7164 53.1271 50.7228 53.1515ZM66.2901 55.0585L52.0318 54.8454C51.8109 54.2383 51.6319 53.5915 51.4459 52.8859C50.4445 49.0312 48.5817 46.2747 46.8369 43.708C45.7784 42.146 44.7048 40.5361 43.8585 38.8021L43.855 38.7951C43.7345 38.5544 43.6239 38.294 43.5499 37.9614L43.5419 37.9256L43.5305 37.8907C40.9299 29.9266 44.4224 21.1014 51.6117 17.3379M66.2901 55.0585C66.3628 54.8447 66.4498 54.5843 66.5367 54.3167C66.639 54.0018 66.7399 53.6814 66.8173 53.417C66.8562 53.2845 66.8877 53.1707 66.9103 53.0812C66.9309 52.9998 66.9384 52.96 66.9402 52.9502C66.9407 52.9479 66.9408 52.9473 66.9407 52.9482L66.9467 52.894L66.9604 52.8412C67.9496 49.0326 69.7807 46.3394 71.5039 43.8048L71.5697 43.708C71.6056 43.6549 71.6416 43.602 71.6775 43.549C72.6971 42.045 73.7135 40.5459 74.5254 38.8496C74.6209 38.5682 74.7545 38.2124 74.8819 37.8732C77.517 29.9158 74.0266 21.1006 66.7965 17.3387C64.6846 16.2407 62.3093 15.5833 60.0319 15.4521L59.9906 15.4497L59.9497 15.4429C59.7487 15.4095 59.4941 15.4075 59.2033 15.4075C59.0748 15.4075 58.9426 15.4166 58.7706 15.4285L58.7681 15.4286C58.6028 15.44 58.4061 15.4534 58.1925 15.4534H58.0547C57.8449 15.4534 57.5819 15.4893 57.2446 15.5374L57.1905 15.5451H57.1452C56.246 15.6766 55.3402 15.8922 54.4685 16.153C53.4995 16.4611 52.5323 16.8566 51.6117 17.3379" fill="#00FFFF"/>
<path d="M39.4927 51.8285C39.0373 51.3603 39.0829 50.6112 39.5382 50.1898L42.7257 47.0061C43.1811 46.5379 43.9097 46.5847 44.3195 47.0529C44.7749 47.5211 44.7293 48.2702 44.274 48.6916L41.0865 51.8753C40.6766 52.2967 39.9481 52.2499 39.4927 51.8285Z" fill="#00FFFF"/>
<path d="M36.1087 35.6945H30.3943C29.6986 35.6945 29.152 35.2918 29.152 34.7792C29.152 34.2667 29.6986 33.864 30.3943 33.864H36.1087C36.8044 33.864 37.351 34.2667 37.351 34.7792C37.351 35.2918 36.8044 35.6945 36.1087 35.6945Z" fill="#00FFFF"/>
<path d="M78.9375 51.8285C79.3929 51.3603 79.3474 50.6112 78.892 50.1898L75.7045 47.0061C75.2491 46.5379 74.5206 46.5847 74.1107 47.0529C73.6554 47.5211 73.7009 48.2702 74.1563 48.6916L77.3438 51.8753C77.7536 52.2967 78.4822 52.2499 78.9375 51.8285Z" fill="#00FFFF"/>
<path d="M78.9378 13.1542C79.3932 13.6224 79.3477 14.3715 78.8923 14.7929L75.7048 17.9766C75.2494 18.4448 74.5209 18.3979 74.111 17.9297C73.6557 17.4616 73.7012 16.7124 74.1566 16.2911L77.3441 13.1074C77.7539 12.686 78.4825 12.7328 78.9378 13.1542Z" fill="#00FFFF"/>
<path d="M39.4921 13.1542C39.0368 13.6224 39.0823 14.3715 39.5377 14.7929L42.7252 17.9766C43.1805 18.4448 43.9091 18.3979 44.3189 17.9297C44.7743 17.4616 44.7288 16.7124 44.2734 16.2911L41.0859 13.1074C40.6761 12.686 39.9475 12.7328 39.4921 13.1542Z" fill="#00FFFF"/>
<path d="M80.4997 35.6945H86.2142C86.9099 35.6945 87.4565 35.2918 87.4565 34.7792C87.4565 34.2667 86.9099 33.864 86.2142 33.864H80.4997C79.804 33.864 79.2574 34.2667 79.2574 34.7792C79.2574 35.2918 79.804 35.6945 80.4997 35.6945Z" fill="#00FFFF"/>
<path d="M60.1256 9.87388V4.77075C60.1256 4.1495 59.7248 3.66138 59.2146 3.66138C58.7044 3.66138 58.3036 4.1495 58.3036 4.77075V9.87388C58.3036 10.4951 58.7044 10.9833 59.2146 10.9833C59.7248 10.9833 60.1256 10.4951 60.1256 9.87388Z" fill="#00FFFF"/>
<path d="M65.4033 63.1517H53.0271C50.9029 63.1517 49.1942 61.3104 49.1942 59.0331C49.1942 56.7558 50.9029 54.9146 53.0271 54.9146H65.4033C67.5276 54.9146 69.2363 56.7558 69.2363 59.0331C69.2363 61.3104 67.5276 63.1517 65.4033 63.1517ZM53.0271 57.3372C52.1959 57.3372 51.5032 58.1125 51.5032 59.0331C51.5032 59.9537 52.1959 60.729 53.0271 60.729H65.4033C66.2346 60.729 66.9273 59.9537 66.9273 59.0331C66.9273 58.1125 66.2346 57.3372 65.4033 57.3372H53.0271Z" fill="#00FFFF"/>
<path d="M65.4488 68.6431H53.027C50.9028 68.6431 49.1942 66.8019 49.1942 64.5246C49.1942 62.2472 50.9028 60.406 53.027 60.406H65.4026C67.5268 60.406 69.2354 62.2472 69.2354 64.5246C69.2815 66.8019 67.573 68.6431 65.4488 68.6431ZM53.027 62.7802C52.1958 62.7802 51.5031 63.5555 51.5031 64.4761C51.5031 65.3967 52.1958 66.172 53.027 66.172H65.4026C66.2338 66.172 66.9265 65.3967 66.9265 64.4761C66.9265 63.5555 66.28 62.7802 65.4488 62.7802H53.027Z" fill="#00FFFF"/>
<path d="M65.4495 74.1343H53.0271C50.9029 74.1343 49.1942 72.2931 49.1942 70.0158C49.1942 67.7385 50.9029 65.8972 53.0271 65.8972H65.4033C67.5276 65.8972 69.2363 67.7385 69.2363 70.0158C69.2363 72.2931 67.5738 74.1343 65.4495 74.1343ZM53.0271 68.3199C52.1959 68.3199 51.5032 69.0952 51.5032 70.0158C51.5032 70.9364 52.1959 71.7116 53.0271 71.7116H65.4033C66.2346 71.7116 66.9273 70.9364 66.9273 70.0158C66.9273 69.0952 66.2346 68.3199 65.4033 68.3199H53.0271Z" fill="#00FFFF"/>
<path fill-rule="evenodd" clip-rule="evenodd" d="M60.6051 40.1665L60.6475 56.4046L58.346 56.4107L58.3036 40.1726L60.6051 40.1665Z" fill="#00FFFF"/>
<path fill-rule="evenodd" clip-rule="evenodd" d="M59.2149 32.4098C57.4189 32.4098 55.9539 33.8754 55.9539 35.6945C55.9539 37.5137 57.4189 38.9793 59.2149 38.9793C61.0109 38.9793 62.476 37.5137 62.476 35.6945C62.476 33.8754 61.0109 32.4098 59.2149 32.4098ZM53.7489 35.6945C53.7489 32.6668 56.1911 30.2031 59.2149 30.2031C62.2387 30.2031 64.6809 32.6668 64.6809 35.6945C64.6809 38.7223 62.2387 41.1859 59.2149 41.1859C56.1911 41.1859 53.7489 38.7223 53.7489 35.6945Z" fill="#00FFFF"/>
<path d="M69.4156 35.9521C69.4159 35.9515 69.4163 35.9509 69.4166 35.9503L90.7213 0.917846C90.8467 0.750419 91.051 0.655257 91.2661 0.648284C91.4897 0.641036 91.6412 0.72779 91.706 0.819266L113.015 35.9503C113.015 35.9509 113.016 35.9514 113.016 35.952C115.107 39.4542 115.107 43.9233 113.016 47.4255C113.016 47.4261 113.015 47.4266 113.015 47.4272L91.7101 82.4599C91.4546 82.8034 90.977 82.8034 90.7215 82.4599L69.4166 47.4272C69.4163 47.4266 69.4159 47.426 69.4156 47.4255C67.3248 43.9233 67.3248 39.4543 69.4156 35.9521Z" stroke="url(#paint0_linear)"/>
<path d="M106.712 82.319C106.615 82.3346 106.477 82.3512 106.298 82.3682C105.886 82.4071 105.3 82.4438 104.593 82.4781C103.182 82.5464 101.313 82.6035 99.4466 82.6492C97.5809 82.695 95.7205 82.7293 94.3263 82.7521C93.7653 82.7613 93.2799 82.7687 92.9001 82.7742L113.172 48.8552C115.926 44.2479 115.909 38.4964 113.129 33.9052L92.9062 0.512321C93.2851 0.517807 93.7683 0.525131 94.3263 0.534286C95.7205 0.557152 97.5809 0.591453 99.4466 0.637169C101.313 0.682907 103.182 0.739997 104.593 0.808341C105.3 0.842567 105.886 0.879318 106.298 0.91825C106.477 0.935188 106.615 0.951782 106.712 0.967353L127.931 35.9506C127.931 35.9511 127.932 35.9516 127.932 35.9522C130.023 39.4544 130.023 43.9235 127.932 47.4257C127.932 47.4263 127.931 47.4268 127.931 47.4274L106.712 82.319Z" fill="url(#paint1_linear)" stroke="url(#paint2_linear)"/>
<path d="M-3.609e-06 0.64077L-1.24419e-08 82.9204C-1.24419e-08 82.9204 91.7619 83.561 92.1263 82.9203L113.444 47.7753C115.63 44.1144 115.63 39.4467 113.444 35.7857L92.1263 0.640713C91.7619 0.0915716 -3.609e-06 0.64077 -3.609e-06 0.64077Z" fill="url(#paint3_linear)"/>
<defs>
<linearGradient id="paint0_linear" x1="67.3475" y1="41.6827" x2="115.084" y2="41.6827" gradientUnits="userSpaceOnUse">
<stop stop-color="#00D1FF" stop-opacity="0"/>
<stop offset="1" stop-color="#00D1FF"/>
</linearGradient>
<linearGradient id="paint1_linear" x1="110.165" y1="83.2864" x2="110.165" y2="-0.0915919" gradientUnits="userSpaceOnUse">
<stop stop-color="#3D48DB"/>
<stop offset="0.494792" stop-color="#3C2D93"/>
<stop offset="0.915468" stop-color="#6238B3"/>
</linearGradient>
<linearGradient id="paint2_linear" x1="91.2157" y1="41.6432" x2="140.41" y2="41.6432" gradientUnits="userSpaceOnUse">
<stop stop-opacity="0"/>
<stop offset="1" stop-color="#00D1FF"/>
</linearGradient>
<linearGradient id="paint3_linear" x1="141.867" y1="45.5819" x2="5.40491" y2="45.5819" gradientUnits="userSpaceOnUse">
<stop stop-color="#00FFFF" stop-opacity="0.7"/>
<stop offset="1" stop-color="#0BBDD7" stop-opacity="0"/>
</linearGradient>
</defs>
</svg>
